<svg width="414" height="414" viewBox="0 0 414 414" fill="none" xmlns="http://www.w3.org/2000/svg">
<circle cx="207" cy="207" r="207" fill="#09A8EF"/>
<path d="M275.39 162.14C275.39 147.49 267.8 137.14 253.89 132.67C246.36 130.26 238.89 127.8 231.28 125.34C242.28 102.16 240.68 85.82 226.69 74.78C215.05 65.6 197.54 65.78 185.9 75.09C172.15 86.16 170.7 102.98 181.79 125.28C173.27 128.1 165 130.64 156.9 133.56C151.176 135.498 146.213 139.202 142.726 144.137C139.238 149.073 137.405 154.987 137.49 161.03C137.43 184.69 137.43 208.357 137.49 232.03C137.458 238.994 139.545 245.803 143.475 251.552C147.404 257.302 152.99 261.72 159.49 264.22C162.71 265.46 163.69 266.91 163.67 270.28C163.51 292.6 163.57 314.93 163.6 337.28C163.6 343.57 165.35 345.4 171.53 345.41C194.863 345.45 218.197 345.45 241.53 345.41C247.76 345.41 249.37 343.66 249.38 337.3C249.38 314.813 249.38 292.323 249.38 269.83C249.38 267.3 249.71 265.75 252.56 264.63C267.64 258.69 275.47 246.85 275.47 230.63C275.43 207.797 275.403 184.967 275.39 162.14ZM214.82 240.24C211.204 241.409 207.386 241.827 203.602 241.466C199.819 241.106 196.149 239.976 192.818 238.144C189.487 236.313 186.566 233.82 184.235 230.819C181.903 227.817 180.21 224.37 179.26 220.69C177.81 215.07 178.41 208.4 179.87 202.69C182.79 191.25 197.21 169.55 206.8 160.34C217.55 173.95 228.1 187.28 233.48 203.74C238.65 219.56 230.44 235.38 214.82 240.24Z" fill="white"/>
<path d="M317.13 270.91V128.52H294.34V271.43H273.62L305.77 307.31L338.27 270.91H317.13Z" fill="white"/>
<path d="M118.35 270.82V128.07C112.53 128.07 107.22 128.37 101.95 127.98C97.23 127.63 95.73 129.06 95.76 133.98C95.94 175.78 95.86 217.58 95.85 259.38V271.25H75L107.26 307.31L138.76 272.04C138.53 271.63 138.29 271.23 138.05 270.82H118.35Z" fill="white"/>
</svg>
