<svg width="414" height="414" viewBox="0 0 414 414" fill="none" xmlns="http://www.w3.org/2000/svg">
<circle cx="207" cy="207" r="207" fill="#09A8EF"/>
<path d="M145.032 222.692H111.679C107.398 222.692 103.919 226.166 103.919 230.452V336.713C103.919 345.549 111.083 352.713 119.919 352.713H199.486C207.065 352.713 213.604 347.395 215.15 339.976L218.905 321.95C220.241 315.536 225.443 310.689 231.424 308.016C231.747 307.872 232.073 307.722 232.401 307.566C235.956 305.876 238.228 302.428 239.168 298.606L239.911 295.589C242.392 285.505 234.759 275.766 224.374 275.766H162.849C161.607 275.766 160.361 275.639 159.208 275.176C156.801 274.207 152.79 271.933 152.79 267.522V230.454C152.79 226.166 149.316 222.692 145.03 222.692H145.032Z" fill="white"/>
<path d="M309.866 146.182C309.866 163.896 295.504 178.258 277.79 178.258C260.074 178.258 245.714 163.896 245.714 146.182C245.714 128.467 260.073 114.105 277.79 114.105C295.504 114.105 309.866 128.467 309.866 146.182Z" fill="white"/>
<path d="M227.513 174.419C229.357 168.407 225.985 162.035 219.976 160.179C213.96 158.321 207.574 161.692 205.713 167.71C200.86 183.415 198.155 210.619 209.492 232.549H238.114C215.996 213.7 226.959 176.234 227.512 174.417L227.513 174.419Z" fill="white"/>
<path d="M233.875 333.255C231.524 342.812 237.364 352.466 246.921 354.817C248.351 355.168 249.783 355.336 251.192 355.336C259.203 355.336 266.483 349.895 268.482 341.771L289.154 257.765C290.462 252.447 289.254 246.824 285.876 242.513C282.499 238.203 277.327 235.686 271.852 235.686H207.585C194.779 212.595 197.565 183.449 202.713 166.784C204.609 160.652 210.19 156.532 216.605 156.532C218.056 156.532 219.501 156.749 220.9 157.181C228.544 159.543 232.857 167.688 230.51 175.337C230.218 176.299 226.655 188.48 227.586 202.001C230.448 195.081 233.312 188.61 235.731 182.882C242.643 169.834 240.888 152.114 229.602 146.652C218.313 141.187 199.69 144.038 188.383 162.998C172.99 189.158 167.111 207.052 164.226 238.804C163.885 262.184 178.799 267.716 191.621 270.23C195.377 270.969 198.543 271.469 201.223 271.32C201.248 271.32 201.271 271.325 201.298 271.325H249.112L233.875 333.255Z" fill="white"/>
<path d="M266.419 62.0569C267.799 60.7345 266.471 57.6552 265.078 58.9941C261.599 62.3363 258.971 67.0981 258.404 72.826C257.791 79.001 262.352 82.9664 262.866 88.7648C263.211 92.6677 261.388 96.9413 259.298 99.5446C258.04 101.107 259.925 103.611 261.177 102.051C264.676 97.6987 266.206 91.3996 265.051 85.2219C263.9 79.0718 259.515 76.1103 261.887 69.0967C262.806 66.3671 264.598 63.8051 266.419 62.0565L266.419 62.0569Z" fill="white"/>
<path d="M282.005 62.0569C283.383 60.7345 282.057 57.6552 280.664 58.9941C277.185 62.3363 274.557 67.0981 273.99 72.826C273.38 79.001 277.938 82.9664 278.452 88.7648C278.797 92.6677 276.974 96.9413 274.884 99.5446C273.626 101.107 275.511 103.611 276.763 102.051C280.262 97.6987 281.792 91.3996 280.637 85.2219C279.488 79.0718 275.101 76.1103 277.473 69.0967C278.394 66.3671 280.186 63.8051 282.005 62.0565L282.005 62.0569Z" fill="white"/>
<path d="M297.591 62.0569C298.971 60.7345 297.645 57.6552 296.25 58.9941C292.771 62.3363 290.143 67.0981 289.576 72.826C288.964 79.001 293.522 82.9664 294.038 88.7648C294.383 92.6677 292.56 96.9413 290.47 99.5446C289.212 101.107 291.099 103.611 292.351 102.051C295.851 97.6987 297.378 91.3996 296.225 85.2219C295.077 79.0718 290.687 76.1103 293.061 69.0967C293.982 66.3671 295.772 63.8051 297.591 62.0565L297.591 62.0569Z" fill="white"/>
</svg>
