<svg width="414" height="414" viewBox="0 0 414 414" fill="none" xmlns="http://www.w3.org/2000/svg">
<circle cx="207" cy="207" r="207" fill="#09A8EF"/>
<path d="M158.267 314.539H151.326L168.211 242.218C169.127 238.303 168.211 234.182 165.723 231.022C163.235 227.863 159.445 226.006 155.423 225.977L149.968 225.937C145.333 226.024 140.859 224.25 137.541 221.012C134.226 217.771 132.348 213.338 132.328 208.704V138.147H141.148V208.21C141.099 210.357 141.805 212.454 143.146 214.133C144.485 215.815 146.373 216.97 148.477 217.399C151.04 217.84 153.667 217.126 155.653 215.449C157.641 213.773 158.789 211.304 158.787 208.704V138.147H167.607V168.201C174.489 160.308 179.261 150.802 181.476 140.568L185.039 123.947C190.253 133.702 199.737 140.451 210.664 142.177C221.59 143.904 232.693 140.409 240.662 132.738C248.629 125.066 252.543 114.104 251.232 103.121C249.921 92.1356 243.536 82.4028 233.986 76.8213C224.436 71.2422 212.821 70.4606 202.61 74.7089C192.398 78.9592 184.768 87.7513 181.996 98.4589H169.058C150.663 98.5002 132.659 103.768 117.143 113.651C101.628 123.532 89.2412 137.618 81.4255 154.269C74.5018 169.109 73.1214 185.937 77.5374 201.704C81.9551 217.471 91.8731 231.134 105.498 240.217L127.547 254.905L115.57 330.804C115.168 333.348 115.898 335.94 117.568 337.901C119.239 339.86 121.682 340.992 124.257 341H158.786C162.758 340.996 166.519 339.208 169.03 336.133C171.544 333.058 172.547 329.019 171.759 325.125C171.07 322.079 169.351 319.362 166.893 317.435C164.436 315.508 161.388 314.486 158.266 314.541L158.267 314.539Z" fill="white"/>
<path d="M326.359 155.786C322.851 155.786 319.484 157.18 317.004 159.661C314.524 162.141 313.13 165.508 313.13 169.015V177.835H299.901C297.465 177.835 295.491 179.81 295.491 182.245V252.802H180.836C179.442 252.802 178.131 253.461 177.298 254.577C176.465 255.696 176.211 257.143 176.611 258.477C177.154 260.281 189.378 300.04 215.012 305.172L207.426 335.515V335.517C207.097 336.834 207.393 338.23 208.227 339.301C209.064 340.372 210.346 340.998 211.704 340.998H317.539C318.709 340.998 319.831 340.533 320.658 339.706C321.485 338.879 321.949 337.757 321.949 336.588V292.049C326.926 291.025 331.399 288.318 334.612 284.381C337.825 280.445 339.583 275.522 339.589 270.441V169.015C339.589 165.507 338.195 162.14 335.714 159.66C333.234 157.18 329.867 155.786 326.359 155.786L326.359 155.786Z" fill="white"/>
<path d="M203.414 186.685C201.648 186.466 199.927 187.339 199.057 188.89C194.907 196.148 185.771 213.924 190.529 222.117C191.338 223.481 192.507 224.598 193.909 225.342C195.311 226.088 196.89 226.432 198.474 226.342C201.823 226.431 205.004 224.883 206.999 222.192C213.464 213.618 208.237 193.748 207.123 189.851C206.634 188.146 205.174 186.898 203.414 186.685L203.414 186.685Z" fill="white"/>
<path d="M220.045 151.401C218.21 151.604 216.696 152.925 216.247 154.715C215.106 159.284 209.769 182.518 216.803 191.529V191.527C218.73 194.064 221.75 195.531 224.935 195.474C226.461 195.533 227.975 195.188 229.325 194.474C230.674 193.761 231.812 192.702 232.621 191.409C238.08 182.589 227.77 160.398 224.471 153.815H224.473C223.638 152.171 221.878 151.212 220.045 151.401L220.045 151.401Z" fill="white"/>
</svg>
