<svg width="450" height="397" viewBox="0 0 450 397" fill="none" xmlns="http://www.w3.org/2000/svg">
<path opacity="0.7" d="M242.671 277.42C242.671 277.42 295.714 247.795 320.199 205.474C344.684 163.153 338.757 111.097 302.664 74.2526C266.57 37.4077 203.29 46.3205 148.236 24.8806C93.182 3.44062 34.745 12.0149 13.2934 65.6106C-8.1583 119.206 31.2309 136.406 42.0966 196.29C52.9623 256.175 116.968 341.029 242.671 277.42Z" fill="#DBF2FD"/>
<path d="M106.425 155.508C107.031 154.837 110.754 155.184 107.161 153.171C96.8603 147.283 92.1211 138.191 91.4935 126.524C89.9137 97.0196 88.2042 67.5154 86.5378 38.0113C86.5378 33.985 87.8795 31.5173 92.6188 32.946C94.422 33.2361 96.2556 33.287 98.0722 33.0975H226.552C233.303 33.0975 233.498 33.0975 233.195 40.0677C232.827 47.9686 231.94 55.8263 231.529 63.7273C230.36 85.3738 229.603 107.193 227.785 128.883C226.92 139.035 222.721 147.261 213.719 152.694C212.658 153.322 211.555 153.863 211.144 155.14C208.983 155.884 206.687 156.15 204.413 155.92C177.478 155.876 150.536 155.855 123.586 155.855C117.873 155.855 112.139 155.617 106.425 155.508Z" fill="#E8F5F9"/>
<path d="M86.6675 269.477C66.5542 264.469 48.5683 253.161 35.3363 237.202C25.0824 225.643 17.6194 211.883 13.5227 196.983C13.6677 196.226 13.6459 195.447 13.4591 194.699C13.2722 193.951 12.9247 193.253 12.4407 192.654V192.654C13.5011 190.662 15.3621 190.771 17.2232 190.771C74.4117 190.771 131.607 190.771 188.81 190.771C192.857 190.771 194.285 192.004 193.463 196.204C191.379 205.418 187.608 214.166 182.34 222.006C168.468 244.172 148.624 258.481 123.911 266.165C111.705 269.802 99.1756 269.477 86.6675 269.477Z" fill="#E8F5F9"/>
<path d="M249.945 22.8154C247.131 23.0318 244.188 23.6163 241.483 22.0577L136.83 22.2309H83.8325C85.7369 23.5081 85.7152 25.4995 85.8234 27.5127C86.0398 30.9978 85.4556 34.5261 86.5376 37.9463C86.5376 33.8984 87.8793 31.4523 92.6185 32.8593C94.4208 33.1602 96.2558 33.2112 98.0719 33.0109H226.551C233.303 33.0109 233.498 33.0109 233.195 40.0027C232.827 47.882 231.94 55.7613 231.529 63.6623C230.36 85.3088 229.603 107.128 227.785 128.797C226.919 138.97 222.721 147.196 213.719 152.608C212.658 153.235 211.555 153.755 211.143 155.032H213.134C216.229 155.032 219.345 154.361 222.353 155.682C225.837 155.682 229.343 155.682 232.827 155.682C241.05 155.682 245.811 162.327 243.647 170.423C242.724 173.612 241.346 176.652 239.557 179.449L265.136 179.991C280.285 176.83 286.301 169.384 287.339 153.777C290.044 112.389 292.944 71.0221 295.801 29.634C295.974 27.2096 296.45 24.8069 296.775 22.4041C281.172 22.1443 265.569 21.4949 249.945 22.8154ZM282.773 50.025C281.713 50.025 280.609 50.2198 279.592 50.1982C277.428 50.1982 276.476 50.8043 276.173 53.2503C275.048 62.9263 270.698 66.5196 261.025 66.2382C258.294 66.3429 255.559 66.1615 252.866 65.6971C247.261 64.2684 243.626 57.7312 244.34 51.1506C244.489 48.1494 245.739 45.3085 247.851 43.1718C249.963 41.0351 252.789 39.7525 255.788 39.5698C260.332 39.3749 264.92 39.5698 269.486 39.5698V39.3966C273.814 39.3966 278.315 39.3966 282.73 39.3966C286.171 39.3966 288.27 40.7603 288.378 44.4402C288.486 48.1201 286.517 50.025 282.773 50.025Z" fill="#C0E4EC"/>
<path d="M265.158 180.056C280.306 176.873 286.322 169.449 287.361 153.82C290.066 112.454 292.966 71.0655 295.822 29.699C295.996 27.2746 296.472 24.8718 296.796 22.4474C302.077 22.5773 307.79 22.7721 309.261 16.2349C311.036 8.33393 310.213 3.87475 303.743 0.173202C308.071 0.173202 312.291 0.0433236 316.532 0.173202C317.657 0.149404 318.774 0.360345 319.813 0.792566C320.851 1.22479 321.788 1.8688 322.564 2.68351C323.34 3.49822 323.937 4.46575 324.318 5.52435C324.7 6.58295 324.856 7.70939 324.777 8.8318C325.254 18.8541 324.236 20.1313 314.109 22.5124C313.207 22.7254 312.41 23.2511 311.86 23.9961C311.309 24.7412 311.04 25.6573 311.101 26.5819C310.495 34.3097 309.607 42.0375 309.305 49.787C308.417 71.217 306.513 92.5821 304.782 113.969C303.656 127.758 302.899 141.59 301.882 155.4C301.254 164.059 298.895 171.895 290.802 176.744C289.141 177.826 287.279 178.562 285.327 178.908C275.113 180.359 264.985 182.199 254.576 181.636C248.278 181.268 246.547 183.043 247.283 189.363C248.798 202.157 244.21 213.175 238.627 224.149C236.073 229.171 231.68 232.505 228.629 237.137C226.291 240.716 225.38 245.041 226.075 249.259C228.456 272.096 230.577 294.977 233.476 317.77C235.381 332.707 235.857 347.794 238.519 362.644C239.3 365.509 239.118 368.551 237.999 371.302C236.116 374.982 238.194 376.086 241.159 376.389C246.157 376.838 251.128 377.561 256.047 378.554C259.039 379.192 261.91 380.303 264.552 381.844C267.538 383.619 267.647 385.87 264.747 387.84C263.253 388.9 261.582 389.685 259.813 390.156C252.131 392.111 244.298 393.414 236.398 394.053C205.668 395.741 174.939 397.754 144.166 396.715C119.561 395.871 94.8476 395.914 70.3938 392.148C66.6113 391.642 62.9094 390.653 59.3789 389.204C57.2148 388.295 54.7694 387.645 55.0508 384.701C55.3321 381.757 57.626 381.108 59.8117 380.372C67.6487 377.831 75.7803 376.311 84.0057 375.848C87.0457 375.738 90.0713 375.376 93.0514 374.766C95.9945 378.164 99.0891 381.26 104.045 381.433L105.105 381.606C118.977 381.606 132.848 381.801 146.72 381.779C158.471 381.779 170.2 381.584 181.929 381.476C190.433 382.407 198.96 381.693 207.486 381.887C220.946 382.212 224.799 371.194 223.781 362.124C220.514 333.075 217.462 304.025 214.086 274.997C212.831 264.174 212.334 253.351 209.975 242.874C210.613 241.197 211.662 239.709 213.026 238.544C219.481 231.407 224.65 223.204 228.304 214.3C232.849 203.477 233.368 192.199 233.368 180.77L236.03 180.51C245.746 180.402 255.463 181.246 265.158 180.056Z" fill="#09A8EF"/>
<ellipse cx="162.73" cy="384.597" rx="126.566" ry="12.2483" fill="#E6F7FE"/>
<path d="M181.842 381.325C170.113 381.433 158.384 381.606 146.633 381.628C132.762 381.628 118.89 381.519 105.019 381.476L103.958 381.281C99.0026 381.281 95.908 378.013 92.9649 374.614C91.9394 371.423 91.6509 368.041 92.121 364.722C94.8477 343.075 97.5239 321.371 100.15 299.609L100.453 298.722C103.331 298.722 106.252 298.722 109.109 299.046C123.665 300.575 138.374 299.705 152.649 296.47C162.853 294.39 172.73 290.946 182.015 286.232C185.889 284.24 187.382 284.998 187.577 288.743C188.248 301.189 188.464 313.679 189.546 326.083C190.628 338.486 189.741 350.435 191.883 362.492C193.333 371.454 189.936 377.277 181.842 381.325Z" fill="#C0E4EC"/>
<path d="M181.842 381.325C189.936 377.277 193.333 371.454 191.775 362.492C189.611 350.435 190.52 338.205 189.438 326.083C188.356 313.961 188.14 301.189 187.469 288.743C187.274 284.998 185.781 284.24 181.907 286.232C172.661 290.92 162.828 294.349 152.671 296.427C138.396 299.662 123.687 300.532 109.13 299.003C106.274 298.678 103.352 298.765 100.474 298.678C101.232 291.6 101.967 284.521 102.768 277.465C102.981 276.748 103.049 275.995 102.967 275.252C102.886 274.508 102.656 273.789 102.292 273.135C121.617 275.942 141.317 274.658 160.115 269.369C174.373 265.456 187.815 259.019 199.804 250.363C203.201 247.874 205.409 243.869 209.888 242.765C212.312 253.264 212.745 264.087 214 274.91C217.376 303.938 220.492 332.988 223.695 362.038C224.712 371.107 220.86 382.125 207.4 381.801C198.873 381.541 190.347 382.255 181.842 381.325Z" fill="#96D2DF"/>
<path d="M236.117 180.445L233.455 180.705C226.963 180.705 220.644 180.532 214.238 180.488C145.746 180.12 77.2756 181.246 8.78356 179.882C1.75041 177.891 -0.521838 173.388 0.603466 164.037C1.23104 158.669 4.93156 155.378 11.0558 155.378C42.8673 155.378 74.7004 155.378 106.512 155.508C112.225 155.508 117.96 155.811 123.694 155.833C150.615 155.833 177.55 155.833 204.5 155.833C206.773 156.063 209.069 155.797 211.23 155.054H213.221C216.207 156.417 219.345 155.703 222.44 155.725C225.924 155.725 229.43 155.725 232.914 155.725C241.137 155.725 245.898 162.37 243.734 170.466C242.81 173.662 241.433 176.709 239.644 179.514C238.432 179.969 236.982 179.211 236.117 180.445Z" fill="#FCFDFE"/>
<path d="M8.69653 179.882C77.1886 181.246 145.659 180.12 214.151 180.488C220.643 180.488 226.962 180.64 233.368 180.705C233.368 192.134 232.848 203.455 228.304 214.235C224.604 223.076 219.406 231.212 212.939 238.284C211.575 239.449 210.526 240.937 209.888 242.614C205.408 243.631 203.201 247.722 199.803 250.212C187.815 258.867 174.373 265.304 160.115 269.217C141.316 274.507 121.617 275.79 102.292 272.984C96.929 272.586 91.6593 271.367 86.6671 269.369C99.1753 269.369 111.705 269.693 123.845 265.927C148.645 258.242 168.49 243.934 182.275 221.768C187.561 213.967 191.361 205.256 193.484 196.074C194.307 191.874 192.878 190.64 188.832 190.64C131.629 190.64 74.433 190.64 17.2445 190.64C15.3834 190.64 13.5224 190.64 12.462 192.524C11.5163 189.878 11.0402 187.086 11.0553 184.276C11.1249 183.395 10.9395 182.512 10.5212 181.733C10.103 180.954 9.46959 180.311 8.69653 179.882V179.882Z" fill="#C0E4EC"/>
<path d="M405.366 116.437L382.168 116.891C381.912 116.857 381.679 116.725 381.518 116.523C372.862 114.965 364.206 115.484 355.55 115.787C352.132 115.358 348.96 113.787 346.547 111.328C346.807 107.302 345.206 104.834 340.899 104.834C331.832 88.2311 331.789 71.7582 342.133 55.7398C344.09 52.4397 346.931 49.7525 350.334 47.9816C353.737 46.2106 357.568 45.4264 361.393 45.7174C363.795 45.8257 366.218 45.5443 368.642 45.436C370.479 45.9772 372.432 45.9772 374.269 45.436H374.831L402.574 45.9123C402.899 47.579 403.332 49.2242 401.492 50.3931C399.537 52.0596 397.832 53.9988 396.429 56.151C383.314 71.3036 388.14 104.206 403.289 113.146C403.89 113.468 404.398 113.94 404.762 114.517C405.126 115.094 405.334 115.755 405.366 116.437V116.437Z" fill="#FCFDFE"/>
<path d="M241.483 22.0795L136.83 22.231H83.8325C78.2709 20.7374 76.1934 16.6895 76.9076 8.83181C77.3837 3.55007 80.5864 0.173218 85.5638 0.173218C137.054 0.173218 188.536 0.209295 240.012 0.28145C240.156 0.269403 240.3 0.269403 240.445 0.28145C247.045 6.90528 247.369 14.1785 241.483 22.0795Z" fill="#FCFDFE"/>
<path d="M440.727 155.855L444.211 155.422C443.147 155.719 442.049 155.879 440.944 155.898L440.727 155.855Z" fill="#09A8EF"/>
<path d="M445.142 155.184C445.387 155.067 445.625 154.937 445.856 154.794C445.627 154.94 445.388 155.07 445.142 155.184V155.184Z" fill="#09A8EF"/>
<path d="M445.856 154.794C446.227 154.57 446.575 154.309 446.894 154.015C446.586 154.322 446.237 154.584 445.856 154.794V154.794Z" fill="#09A8EF"/>
<path d="M446.895 154.015C447.15 153.809 447.376 153.569 447.565 153.3C447.364 153.559 447.14 153.798 446.895 154.015V154.015Z" fill="#09A8EF"/>
<path d="M241.483 22.0794C247.369 14.1784 247.045 6.92688 240.531 0.43293L290.218 0.194818C292.382 0.194818 294.546 0.0649395 296.558 0L303.829 0.173172C310.321 3.87472 311.122 8.3339 309.348 16.2349C307.876 22.7288 302.163 22.5773 296.883 22.4474C281.27 21.7691 265.632 21.8919 250.031 22.8154C247.131 23.0535 244.188 23.6163 241.483 22.0794Z" fill="#E8F5F9"/>
<path d="M381.519 116.415H355.701C355.723 116.177 355.723 115.938 355.701 115.701C364.271 115.376 372.927 114.856 381.519 116.415Z" fill="#FCFDFE"/>
<path d="M340.965 104.704C345.293 104.704 346.872 107.215 346.613 111.198C344.25 109.503 342.316 107.279 340.965 104.704Z" fill="#E8F5F9"/>
<path d="M12.4407 192.654C12.9247 193.253 13.2722 193.951 13.4591 194.699C13.646 195.447 13.6677 196.226 13.5227 196.983C12.6497 195.719 12.2652 194.18 12.4407 192.654Z" fill="#C0E4EC"/>
<path d="M100.452 298.721L100.149 299.609C100.258 299.306 100.344 299.003 100.452 298.721Z" fill="#96D2DF"/>
<path d="M269.486 39.4182C273.814 39.4182 278.316 39.4182 282.73 39.4182C286.171 39.4182 288.27 40.8036 288.378 44.4618C288.487 48.1201 286.517 50.0466 282.773 50.0683C281.713 50.0683 280.609 50.2415 279.592 50.2198C277.428 50.2198 276.476 50.8259 276.173 53.2936C275.048 62.9479 270.676 66.5413 261.025 66.2815C258.293 66.3897 255.557 66.201 252.866 65.7187C247.261 64.29 243.626 57.7744 244.34 51.1939C244.484 48.1911 245.733 45.3476 247.846 43.2098C249.959 41.0721 252.788 39.7911 255.788 39.613C260.332 39.3966 264.92 39.613 269.486 39.613V39.4182Z" fill="#09A8EF"/>
<path d="M236.116 180.445C237.069 179.211 238.519 179.969 239.665 179.514L265.245 180.056C255.463 181.246 245.746 180.402 236.116 180.445Z" fill="#09A8EF"/>
<path d="M222.353 155.855C219.258 155.855 216.12 156.547 213.134 155.184C216.229 155.054 219.345 154.404 222.353 155.855Z" fill="#E8F5F9"/>
<path d="M103.958 381.281L105.019 381.476L103.958 381.281Z" fill="#96D2DF"/>
<path d="M439.212 82.5814C438.311 84.1849 437.997 86.0529 438.325 87.8631C438.583 92.7109 437.433 97.5299 435.014 101.739C428.241 113.796 417.962 118.839 405.367 116.35C405.356 115.66 405.165 114.985 404.812 114.392C404.458 113.8 403.956 113.31 403.354 112.973C388.206 104.033 383.38 71.0871 396.494 55.9778C397.897 53.8256 399.603 51.8864 401.558 50.2199C403.397 49.051 402.965 47.4058 402.64 45.7391L413.027 45.5226C416.13 45.3621 419.226 45.9463 422.057 47.2267C424.888 48.507 427.372 50.4462 429.301 52.8824L418.005 67.1041C412.4 64.052 409.024 66.3032 408.007 73.8145C407.407 74.6815 407.039 75.6874 406.936 76.7367C406.834 77.786 407.002 78.8441 407.423 79.8106C406.652 82.2542 406.496 84.8501 406.968 87.3685C407.44 89.8869 408.525 92.2501 410.128 94.2488C410.599 95.0106 411.27 95.6285 412.068 96.035C412.866 96.4414 413.76 96.621 414.653 96.554C415.546 96.487 416.403 96.176 417.132 95.655C417.86 95.1341 418.432 94.423 418.784 93.5994C420.522 90.7648 421.604 87.5763 421.948 84.2686C422.293 80.9608 421.892 77.6179 420.775 74.4856C424.281 69.8749 427.873 65.3508 431.27 60.6751C433.261 57.9477 434.257 59.0949 435.231 61.3462C438.294 67.9859 439.663 75.2824 439.212 82.5814V82.5814Z" fill="#E8F5F9"/>
<path d="M439.537 98.2967C439.537 99.2275 439.537 100.137 439.537 101.046C439.537 105.375 439.385 109.488 439.299 113.709C438.31 115.063 437.399 116.472 436.572 117.93C431.746 127.952 423.285 131.308 412.767 131.156C404.869 131.156 396.948 131.351 388.963 131.156C384.483 131.005 383.033 132.715 383.315 137.001C383.596 141.287 383.315 145.811 383.423 150.227C383.016 149.989 382.674 149.654 382.428 149.253L382.254 148.906C382.187 148.751 382.13 148.592 382.081 148.43C382.069 148.329 382.069 148.228 382.081 148.127C382.016 147.168 382.016 146.207 382.081 145.248C382.081 135.788 382.081 126.329 382.081 116.869L405.28 116.523C417.875 119.012 428.154 113.969 434.927 101.912C437.363 97.678 438.513 92.8266 438.238 87.9497C437.91 86.1395 438.224 84.2715 439.126 82.668C439.537 87.8198 439.537 93.0799 439.537 98.2967Z" fill="#C0E4EC"/>
<path d="M440.121 39.4615L429.301 52.9689C427.372 50.5327 424.888 48.5935 422.057 47.3132C419.226 46.0329 416.13 45.4486 413.027 45.6091L402.64 45.8256L374.897 45.4576C376.11 45.4971 377.316 45.2602 378.424 44.7649L379.03 44.4186C379.808 43.9105 380.466 43.2381 380.956 42.4487C381.469 41.635 381.883 40.763 382.19 39.8511C384.354 33.8118 393.508 32.0151 398.55 36.1063C399.93 37.3025 401.701 37.9496 403.527 37.9246C410.214 37.9246 416.922 37.9246 423.609 37.9246C424.626 37.9246 426.141 37.9246 426.596 37.2103C429.474 33.184 433.607 34.3746 437.416 34.288C438.909 34.288 440.576 34.288 441.355 35.9331C442.134 37.5783 440.965 38.4008 440.121 39.4615Z" fill="#09A8EF"/>
<path d="M439.385 146.59C439.513 147.652 439.243 148.724 438.628 149.599C438.498 149.88 438.368 150.075 438.195 150.14C433.828 150.412 429.448 150.412 425.081 150.14H383.444C383.444 145.811 383.618 141.308 383.336 136.914C383.055 132.52 384.505 130.918 388.984 131.069C396.883 131.351 404.804 131.069 412.789 131.069C423.306 131.221 431.768 127.866 436.593 117.843C437.421 116.385 438.331 114.976 439.32 113.622C439.32 122.469 439.32 131.315 439.32 140.161C439.32 140.161 439.32 140.919 439.32 142.001C439.363 143.581 439.363 145.031 439.385 146.59Z" fill="#E8F5F9"/>
<path d="M418.762 93.4913C418.41 94.3148 417.839 95.0259 417.11 95.5469C416.382 96.0679 415.524 96.3788 414.631 96.4458C413.738 96.5128 412.844 96.3333 412.046 95.9268C411.248 95.5203 410.577 94.9025 410.106 94.1407C408.503 92.1419 407.418 89.7787 406.946 87.2603C406.474 84.742 406.631 82.1461 407.401 79.7025C409.901 80.2975 412.523 80.1052 414.909 79.152C417.296 78.1988 419.329 76.5312 420.731 74.3774C421.852 77.5082 422.256 80.8502 421.916 84.1579C421.575 87.4657 420.497 90.6549 418.762 93.4913Z" fill="#96D2DF"/>
<path d="M418.004 67.1043C415.602 70.7409 413.395 74.6373 408.006 73.8147C409.023 66.1952 412.399 63.9439 418.004 67.1043Z" fill="#96D2DF"/>
</svg>
