<svg width="527" height="546" viewBox="0 0 527 546" fill="none" xmlns="http://www.w3.org/2000/svg">
<path d="M263.456 546C408.958 546 526.912 478.125 526.912 394.396C526.912 310.668 408.958 242.793 263.456 242.793C117.953 242.793 0 310.668 0 394.396C0 478.125 117.953 546 263.456 546Z" fill="#E6F7FE"/>
<path d="M181.157 470.748C222.583 470.748 256.165 451.36 256.165 427.443C256.165 403.526 222.583 384.138 181.157 384.138C139.731 384.138 106.149 403.526 106.149 427.443C106.149 451.36 139.731 470.748 181.157 470.748Z" fill="#E0E0E0"/>
<path d="M283.496 523.236L443.172 431.07C443.468 430.966 443.725 430.773 443.906 430.517C444.087 430.261 444.185 429.955 444.185 429.641C444.185 429.327 444.087 429.021 443.906 428.765C443.725 428.51 443.468 428.316 443.172 428.212L358.907 379.595C358.142 379.204 357.294 379 356.434 379C355.574 379 354.727 379.204 353.961 379.595L194.322 471.786C194.02 471.884 193.757 472.075 193.571 472.331C193.384 472.588 193.284 472.897 193.284 473.215C193.284 473.532 193.384 473.841 193.571 474.098C193.757 474.355 194.02 474.546 194.322 474.643L278.587 523.273C279.353 523.645 280.194 523.835 281.046 523.829C281.898 523.823 282.736 523.62 283.496 523.236Z" fill="#E0E0E0"/>
<path d="M389.401 401.748C387.947 391.783 392.124 370.094 400.575 355.647C409.026 341.2 420.212 329.586 432.327 331.845C443.611 333.946 443.745 348.784 432.07 360.043C420.395 371.303 399.757 391.795 396.386 408.746L394.432 423.718L389.401 401.748Z" fill="#09A8EF"/>
<path opacity="0.15" d="M389.401 401.748C387.947 391.783 392.124 370.094 400.575 355.647C409.026 341.2 420.212 329.586 432.327 331.845C443.611 333.946 443.745 348.784 432.07 360.043C420.395 371.303 399.757 391.795 396.386 408.746L394.432 423.718L389.401 401.748Z" fill="black"/>
<path d="M390.658 415.487C390.815 415.45 390.956 415.364 391.059 415.241C391.163 415.117 391.223 414.964 391.232 414.803C392.93 379.827 416.39 348.161 431.948 339.649C432.034 339.603 432.109 339.54 432.17 339.465C432.231 339.389 432.277 339.302 432.304 339.209C432.331 339.116 432.34 339.018 432.329 338.922C432.318 338.825 432.288 338.732 432.241 338.647C432.198 338.561 432.137 338.485 432.063 338.423C431.989 338.361 431.903 338.314 431.81 338.287C431.717 338.26 431.62 338.251 431.524 338.263C431.428 338.274 431.335 338.305 431.252 338.354C415.376 347.025 391.477 379.217 389.73 414.73C389.725 414.826 389.739 414.922 389.772 415.013C389.804 415.104 389.854 415.187 389.919 415.259C389.983 415.33 390.061 415.388 390.149 415.43C390.236 415.471 390.33 415.495 390.426 415.499L390.658 415.487Z" fill="white"/>
<path d="M390.427 444.894C391.209 439.057 396.692 428.811 406.645 419.566C417.636 409.332 432.56 403.177 435.161 396.082C438.299 387.533 430.557 381.085 418.21 384.48C405.864 387.875 386.287 408.257 386.531 434.551L390.427 444.894Z" fill="#09A8EF"/>
<path opacity="0.3" d="M390.427 444.894C391.209 439.057 396.692 428.811 406.645 419.566C417.636 409.332 432.56 403.177 435.161 396.082C438.299 387.533 430.557 381.085 418.21 384.48C405.864 387.875 386.287 408.257 386.531 434.551L390.427 444.894Z" fill="black"/>
<path d="M387.142 439.374C387.278 439.339 387.401 439.266 387.498 439.165C387.595 439.064 387.662 438.937 387.691 438.8C393.859 408.135 414.558 394.665 424.682 391.82C424.775 391.793 424.862 391.749 424.938 391.688C425.014 391.628 425.077 391.554 425.124 391.47C425.171 391.385 425.201 391.292 425.212 391.196C425.224 391.1 425.216 391.003 425.189 390.91C425.163 390.817 425.118 390.73 425.058 390.654C424.998 390.578 424.924 390.515 424.839 390.468C424.755 390.421 424.662 390.391 424.566 390.38C424.47 390.369 424.372 390.376 424.279 390.403C413.117 393.554 392.527 407.219 386.25 438.507C386.214 438.698 386.254 438.895 386.361 439.057C386.468 439.219 386.634 439.333 386.824 439.374C386.929 439.392 387.037 439.392 387.142 439.374Z" fill="white"/>
<path d="M143.714 388.4C143.714 388.4 145.668 363.389 137.169 341.993C128.669 320.598 114.246 305.552 98.883 301.29C83.5199 297.028 68.1325 308.959 82.9215 322.051C97.7106 335.142 125.42 350.957 131.929 390.44L143.714 388.4Z" fill="#09A8EF"/>
<path opacity="0.15" d="M143.714 388.4C143.714 388.4 145.668 363.389 137.169 341.993C128.669 320.598 114.246 305.552 98.883 301.29C83.5199 297.028 68.1325 308.959 82.9215 322.051C97.7106 335.142 125.42 350.957 131.929 390.44L143.714 388.4Z" fill="black"/>
<path d="M140.368 381.158H140.539C140.76 381.114 140.955 380.984 141.081 380.796C141.207 380.609 141.254 380.379 141.21 380.157C132.589 336.412 104.574 313.404 90.8836 307.347C90.6759 307.26 90.4425 307.257 90.2328 307.34C90.0231 307.422 89.8536 307.582 89.7601 307.787C89.7136 307.888 89.6878 307.997 89.6842 308.108C89.6805 308.219 89.6992 308.329 89.7391 308.433C89.7789 308.536 89.8391 308.631 89.9162 308.711C89.9932 308.791 90.0854 308.854 90.1875 308.898C103.548 314.821 131.013 337.414 139.562 380.474C139.6 380.662 139.7 380.832 139.846 380.956C139.993 381.08 140.176 381.151 140.368 381.158Z" fill="white"/>
<path d="M77.7675 358.92C78.2804 361.839 80.8084 363.927 83.2142 365.661C85.62 367.395 88.2212 369.325 89.0517 372.121C90.7003 377.873 84.1667 383.748 86.0719 389.414C86.5593 390.573 87.2772 391.621 88.182 392.495C89.0868 393.368 90.1596 394.048 91.3354 394.494C93.2653 395.278 95.2341 395.963 97.2339 396.546C98.1961 396.767 99.1708 396.93 100.153 397.035C103.023 397.315 106.063 397.938 108.249 399.99C111.681 403.226 111.644 408.538 113.134 413.057C114.061 415.725 115.556 418.159 117.514 420.194C119.473 422.228 121.849 423.814 124.48 424.842C128.852 426.564 135.886 427.284 137.559 425.526C138.78 424.231 137.315 418.98 137.705 417.197C138.683 412.638 139.231 407.997 139.342 403.336C139.3 401.213 139.517 399.093 139.989 397.022C140.588 394.714 141.21 392.394 141.723 390.086C142.334 387.57 143.409 385.763 143.128 383.015C142.727 380.396 141.937 377.852 140.783 375.468C139.773 373.09 138.743 370.713 137.693 368.336C136.554 365.498 135.069 362.811 133.272 360.337C131.618 358.25 129.554 356.524 127.209 355.264C124.863 354.004 122.284 353.237 119.631 353.009C115.247 352.667 110.545 354.011 106.198 352.728C101.85 351.446 98.1742 349.333 93.79 348.552C89.2104 347.746 84.1423 348.552 80.6008 351.739C79.5766 352.613 78.7826 353.724 78.2886 354.976C77.7946 356.228 77.6156 357.583 77.7675 358.92Z" fill="#09A8EF"/>
<path opacity="0.3" d="M77.7675 358.92C78.2804 361.839 80.8084 363.927 83.2142 365.661C85.62 367.395 88.2212 369.325 89.0517 372.121C90.7003 377.873 84.1667 383.748 86.0719 389.414C86.5593 390.573 87.2772 391.621 88.182 392.495C89.0868 393.368 90.1596 394.048 91.3354 394.494C93.2653 395.278 95.2341 395.963 97.2339 396.546C98.1961 396.767 99.1708 396.93 100.153 397.035C103.023 397.315 106.063 397.938 108.249 399.99C111.681 403.226 111.644 408.538 113.134 413.057C114.061 415.725 115.556 418.159 117.514 420.194C119.473 422.228 121.849 423.814 124.48 424.842C128.852 426.564 135.886 427.284 137.559 425.526C138.78 424.231 137.315 418.98 137.705 417.197C138.683 412.638 139.231 407.997 139.342 403.336C139.3 401.213 139.517 399.093 139.989 397.022C140.588 394.714 141.21 392.394 141.723 390.086C142.334 387.57 143.409 385.763 143.128 383.015C142.727 380.396 141.937 377.852 140.783 375.468C139.773 373.09 138.743 370.713 137.693 368.336C136.554 365.498 135.069 362.811 133.272 360.337C131.618 358.25 129.554 356.524 127.209 355.264C124.863 354.004 122.284 353.237 119.631 353.009C115.247 352.667 110.545 354.011 106.198 352.728C101.85 351.446 98.1742 349.333 93.79 348.552C89.2104 347.746 84.1423 348.552 80.6008 351.739C79.5766 352.613 78.7826 353.724 78.2886 354.976C77.7946 356.228 77.6156 357.583 77.7675 358.92Z" fill="black"/>
<path d="M126.922 378.569C126.874 378.466 126.798 378.377 126.702 378.313C113.525 362.168 94.1689 355.427 87.7208 354.462C87.6291 354.437 87.5331 354.431 87.4391 354.446C87.3451 354.461 87.2553 354.495 87.1756 354.547C87.0959 354.599 87.0281 354.667 86.9767 354.747C86.9254 354.827 86.8916 354.917 86.8777 355.011C86.8637 355.105 86.8699 355.201 86.8959 355.293C86.9218 355.384 86.9669 355.469 87.0281 355.542C87.0894 355.615 87.1654 355.674 87.2511 355.715C87.3368 355.756 87.4303 355.779 87.5254 355.781C93.6316 356.697 111.571 362.913 124.419 377.641C119.522 376.368 114.415 376.124 109.419 376.922C104.423 377.721 99.6461 379.546 95.3902 382.282C95.3186 382.333 95.2581 382.397 95.2124 382.472C95.1666 382.547 95.1365 382.63 95.124 382.717C95.1114 382.804 95.1166 382.892 95.1393 382.977C95.162 383.062 95.2016 383.141 95.2558 383.21C95.3174 383.297 95.4 383.368 95.4961 383.415C95.5922 383.462 95.6986 383.484 95.8054 383.479C95.9429 383.477 96.0761 383.43 96.184 383.344C100.558 380.565 105.487 378.774 110.626 378.099C115.765 377.424 120.989 377.881 125.933 379.436C133.635 388.965 137.994 400.76 138.341 413.008C138.347 413.175 138.416 413.333 138.534 413.45C138.651 413.568 138.809 413.637 138.976 413.643C139.152 413.637 139.318 413.561 139.439 413.434C139.56 413.306 139.626 413.135 139.623 412.959C139.288 400.411 134.824 388.323 126.922 378.569Z" fill="white"/>
<path d="M141.333 416.574C146.413 419.016 151.921 418.662 157.77 415.988L159.639 383.54L139.024 381.281L141.333 416.574Z" fill="#FFA8A7"/>
<path d="M181.144 396.729C183.758 401.529 195.506 402.615 198.852 396.326L200.281 364.574L178.678 365.038L181.144 396.729Z" fill="#FFA8A7"/>
<path d="M178.836 445.871C179.398 446.372 179.362 449.901 178.836 450.878C178.311 451.855 174.611 455.238 167.845 455.959C161.422 456.642 155.633 455.959 151.762 453.712C147.89 451.464 145.973 448.827 145.485 445.163C144.996 441.499 145.289 437.945 143.433 435.185C141.723 432.633 139.049 429.788 138.438 428.395C137.107 425.367 138.121 420.922 138.121 420.922L178.836 445.871Z" fill="#263238"/>
<path d="M160.017 414.474C160.166 415.858 160.482 417.219 160.957 418.528C162.038 421.336 163.457 424.002 165.183 426.466C166.04 427.749 166.982 428.973 168.004 430.13C170.043 432.377 172.523 434.196 174.672 436.346C176.94 438.368 178.441 441.112 178.922 444.113C179.386 449.156 173.964 451.062 169.763 451.965C165.226 452.927 160.531 452.86 156.024 451.77C153.653 451.239 151.486 450.034 149.783 448.301C148.08 446.568 146.914 444.38 146.425 442C146.144 440.608 146.168 439.167 145.961 437.762C145.278 434.56 143.818 431.574 141.711 429.067C140.489 427.614 139.421 426.039 138.523 424.366C137.095 421.288 138.035 417.734 138.756 414.596C139.391 411.885 139.879 408.673 140.832 408.893L140.966 410.981C141.296 411.555 141.931 411.53 142.187 412.202C142.405 412.909 142.682 413.595 143.018 414.254C143.528 415.287 144.342 416.139 145.35 416.696C145.35 414.791 145.35 412.874 145.35 410.969C145.286 410.377 145.419 409.78 145.729 409.271C146.16 408.851 146.718 408.585 147.316 408.514C150.825 407.543 154.461 407.111 158.1 407.232C158.371 407.223 158.642 407.27 158.894 407.371C159.146 407.472 159.375 407.624 159.565 407.818C159.786 408.185 159.888 408.612 159.858 409.039C159.816 410.852 159.869 412.666 160.017 414.474Z" fill="#455A64"/>
<path d="M165.903 427.492C163.974 426.149 159.797 426.271 157.465 426.613C155.129 426.898 152.903 427.768 150.992 429.141C150.715 429.362 150.368 429.476 150.014 429.463C149.66 429.449 149.322 429.309 149.063 429.067C148.909 428.93 148.788 428.761 148.707 428.572C148.625 428.383 148.586 428.178 148.592 427.972C148.598 427.767 148.648 427.565 148.74 427.38C148.832 427.196 148.963 427.034 149.124 426.906C151.237 425.24 153.776 424.203 156.451 423.914C162.105 423.315 163.778 424.231 163.778 424.231C163.778 424.231 166.428 425.807 165.903 427.492Z" fill="#F5F5F5"/>
<path d="M170.41 432.511C167.967 431.204 163.375 431.571 161.079 431.9C158.786 432.215 156.617 433.129 154.79 434.55C154.51 434.765 154.163 434.874 153.81 434.859C153.457 434.843 153.121 434.704 152.861 434.465C152.707 434.329 152.586 434.161 152.505 433.972C152.424 433.784 152.385 433.581 152.39 433.376C152.396 433.171 152.447 432.97 152.539 432.787C152.63 432.604 152.761 432.443 152.922 432.316C155.049 430.572 157.62 429.455 160.347 429.091C166.001 428.493 167.527 429.604 167.527 429.604C168.196 429.839 168.803 430.223 169.302 430.727C169.802 431.23 170.18 431.84 170.41 432.511Z" fill="#F5F5F5"/>
<path d="M153.948 418.565C156.32 418.068 158.779 418.186 161.092 418.907C162.118 419.432 162.827 420.995 162.204 421.41C160.17 420.684 157.99 420.466 155.853 420.775C153.723 421.051 151.656 421.695 149.747 422.68C149.259 422.912 148.697 423.23 148.208 423.523C148.052 423.619 147.877 423.683 147.696 423.709C147.514 423.736 147.328 423.725 147.151 423.677C146.973 423.629 146.808 423.545 146.664 423.43C146.52 423.315 146.402 423.172 146.316 423.01C146.163 422.733 146.123 422.408 146.205 422.103C146.287 421.798 146.484 421.536 146.755 421.373C148.925 419.934 151.377 418.976 153.948 418.565Z" fill="#F5F5F5"/>
<path d="M234.952 416.378C235.476 417.846 235.42 419.458 234.794 420.885C234.195 422.216 227.466 426.234 218.124 425.77C211.234 425.438 204.558 423.266 198.792 419.48C195.214 417.221 191.526 416.855 186.922 416.696C182.317 416.537 177.152 414.351 176.089 412.226C175.027 410.101 176.089 406.377 176.089 406.377L234.952 416.378Z" fill="#263238"/>
<path d="M197.069 388.657L199.512 387.729C199.931 387.506 200.416 387.441 200.879 387.545C201.478 387.753 201.722 388.449 201.893 389.06C202.131 390.427 202.499 391.768 202.992 393.065C203.703 394.117 204.606 395.024 205.654 395.74C207.995 397.538 210.516 399.089 213.177 400.368C216.242 401.931 219.283 403.128 222.397 404.472C225.512 405.815 229.871 406.621 232.399 408.245C236.063 410.688 236.698 416.794 232.595 419.297C229.065 421.471 219.711 423.95 209.782 421.361C204.372 419.957 198.278 414.339 191.207 413.936C186.713 413.692 179.093 412.593 176.137 409.247C175.038 407.757 176.357 402.933 177.444 398.768C178.665 394.238 178.958 387.155 180.46 387.521C180.595 389.023 181.914 389.866 182.732 391.111C183.382 392.252 183.945 393.44 184.417 394.665C184.967 395.886 184.796 397.047 185.931 397.718C186.487 398.086 187.15 398.257 187.814 398.204C188.478 398.151 189.105 397.877 189.595 397.425C190.89 396.033 190.047 393.652 190.975 392.003C191.746 390.956 192.848 390.198 194.101 389.854L197.069 388.657Z" fill="#455A64"/>
<path d="M208.878 398.011C208.542 397.399 208.057 396.881 207.468 396.506C206.879 396.13 206.205 395.909 205.508 395.862C203.456 395.532 199.878 397.083 197.679 399.013C197.47 399.19 197.307 399.416 197.206 399.671C197.104 399.925 197.067 400.201 197.097 400.474C197.127 400.747 197.224 401.008 197.379 401.234C197.534 401.461 197.742 401.646 197.985 401.773C198.29 401.931 198.637 401.991 198.978 401.945C199.319 401.899 199.637 401.75 199.89 401.516C202.314 399.22 205.54 397.962 208.878 398.011Z" fill="#F5F5F5"/>
<path d="M215.278 401.418C215.278 400.869 213.947 399.342 211.309 399.477C211.309 399.477 205.972 399.745 202.761 402.896C202.563 403.071 202.411 403.29 202.316 403.536C202.221 403.782 202.187 404.047 202.216 404.309C202.244 404.571 202.335 404.822 202.481 405.042C202.627 405.261 202.823 405.443 203.054 405.571C203.348 405.723 203.682 405.78 204.01 405.734C204.339 405.688 204.644 405.541 204.886 405.314C206.217 403.93 207.842 402.861 209.64 402.187C211.438 401.513 213.365 401.25 215.278 401.418Z" fill="#F5F5F5"/>
<path d="M222.349 404.472C221.827 403.901 221.189 403.449 220.476 403.148C219.764 402.846 218.995 402.702 218.221 402.725C215.194 402.976 212.325 404.182 210.027 406.169C209.829 406.342 209.676 406.56 209.58 406.804C209.484 407.048 209.449 407.312 209.476 407.573C209.504 407.834 209.594 408.085 209.739 408.304C209.883 408.523 210.079 408.704 210.308 408.831C210.603 408.986 210.939 409.046 211.269 409.002C211.599 408.958 211.908 408.813 212.152 408.587C213.412 407.152 214.99 406.031 216.761 405.317C218.532 404.602 220.446 404.313 222.349 404.472Z" fill="#F5F5F5"/>
<path d="M131.013 176.175C127.35 211.407 136.313 298.75 136.313 298.75C135.63 303.122 133.639 309.313 133.7 324.396C133.786 347.416 139.073 396.705 139.073 396.705C139.073 396.705 149.344 400.002 159.688 396.534C159.688 396.534 166.234 333.335 169.091 312.269C171.082 297.614 171.912 281.958 171.912 281.958L173.28 296.21C172.042 305.671 171.8 315.237 172.56 324.75C173.439 335.277 179.276 378.398 179.276 378.398C186.31 380.462 193.761 380.655 200.892 378.96C200.892 378.96 205.985 304.831 206.864 295.208C207.853 284.217 208.232 177.97 208.232 177.97L131.013 176.175Z" fill="#455A64"/>
<path d="M171.863 282.031L176.467 219.59C180.835 218.82 185.001 217.169 188.711 214.738C192.421 212.306 195.597 209.146 198.046 205.448C198.046 205.448 195.922 216.683 180.803 223.461L174.074 281.433L173.231 296.259L171.863 282.031Z" fill="#37474F"/>
<path d="M239.373 202.053V201.87C239.545 199.047 239.372 196.213 238.86 193.431C238.396 191.392 235.905 189.56 234.5 188.07C227.637 180.804 217.33 172.194 209.599 164.354C202.138 156.843 203.102 146.353 202.37 133.237C201.051 109.887 200.098 99.2378 200.098 99.2378L196.96 76.2665C209.343 77.4877 215.119 84.0335 216.267 88.1368C220.444 103.06 226.55 146.206 226.55 146.206C229.432 150.517 229.994 150.798 236.515 160.8C239.984 166.125 243.72 171.254 247.506 176.371C248.349 177.519 249.24 178.63 250.034 179.815C250.828 180.999 251.255 182.355 252.086 183.576C253.73 186.217 255.905 188.487 258.473 190.244C260.561 191.673 262.918 192.76 264.689 194.567C265.993 196.017 267.216 197.538 268.353 199.122C269.598 200.456 271.06 201.571 272.676 202.419C272.089 203.231 271.28 203.855 270.345 204.215C269.411 204.575 268.392 204.655 267.412 204.447C265.434 204.141 263.846 202.114 262.149 201.064C263.101 204.117 263.565 212.055 262.698 213.533C261.392 215.755 257.166 218.332 253.527 219.798C251.111 220.708 248.432 220.624 246.077 219.566C243 218.234 241.889 214.827 241.009 211.579C240.008 208.499 239.457 205.291 239.373 202.053Z" fill="#F28F8F"/>
<path d="M196.96 75.4115C204.788 77.1212 209.489 77.854 214.741 83.5815C219.992 89.3091 221.848 109.288 223.045 117.593C224.242 125.897 225.488 134.116 225.488 134.116C225.488 134.116 217.061 142.665 197.692 138.378L196.96 75.4115Z" fill="#455A64"/>
<path d="M233.157 186.006C233.496 185.358 234 184.811 234.617 184.419C235.234 184.026 235.943 183.803 236.674 183.771C238.142 183.727 239.593 184.095 240.863 184.834C241.124 184.513 241.461 184.265 241.844 184.11C242.227 183.956 242.643 183.901 243.053 183.951C243.463 184.001 243.853 184.154 244.188 184.396C244.522 184.638 244.79 184.961 244.966 185.334C245.294 184.617 245.876 184.046 246.599 183.733C247.323 183.419 248.138 183.385 248.885 183.637C249.632 183.89 250.26 184.41 250.646 185.098C251.032 185.786 251.149 186.592 250.975 187.362C251.299 187.33 251.626 187.385 251.923 187.522C252.219 187.658 252.474 187.87 252.662 188.137C252.849 188.404 252.962 188.716 252.99 189.041C253.018 189.366 252.958 189.693 252.819 189.987C253.614 189.965 254.396 190.203 255.044 190.664C255.693 191.125 256.174 191.786 256.414 192.544C256.654 193.303 256.64 194.12 256.375 194.87C256.11 195.621 255.607 196.264 254.944 196.704C254.103 197.109 253.167 197.278 252.238 197.192C251.309 197.106 250.42 196.768 249.668 196.216C248.176 195.099 246.82 193.812 245.626 192.381C244.42 190.945 242.784 189.934 240.961 189.499C238.884 189.169 236.821 190.122 234.757 189.78C233.108 189.511 232.51 187.398 233.157 186.006Z" fill="#FAFAFA"/>
<path d="M257.338 196.789C253.112 189.535 245.126 183.282 237.652 187.3C237.285 187.496 234.757 188.778 233.878 189.254C229.799 191.44 227.467 198.853 232.144 206.877C236.211 213.838 244.002 218.808 250.633 215.425C251.138 215.163 251.624 214.865 252.087 214.534C252.866 214.348 253.621 214.069 254.334 213.703C260.965 210.272 261.002 203.066 257.338 196.789Z" fill="#09A8EF"/>
<path d="M237.651 187.301C233.572 189.487 231.167 197.131 235.856 205.167C239.911 212.116 247.702 217.099 254.333 213.716C260.965 210.333 261.001 203.103 257.337 196.826C253.136 189.535 245.137 183.283 237.651 187.301Z" fill="#09A8EF"/>
<path opacity="0.5" d="M237.651 187.301C233.572 189.487 231.167 197.131 235.856 205.167C239.911 212.116 247.702 217.099 254.333 213.716C260.965 210.333 261.001 203.103 257.337 196.826C253.136 189.535 245.137 183.283 237.651 187.301Z" fill="white"/>
<path d="M224.45 204.324C223.288 201.019 223.388 197.4 224.731 194.164C225.233 193.03 226.015 192.043 227.002 191.294C227.496 190.92 228.059 190.651 228.66 190.502C229.26 190.353 229.885 190.327 230.495 190.427C231.106 190.535 231.675 190.811 232.137 191.226C232.599 191.64 232.935 192.176 233.109 192.772C233.534 192.383 234.049 192.108 234.608 191.972C235.168 191.835 235.752 191.841 236.308 191.99C237.212 192.222 238.873 193.211 237.945 194.432C238.523 193.71 239.342 193.22 240.252 193.051C241.161 192.882 242.102 193.045 242.901 193.512C243.7 193.978 244.306 194.716 244.606 195.591C244.907 196.466 244.883 197.42 244.539 198.279C244.886 198.103 245.265 197.999 245.653 197.975C246.041 197.951 246.429 198.007 246.795 198.14C247.16 198.273 247.495 198.479 247.777 198.747C248.059 199.014 248.283 199.337 248.435 199.695C248.587 200.053 248.664 200.438 248.66 200.827C248.657 201.216 248.574 201.6 248.416 201.955C248.258 202.31 248.028 202.629 247.742 202.892C247.455 203.154 247.117 203.355 246.75 203.482C247.498 203.319 248.28 203.436 248.948 203.812C249.283 203.942 249.584 204.147 249.827 204.412C250.07 204.677 250.25 204.993 250.352 205.338C250.449 205.853 250.39 206.384 250.181 206.865C249.975 207.344 249.708 207.795 249.388 208.208C249.598 207.893 249.887 207.638 250.225 207.467C250.563 207.296 250.939 207.215 251.317 207.231C251.701 207.256 252.071 207.383 252.391 207.597C252.71 207.812 252.968 208.106 253.137 208.452C253.109 208.027 253.219 207.604 253.45 207.245C253.681 206.887 254.02 206.612 254.419 206.462C254.845 206.317 255.301 206.284 255.743 206.365C256.186 206.446 256.6 206.639 256.947 206.926C257.274 207.226 257.533 207.593 257.708 208.001C257.883 208.41 257.969 208.851 257.961 209.295C257.916 210.369 257.589 211.412 257.012 212.319C256.435 213.226 255.629 213.965 254.675 214.461C252.757 215.433 250.646 215.967 248.496 216.024C243.693 216.55 238.834 215.948 234.305 214.265C232.05 213.404 230.005 212.072 228.305 210.358C226.606 208.644 225.291 206.587 224.45 204.324Z" fill="#FAFAFA"/>
<path d="M143.74 74.3246C143.74 74.3246 141.468 76.6937 137.951 84.7661C133.108 95.3872 130.521 106.898 130.355 118.57C130.172 137.352 130.086 142.213 130.086 152.386V189.157C141.81 198.414 192.186 204.923 209.991 187.215C209.991 187.215 208.941 179.021 207.732 152.642C210.175 137.755 212.336 120.634 212.922 110.241C213.948 92.1423 211.701 80.9314 201.211 76.3518C197.091 74.8815 192.896 73.6301 188.644 72.6026C188.644 72.6026 181.903 70.4166 169.642 70.9662C160.941 71.4918 152.287 72.6139 143.74 74.3246Z" fill="#09A8EF"/>
<path d="M180.877 10.32C180.877 10.32 176.151 7.99969 171.449 12.445C167.346 16.3285 167.651 25.9518 167.785 35.9658C167.733 42.2726 168.488 48.5601 170.032 54.6751C170.567 56.5051 171.788 58.0582 173.44 59.0104L175.809 47.7141L177.25 39.8005C177.25 39.8005 182.709 39.4586 185.799 28.6263C187.838 21.4454 187.398 18.2458 187.398 18.2458L180.877 10.32Z" fill="#455A64"/>
<path d="M185.261 24.7302C184.295 28.8824 184.582 33.228 186.085 37.2173C187.588 41.2066 190.241 44.6605 193.707 47.1423C197.174 49.624 201.298 51.0221 205.559 51.1597C209.82 51.2973 214.026 50.1683 217.646 47.9154C221.265 45.6625 224.135 42.387 225.892 38.503C227.65 34.619 228.217 30.301 227.52 26.0951C226.824 21.8891 224.896 17.9842 221.98 14.874C219.064 11.7639 215.291 9.58823 211.139 8.6222C208.382 7.97917 205.526 7.88581 202.733 8.34748C199.94 8.80914 197.265 9.81677 194.862 11.3128C192.458 12.8087 190.373 14.7638 188.726 17.066C187.079 19.3683 185.901 21.9726 185.261 24.7302Z" fill="#455A64"/>
<path d="M177.811 38.5548C175.247 38.3838 175.002 35.1476 173.805 33.1203C172.609 31.0931 167.956 27.6248 164.109 32.4609C160.262 37.2969 162.106 44.4045 165.159 47.543C166.104 48.5734 167.358 49.2687 168.733 49.5242C170.107 49.7797 171.528 49.5816 172.78 48.9597L169.495 73.1278C175.93 86.195 200.502 89.1503 193.919 75.3016L194.921 70.3068C197.998 71.5924 201.249 72.4155 204.568 72.7492C209.917 73.1644 214.118 69.8427 216.976 64.6158C221.58 56.2382 224.157 42.6337 224.828 24.4008C220.102 18.5633 201.308 13.4097 187.386 18.2213C185.554 28.6018 182.305 34.9766 181.206 36.3077C180.107 37.6389 178.8 38.6281 177.811 38.5548Z" fill="#FFA8A7"/>
<path d="M231.973 11.5412C231.946 11.3725 231.873 11.2144 231.764 11.0834C231.654 10.9523 231.511 10.8531 231.35 10.7962C231.086 10.7556 230.816 10.8027 230.581 10.9305C228.865 11.7453 227.084 12.4152 225.256 12.9334C226.174 10.9601 226.704 8.82928 226.819 6.65623C226.893 5.32509 227.223 2.30866 225.72 1.61256C224.829 1.20955 223.827 1.79574 222.985 2.28423C215.279 6.65623 207.707 2.03999 200.05 0.550088C193.651 -0.756627 185.395 0.0249597 181.06 5.52049C179.082 8.03622 178.141 10.955 180.278 13.5195C182.231 15.6235 184.648 17.2419 187.337 18.2457C199.464 23.4359 215.425 31.7891 227.638 22.2025C229.433 20.884 230.801 19.0662 231.57 16.9756C232.218 15.2825 232.37 13.4399 232.01 11.6633L231.973 11.5412Z" fill="#263238"/>
<path d="M194.871 70.3067C194.871 70.3067 185.395 67.0704 180.473 62.3565C178.47 60.379 177.054 57.885 176.382 55.1512C176.215 57.6703 176.789 60.1831 178.031 62.3809C182.219 69.403 194.187 73.4697 194.187 73.4697L194.871 70.3067Z" fill="#F28F8F"/>
<path d="M198.976 40.6307C198.904 40.9339 198.774 41.2199 198.592 41.4727C198.41 41.7254 198.18 41.9398 197.915 42.1037C197.651 42.2675 197.356 42.3776 197.049 42.4277C196.741 42.4778 196.427 42.4668 196.124 42.3954C195.821 42.3241 195.535 42.1937 195.282 42.0118C195.029 41.8298 194.815 41.5999 194.651 41.3351C194.487 41.0703 194.377 40.7759 194.327 40.4685C194.277 40.1612 194.288 39.847 194.359 39.5439C194.431 39.2407 194.561 38.9547 194.743 38.7019C194.925 38.4492 195.155 38.2348 195.42 38.0709C195.684 37.9071 195.979 37.797 196.286 37.7469C196.594 37.6968 196.908 37.7078 197.211 37.7792C197.514 37.8505 197.8 37.9809 198.053 38.1628C198.306 38.3448 198.52 38.5747 198.684 38.8395C198.848 39.1043 198.958 39.3988 199.008 39.7061C199.058 40.0134 199.047 40.3276 198.976 40.6307Z" fill="#263238"/>
<path d="M198.547 31.3372L192.979 32.9126C192.784 32.1537 192.891 31.3491 193.275 30.6665C193.66 29.984 194.293 29.4762 195.042 29.2489C195.41 29.1486 195.794 29.1234 196.171 29.1749C196.548 29.2263 196.911 29.3533 197.239 29.5482C197.566 29.7431 197.85 30.002 198.075 30.3094C198.3 30.6168 198.461 30.9664 198.547 31.3372Z" fill="#263238"/>
<path d="M221.141 38.628L217.477 34.1094C217.759 33.8531 218.09 33.657 218.449 33.533C218.809 33.409 219.191 33.3598 219.57 33.3884C219.95 33.417 220.32 33.5227 220.657 33.6992C220.994 33.8757 221.292 34.1192 221.532 34.4148C222.021 35.0327 222.253 35.8151 222.18 36.5996C222.107 37.3841 221.735 38.1105 221.141 38.628Z" fill="#263238"/>
<path d="M218.32 44.4412C218.195 44.8885 217.942 45.2892 217.592 45.5938C217.242 45.8984 216.81 46.0933 216.349 46.1544C215.889 46.2155 215.421 46.1401 215.004 45.9375C214.586 45.7349 214.237 45.414 214 45.0148C213.763 44.6156 213.649 44.1556 213.671 43.6919C213.693 43.2282 213.852 42.7813 214.126 42.4067C214.4 42.0321 214.778 41.7462 215.213 41.5847C215.648 41.4232 216.121 41.3931 216.574 41.4981C217.192 41.662 217.722 42.0623 218.048 42.6127C218.375 43.1631 218.473 43.8197 218.32 44.4412Z" fill="#263238"/>
<path d="M206.778 38.0785L204.922 52.086L212.628 51.9883L206.778 38.0785Z" fill="#F28F8F"/>
<path d="M195.495 55.1512L204.972 58.6684C204.767 59.3041 204.437 59.892 204 60.3971C203.563 60.9022 203.029 61.3141 202.429 61.6082C201.83 61.9023 201.177 62.0725 200.51 62.1088C199.843 62.145 199.176 62.0465 198.548 61.8192C197.274 61.3206 196.243 60.3465 195.673 59.1024C195.104 57.8584 195.04 56.4416 195.495 55.1512Z" fill="#B16668"/>
<path d="M196.448 56.9097C196.047 56.8149 195.638 56.7617 195.226 56.751C195.182 57.8351 195.477 58.9059 196.071 59.8144C196.664 60.7228 197.526 61.4236 198.536 61.8191C199.05 62.0013 199.591 62.0963 200.136 62.1C200.302 60.9272 200.012 59.7354 199.326 58.7699C198.64 57.8044 197.61 57.1387 196.448 56.9097Z" fill="#F28F8F"/>
<path d="M259.572 199.843C258.571 198.243 254.895 195.581 253.161 194.201C251.426 192.821 250.633 195.348 251.023 197.168C251.317 198.536 253.38 200.197 255.286 201.797L255.969 206.681L251.011 211.347C251.011 211.347 244.197 211.42 243.317 210.785C241.815 209.71 240.875 208.526 242.096 207.121C243.317 205.717 244.441 205.204 247.787 205.363C249.419 205.505 251.064 205.419 252.672 205.106C254.443 204.459 254.992 203.421 254.064 202.273C252.526 200.331 249.35 200.783 245.723 199.83C241.18 198.609 239.8 197.07 235.868 195.727C232.459 194.748 229.138 193.485 225.939 191.953C222.373 190.097 174.171 163.218 174.171 163.218L159.431 112.781C159.431 112.781 156.476 80.0522 149.075 73.3232C131.856 76.2664 129.633 88.4543 130.085 102.633C130.537 116.811 142.493 156.11 147.83 168.201C152.983 179.888 154.595 180.901 162.277 184.541C173.744 189.975 205.545 201.638 212.945 205.46C216.859 207.302 220.624 209.446 224.205 211.872C227.722 214.485 234.744 219.578 236.601 220.078C241.168 221.3 250.278 218.564 253.148 217.55C256.018 216.537 261.05 209.38 261.416 208.025C261.782 206.669 260.573 201.442 259.572 199.843Z" fill="#FFA8A7"/>
<path d="M153.753 72.6025C148.868 72.8468 141.541 73.3963 135.862 78.7087C130.183 84.021 129.328 93.8275 130.159 103.927C130.782 111.682 136.424 143.006 136.424 143.006C136.424 143.006 152.837 146.585 166.332 134.58C166.124 134.055 159.786 100.031 159.786 100.031C159.786 100.031 159.2 76.3517 153.753 72.6025Z" fill="#455A64"/>
<path d="M383.27 449.743V451.648L386.58 453.565V451.648L383.27 449.743Z" fill="#37474F"/>
<path d="M389.902 449.743V451.648L386.581 453.565V451.648L389.902 449.743Z" fill="#455A64"/>
<path d="M389.902 415.304V449.743L386.581 451.648V417.221L389.902 415.304Z" fill="#37474F"/>
<path d="M386.58 451.648L383.27 449.743V415.304L386.58 417.221V451.648Z" fill="#263238"/>
<path d="M293.804 501.401V503.306L297.113 505.223V503.306L293.804 501.401Z" fill="#37474F"/>
<path d="M300.434 501.401V503.306L297.113 505.223V503.306L300.434 501.401Z" fill="#455A64"/>
<path d="M300.434 466.962V501.4L297.113 503.306V468.867L300.434 466.962Z" fill="#37474F"/>
<path d="M297.113 503.306L293.804 501.4V466.962L297.113 468.867V503.306Z" fill="#263238"/>
<path d="M224.217 461.222V463.127L227.526 465.044V463.127L224.217 461.222Z" fill="#37474F"/>
<path d="M230.849 461.222V463.127L227.527 465.044V463.127L230.849 461.222Z" fill="#455A64"/>
<path d="M230.849 426.784V461.222L227.527 463.127V428.701L230.849 426.784Z" fill="#455A64"/>
<path d="M227.526 463.127L224.217 461.222V426.784L227.526 428.701V463.127Z" fill="#263238"/>
<path d="M280.553 336.864L396.52 269.904V415.304L280.553 482.264V336.864Z" fill="#455A64"/>
<path d="M280.553 336.864L214.276 298.603V444.003L280.553 482.264V336.864Z" fill="#37474F"/>
<path d="M273.921 352.142L416.402 269.904L330.245 220.164L187.764 302.401L273.921 352.142Z" fill="#09A8EF"/>
<path opacity="0.6" d="M273.921 352.142L416.402 269.904L330.245 220.164L187.764 302.401L273.921 352.142Z" fill="white"/>
<path opacity="0.1" d="M321.232 307.433C318.082 309.252 318.082 312.208 321.232 314.027C323.002 314.919 324.955 315.383 326.936 315.383C328.916 315.383 330.87 314.919 332.639 314.027C335.79 312.208 335.79 309.252 332.639 307.433C330.871 306.536 328.917 306.069 326.936 306.069C324.954 306.069 323 306.536 321.232 307.433Z" fill="black"/>
<path d="M187.764 302.401V306.224L273.921 355.964V352.142L187.764 302.401Z" fill="#09A8EF"/>
<path opacity="0.5" d="M187.764 302.401V306.224L273.921 355.964V352.142L187.764 302.401Z" fill="white"/>
<path opacity="0.15" d="M187.764 302.401V306.224L273.921 355.964V352.142L187.764 302.401Z" fill="black"/>
<path d="M273.921 355.964L416.402 273.739V269.904L273.921 352.142V355.964Z" fill="#09A8EF"/>
<path opacity="0.5" d="M273.921 355.964L416.402 273.739V269.904L273.921 352.142V355.964Z" fill="white"/>
<path opacity="0.05" d="M273.921 355.964L416.402 273.739V269.904L273.921 352.142V355.964Z" fill="black"/>
<path opacity="0.1" d="M283.863 309.411C302.775 309.411 318.106 300.559 318.106 289.639C318.106 278.72 302.775 269.868 283.863 269.868C264.951 269.868 249.619 278.72 249.619 289.639C249.619 300.559 264.951 309.411 283.863 309.411Z" fill="black"/>
<path d="M306.565 292.888C309.008 290.445 315.822 283.655 330.22 273.153H295.88C288.001 270.907 279.651 270.907 271.772 273.153H237.505C251.903 283.655 258.742 290.494 261.148 292.888L261.343 293.083L261.746 293.474C266.253 297.7 274.471 300.521 283.863 300.521C293.254 300.521 301.461 297.7 305.979 293.474C306.089 293.364 306.223 293.242 306.37 293.083L306.565 292.888Z" fill="#E0E0E0"/>
<path d="M283.862 286C316.176 286 342.371 271.249 342.371 253.051C342.371 234.854 316.176 220.103 283.862 220.103C251.549 220.103 225.353 234.854 225.353 253.051C225.353 271.249 251.549 286 283.862 286Z" fill="#FAFAFA"/>
<path d="M283.862 281.249C313.538 281.249 337.596 268.149 337.596 251.989C337.596 235.829 313.538 222.728 283.862 222.728C254.185 222.728 230.128 235.829 230.128 251.989C230.128 268.149 254.185 281.249 283.862 281.249Z" fill="#EBEBEB"/>
<path d="M283.862 281.25C291.35 281.277 298.813 280.395 306.089 278.624C301.607 274.338 293.327 271.468 283.862 271.468C274.398 271.468 266.118 274.338 261.624 278.624C268.903 280.396 276.37 281.277 283.862 281.25Z" fill="#E0E0E0"/>
<path d="M323.626 262.26L300.435 248.863L307.054 245.04L330.245 258.425L323.626 262.26Z" fill="#09A8EF"/>
<path opacity="0.8" d="M323.626 262.26L300.435 248.863L307.054 245.04L330.245 258.425L323.626 262.26Z" fill="white"/>
<path opacity="0.05" d="M323.626 262.26L300.435 248.863L307.054 245.04L330.245 258.425L323.626 262.26Z" fill="black"/>
<path opacity="0.05" d="M323.626 262.259L330.245 258.425L326.069 256.019L319.449 259.841L323.626 262.259Z" fill="black"/>
<path d="M300.434 248.863L290.481 250.78L297.113 246.958L307.053 245.04L300.434 248.863Z" fill="#09A8EF"/>
<path opacity="0.7" d="M300.434 248.863L290.481 250.78L297.113 246.958L307.053 245.04L300.434 248.863Z" fill="white"/>
<path opacity="0.05" d="M300.434 248.863L290.481 250.78L297.113 246.958L307.053 245.04L300.434 248.863Z" fill="black"/>
<path d="M290.481 254.602L300.434 252.697L323.626 266.082V262.26L300.434 248.863L290.481 250.78V254.602Z" fill="#09A8EF"/>
<path opacity="0.7" d="M290.481 254.602L300.434 252.697L323.626 266.082V262.26L300.434 248.863L290.481 250.78V254.602Z" fill="white"/>
<path opacity="0.1" d="M290.481 254.602L300.434 252.697L323.626 266.082V262.26L300.434 248.863L290.481 250.78V254.602Z" fill="black"/>
<path opacity="0.1" d="M319.449 263.676L323.626 266.082V262.26L319.449 259.842V263.676Z" fill="black"/>
<path d="M332.357 310.193V246.579H321.525V310.193C321.569 310.669 321.739 311.125 322.018 311.514C322.297 311.902 322.675 312.209 323.112 312.403C324.299 313.005 325.611 313.318 326.941 313.318C328.271 313.318 329.583 313.005 330.77 312.403C331.206 312.207 331.582 311.9 331.861 311.511C332.14 311.123 332.311 310.668 332.357 310.193Z" fill="#09A8EF"/>
<path opacity="0.8" d="M332.357 310.193V246.579H321.525V310.193C321.569 310.669 321.739 311.125 322.018 311.514C322.297 311.902 322.675 312.209 323.112 312.403C324.299 313.005 325.611 313.318 326.941 313.318C328.271 313.318 329.583 313.005 330.77 312.403C331.206 312.207 331.582 311.9 331.861 311.511C332.14 311.123 332.311 310.668 332.357 310.193Z" fill="white"/>
<path opacity="0.03" d="M332.357 310.193V246.579H321.525V310.193C321.569 310.669 321.739 311.125 322.018 311.514C322.297 311.902 322.675 312.209 323.112 312.403C324.299 313.005 325.611 313.318 326.941 313.318C328.271 313.318 329.583 313.005 330.77 312.403C331.206 312.207 331.582 311.9 331.861 311.511C332.14 311.123 332.311 310.668 332.357 310.193Z" fill="black"/>
<path d="M328.559 313.185C329.333 313.059 330.08 312.803 330.769 312.427C331.205 312.232 331.582 311.924 331.86 311.536C332.139 311.148 332.31 310.693 332.357 310.217V246.579H328.559V313.185Z" fill="#09A8EF"/>
<path opacity="0.8" d="M328.559 313.185C329.333 313.059 330.08 312.803 330.769 312.427C331.205 312.232 331.582 311.924 331.86 311.536C332.139 311.148 332.31 310.693 332.357 310.217V246.579H328.559V313.185Z" fill="white"/>
<path opacity="0.1" d="M328.559 313.185C329.333 313.059 330.08 312.803 330.769 312.427C331.205 312.232 331.582 311.924 331.86 311.536C332.139 311.148 332.31 310.693 332.357 310.217V246.579H328.559V313.185Z" fill="black"/>
<path d="M323.112 248.789C324.299 249.391 325.61 249.705 326.941 249.705C328.271 249.705 329.583 249.391 330.769 248.789C332.882 247.568 332.882 245.59 330.769 244.368C329.583 243.767 328.271 243.453 326.941 243.453C325.61 243.453 324.299 243.767 323.112 244.368C320.987 245.59 320.987 247.568 323.112 248.789Z" fill="#09A8EF"/>
<path opacity="0.8" d="M323.112 248.789C324.299 249.391 325.61 249.705 326.941 249.705C328.271 249.705 329.583 249.391 330.769 248.789C332.882 247.568 332.882 245.59 330.769 244.368C329.583 243.767 328.271 243.453 326.941 243.453C325.61 243.453 324.299 243.767 323.112 244.368C320.987 245.59 320.987 247.568 323.112 248.789Z" fill="white"/>
<path d="M381.874 77.9947C393.892 74.7387 400.994 62.3571 397.738 50.3398C394.482 38.3224 382.1 31.22 370.083 34.476C358.066 37.732 350.963 50.1136 354.219 62.1309C357.475 74.1483 369.857 81.2507 381.874 77.9947Z" fill="#09A8EF"/>
<path d="M390.769 39.5439C389.151 38.9189 387.709 37.9087 386.568 36.6007C387.374 36.9671 388.73 36.2466 390.476 34.0117C391.893 32.1921 393.199 30.3481 394.14 29.1268L394.531 28.5651L395.618 29.3344L395.239 29.8962C394.335 31.2029 393.09 33.0592 391.868 35.0132C390.366 37.3823 390.146 38.9089 390.769 39.5439Z" fill="#09A8EF"/>
<path opacity="0.2" d="M395.129 29.9937C394.931 29.8906 394.739 29.7765 394.555 29.6517C394.372 29.5183 394.197 29.3757 394.03 29.2243C394.213 28.9801 394.371 28.748 394.518 28.5282L395.605 29.2976L395.129 29.9937Z" fill="black"/>
<path d="M397.376 29.5906C397.449 29.4799 397.499 29.3552 397.522 29.2243C397.529 29.1962 397.529 29.1669 397.522 29.1388C397.528 29.0942 397.528 29.049 397.522 29.0044C397.522 29.0044 397.522 29.0044 397.522 28.9434C397.522 28.8823 397.522 28.8701 397.522 28.8335C397.241 28.2161 396.799 27.6854 396.242 27.2966C395.686 26.9079 395.036 26.6753 394.359 26.623H394.188H394.054H393.981C393.87 26.6929 393.774 26.7843 393.7 26.8917C393.624 26.9965 393.573 27.1179 393.553 27.2459C393.419 27.7588 393.944 28.5892 394.848 29.2243C395.751 29.8593 396.716 30.0669 397.156 29.7616C397.238 29.7178 397.313 29.6599 397.376 29.5906Z" fill="#09A8EF"/>
<path opacity="0.3" d="M396.814 28.8091C396.606 29.1022 395.935 28.9923 395.312 28.5648C394.689 28.1374 394.347 27.5268 394.555 27.2337C394.762 26.9406 394.994 27.0261 395.361 27.136C394.933 27.136 394.762 27.4657 395.031 27.881C395.351 28.2735 395.774 28.5694 396.252 28.7358C396.557 28.8091 396.777 28.7358 396.826 28.5282C396.843 28.5735 396.85 28.6217 396.848 28.6699C396.846 28.7181 396.834 28.7654 396.814 28.8091Z" fill="black"/>
<path d="M382.759 34.8785C381.031 34.9208 379.314 34.5875 377.727 33.9016C378.606 33.9016 379.339 33.7794 379.962 31.337C380.475 29.3464 380.56 29.2242 380.841 27.832C380.841 27.6122 380.927 27.4168 380.963 27.2336L382.27 27.4901C382.27 27.6692 382.234 27.8646 382.16 28.0763C381.892 29.4807 381.892 29.615 381.623 31.6545C381.293 34.158 381.928 34.5732 382.759 34.8785Z" fill="#09A8EF"/>
<path opacity="0.2" d="M382.111 28.3205C381.889 28.3093 381.668 28.2807 381.451 28.2351C381.228 28.1925 381.008 28.1354 380.792 28.0641C380.853 27.771 380.914 27.4901 380.963 27.2336L382.269 27.4901C382.221 27.7466 382.172 28.0152 382.111 28.3205Z" fill="black"/>
<path d="M384.456 26.8918C384.493 26.7393 384.493 26.5802 384.456 26.4277C384.461 26.3954 384.461 26.3624 384.456 26.33L384.383 26.1835C384.386 26.1592 384.386 26.1345 384.383 26.1102L384.309 26.0125C383.729 25.4482 382.985 25.0808 382.184 24.9623C381.399 24.771 380.574 24.8352 379.827 25.1454H379.718H379.656L379.534 25.2553L379.473 25.3286C379.377 25.4545 379.31 25.6006 379.278 25.7561C379.253 25.9057 379.253 26.0583 379.278 26.2079C379.388 26.8307 380.365 27.4291 381.647 27.7222C382.929 28.0153 384.09 27.7222 384.407 27.1971C384.44 27.0986 384.456 26.9955 384.456 26.8918Z" fill="#09A8EF"/>
<path opacity="0.3" d="M383.478 26.3179C383.392 26.7331 382.611 26.9407 381.732 26.7697C380.852 26.5987 380.193 26.1225 380.278 25.695C380.364 25.2676 380.645 25.2554 381.084 25.2065C380.62 25.3897 380.608 25.8538 381.084 26.1591C381.632 26.4463 382.253 26.5612 382.867 26.4888C383.234 26.4156 383.466 26.269 383.392 25.9759C383.429 26.0243 383.455 26.0795 383.47 26.1382C383.485 26.197 383.487 26.258 383.478 26.3179Z" fill="black"/>
<path d="M373.135 34.0605C371.809 34.662 370.377 34.9941 368.922 35.0375C369.618 34.7688 369.984 33.7186 369.667 31.8012C369.614 31.2107 369.528 30.6237 369.41 30.0427C369.41 29.888 369.373 29.7414 369.3 29.603L370.399 29.3466C370.399 29.4809 370.46 29.6274 370.509 29.7984C370.647 30.3739 370.831 30.9375 371.059 31.4837C371.596 33.34 372.402 34.1216 373.135 34.0605Z" fill="#09A8EF"/>
<path opacity="0.2" d="M370.558 30.0304C370.385 30.1037 370.205 30.1609 370.021 30.2014C369.837 30.2468 369.649 30.2754 369.459 30.2869C369.459 30.0427 369.349 29.8106 369.3 29.603L370.4 29.3466C370.448 29.5542 370.497 29.7862 370.558 30.0304Z" fill="black"/>
<path d="M371.596 28.4061C371.565 28.2969 371.515 28.1937 371.449 28.1008L371.364 28.0276H371.291C370.73 27.8063 370.118 27.7462 369.524 27.8541C368.931 27.962 368.38 28.2335 367.932 28.6382C367.929 28.6625 367.929 28.6871 367.932 28.7114V28.8214V28.8946C367.908 29.0032 367.908 29.1158 367.932 29.2244C367.957 29.3301 368.003 29.4298 368.067 29.5175C368.311 29.8838 369.129 30.0304 370.045 29.8105C370.961 29.5907 371.62 29.1144 371.682 28.6748C371.672 28.5804 371.643 28.4889 371.596 28.4061Z" fill="#09A8EF"/>
<path opacity="0.3" d="M370.778 28.3087C370.839 28.614 370.399 28.9681 369.764 29.1147C369.129 29.2612 368.543 29.1147 368.543 28.8338C368.543 28.5529 368.653 28.443 368.921 28.2843C368.677 28.5407 368.799 28.846 369.202 28.9071C369.63 28.9258 370.055 28.8198 370.424 28.6018C370.643 28.443 370.741 28.2843 370.619 28.1133C370.69 28.1615 370.745 28.2295 370.778 28.3087Z" fill="black"/>
<path d="M364.806 36.8328C363.624 38.0977 362.153 39.0573 360.519 39.6294C361.155 39.0188 360.996 37.5044 359.579 35.0986C358.431 33.1324 357.259 31.2639 356.404 29.945C356.27 29.7496 356.148 29.5664 356.038 29.3833L357.149 28.6505L357.527 29.2123C358.395 30.519 359.64 32.3264 360.996 34.0972C362.657 36.4297 363.988 37.1869 364.806 36.8328Z" fill="#09A8EF"/>
<path opacity="0.2" d="M357.613 29.3831C357.448 29.53 357.272 29.6647 357.088 29.7861C356.903 29.9144 356.707 30.0248 356.502 30.1159L356.038 29.4075L357.149 28.6748C357.295 28.8946 357.454 29.1267 357.613 29.3831Z" fill="black"/>
<path d="M358.382 26.5744C358.289 26.4403 358.168 26.3278 358.028 26.2446H357.93H357.771H357.686H357.551C356.7 26.2428 355.87 26.5123 355.182 27.014C354.452 27.4502 353.876 28.1034 353.534 28.8825V29.0046C353.534 29.0046 353.534 29.0046 353.534 29.0901C353.528 29.147 353.528 29.2042 353.534 29.2611C353.539 29.2934 353.539 29.3264 353.534 29.3588C353.561 29.5228 353.619 29.6802 353.705 29.8228C353.8 29.9508 353.915 30.0622 354.047 30.1526C354.584 30.5434 355.793 30.3113 356.941 29.5542C358.089 28.797 358.785 27.7712 358.638 27.1117C358.595 26.9152 358.508 26.7314 358.382 26.5744Z" fill="#09A8EF"/>
<path opacity="0.3" d="M357.223 26.8675C357.467 27.2461 357.027 27.9666 356.233 28.4918C355.44 29.0169 354.597 29.1268 354.353 28.7604C354.108 28.3941 354.353 28.1498 354.597 27.7834C354.389 28.2719 354.719 28.6261 355.305 28.504C355.95 28.3207 356.523 27.9408 356.942 27.4171C357.161 27.0996 357.223 26.8187 356.942 26.6599C357.056 26.6959 357.155 26.769 357.223 26.8675Z" fill="black"/>
<path d="M357.735 43.293C357.14 44.8172 356.343 46.2547 355.366 47.5673C355.695 46.7979 355.366 45.882 354.144 45.0516C353.167 44.3799 352.19 43.8303 351.47 43.3785L351.165 43.2075L351.787 42.0962C351.886 42.1584 351.988 42.2154 352.093 42.2672C352.813 42.658 353.839 43.1709 354.926 43.6472C356.318 44.1723 357.259 43.928 357.735 43.293Z" fill="#09A8EF"/>
<path opacity="0.2" d="M352.312 42.3159C352.227 42.4991 352.141 42.6945 352.031 42.8899C351.93 43.0768 351.816 43.2564 351.69 43.4272L351.213 43.1586L351.836 42.0472L352.312 42.3159Z" fill="black"/>
<path d="M351.8 40.3499C351.695 40.3006 351.584 40.2676 351.47 40.2522H351.36H351.238H351.177H351.091C350.569 40.5255 350.143 40.9516 349.87 41.4734C349.548 41.9914 349.402 42.5998 349.455 43.2076C349.455 43.2076 349.455 43.2076 349.455 43.3053C349.455 43.403 349.455 43.3053 349.455 43.3053C349.45 43.3418 349.45 43.3787 349.455 43.4152C349.519 43.5136 349.607 43.5936 349.711 43.6472C349.813 43.7018 349.926 43.735 350.041 43.7449C350.505 43.8182 351.201 43.2686 351.677 42.4016C352.154 41.5345 352.239 40.6674 351.934 40.3133C351.888 40.3208 351.843 40.3331 351.8 40.3499Z" fill="#09A8EF"/>
<path opacity="0.3" d="M351.165 40.9237C351.446 41.0825 351.409 41.6809 351.08 42.2793C350.75 42.8777 350.262 43.2318 349.981 43.0731C349.7 42.9143 349.749 42.7067 349.81 42.377C349.81 42.7556 350.164 42.8655 350.506 42.5968C350.835 42.2605 351.059 41.8365 351.153 41.3756C351.153 41.0947 351.153 40.8993 350.909 40.8871C350.996 40.8677 351.087 40.8807 351.165 40.9237Z" fill="black"/>
<path d="M354.072 51.6952C354.333 53.4075 354.182 55.1574 353.632 56.7999C353.547 55.9206 352.265 55.1024 349.517 54.7238C347.27 54.4063 345.096 54.1743 343.545 54.0277L342.873 53.9667L342.995 52.6478H343.655C345.218 52.7699 347.392 52.9164 349.663 52.9897C352.436 53.124 353.828 52.5501 354.072 51.6952Z" fill="#09A8EF"/>
<path opacity="0.2" d="M343.826 52.7088C343.844 52.9323 343.844 53.1569 343.826 53.3804C343.803 53.6064 343.766 53.8307 343.716 54.0521L342.873 53.9666L342.995 52.6477L343.826 52.7088Z" fill="black"/>
<path d="M341.981 50.0952C341.803 50.0878 341.625 50.1126 341.456 50.1685H341.346L341.187 50.2784H341.114L341.016 50.3761C340.451 51.1104 340.126 52.0022 340.088 52.9285C339.958 53.8533 340.129 54.7956 340.577 55.6152C340.598 55.6604 340.627 55.7018 340.662 55.7373L340.723 55.8106L340.858 55.9327H340.955C341.108 56.0236 341.279 56.0779 341.456 56.0915C341.629 56.1079 341.804 56.0871 341.969 56.0304C342.677 55.835 343.3 54.6382 343.422 53.1361C343.544 51.634 343.141 50.3517 342.494 50.0464C342.322 50.0312 342.148 50.0477 341.981 50.0952Z" fill="#09A8EF"/>
<path opacity="0.3" d="M341.444 51.292C341.932 51.292 342.262 52.2079 342.177 53.2459C342.091 54.284 341.615 55.0778 341.114 55.0289C340.821 55.0289 340.577 54.6626 340.455 54.1619C340.736 54.6748 341.261 54.6382 341.554 54.0397C341.813 53.3749 341.868 52.6478 341.713 51.9514C341.578 51.5484 341.383 51.3042 341.065 51.4263C341.116 51.3796 341.176 51.3436 341.241 51.3205C341.306 51.2975 341.375 51.2877 341.444 51.292Z" fill="black"/>
<path d="M354.144 60.8788C354.998 62.4719 355.591 64.1911 355.903 65.9713C355.5 65.1409 354.364 64.7501 352.471 65.2508C350.933 65.6416 349.467 66.1056 348.417 66.472L347.977 66.6186L347.525 65.2752L347.965 65.1287C349.003 64.7501 350.407 64.2127 351.897 63.5655C353.68 62.8327 354.34 61.7825 354.144 60.8788Z" fill="#09A8EF"/>
<path opacity="0.2" d="M348.124 65.0675C348.221 65.2751 348.307 65.4827 348.392 65.7148C348.473 65.9381 348.538 66.1666 348.588 66.3986L347.977 66.6062L347.525 65.2751L348.124 65.0675Z" fill="black"/>
<path d="M346.036 64.0539C345.91 64.1011 345.794 64.1715 345.694 64.2615C345.658 64.2971 345.629 64.3384 345.608 64.3836V64.4813C345.459 65.1453 345.494 65.8375 345.709 66.4832C345.924 67.1288 346.311 67.7034 346.829 68.145H346.915H346.988H347.11H347.232C347.361 68.1743 347.494 68.1743 347.623 68.145C347.743 68.1069 347.852 68.0398 347.941 67.9496C348.356 67.6199 348.417 66.6307 348.051 65.5927C347.684 64.5546 346.939 64.0539 346.414 64.0539C346.289 64.0292 346.16 64.0292 346.036 64.0539Z" fill="#09A8EF"/>
<path opacity="0.3" d="M346.023 65.0431C346.365 64.921 346.841 65.4095 347.098 66.13C347.354 66.8505 347.269 67.5222 346.927 67.6444C346.585 67.7665 346.451 67.5589 346.219 67.2536C346.56 67.5222 346.902 67.339 346.915 66.8506C346.893 66.3257 346.714 65.8195 346.402 65.3973C346.194 65.1653 345.999 65.0676 345.816 65.2385C345.835 65.1934 345.863 65.1527 345.899 65.119C345.935 65.0854 345.977 65.0595 346.023 65.0431Z" fill="black"/>
<path d="M358.37 69.9769C359.319 70.8821 360.216 71.8402 361.057 72.8468C360.666 72.4804 359.994 72.1263 359.518 72.3828C359.157 72.5839 358.817 72.8213 358.504 73.0911L358.407 73.1766L357.845 72.5659L357.942 72.4805C358.23 72.1922 358.472 71.863 358.663 71.5035C358.777 71.2497 358.809 70.9671 358.757 70.694C358.705 70.4209 358.569 70.1706 358.37 69.9769Z" fill="#09A8EF"/>
<path opacity="0.2" d="M358.065 72.3582L358.37 72.6512L358.639 72.9688L358.407 73.1764L357.845 72.5658L358.065 72.3582Z" fill="black"/>
<path d="M356.257 72.2115C356.182 72.2782 356.123 72.3619 356.086 72.4557C356.081 72.4799 356.081 72.5049 356.086 72.529C356.079 72.5612 356.079 72.5945 356.086 72.6267C356.08 72.6508 356.08 72.6759 356.086 72.7C356.174 73.2175 356.427 73.6929 356.807 74.0555C357.146 74.4577 357.603 74.7437 358.113 74.8738H358.382H358.443C358.543 74.8471 358.635 74.7968 358.712 74.7272C358.78 74.6566 358.834 74.5737 358.871 74.483C359.054 74.1166 358.785 73.3961 358.211 72.7855C357.637 72.1748 356.929 71.8451 356.55 72.0039C356.433 72.0399 356.33 72.1127 356.257 72.2115Z" fill="#09A8EF"/>
<path opacity="0.3" d="M356.551 72.8955C356.758 72.7001 357.247 72.8955 357.65 73.323C358.053 73.7504 358.212 74.2511 358.004 74.4465C357.796 74.6419 357.638 74.532 357.381 74.3854C357.699 74.4709 357.882 74.2389 357.748 73.8847C357.561 73.5285 357.277 73.2321 356.929 73.0299C356.709 72.9322 356.539 72.92 356.465 73.1032C356.464 73.0644 356.471 73.0258 356.485 72.99C356.5 72.9542 356.522 72.9219 356.551 72.8955Z" fill="black"/>
<path d="M365.318 75.8998C367.023 76.1977 368.646 76.851 370.081 77.8171C369.214 77.6217 368.469 77.6095 367.431 79.8321C366.576 81.6518 366.454 81.7373 365.941 83.0318C365.856 83.2149 365.782 83.3981 365.709 83.5691L364.488 83.0806C364.561 82.9096 364.635 82.7265 364.708 82.5311C365.208 81.2366 365.233 81.1022 365.868 79.2093C366.625 76.8768 366.076 76.3638 365.318 75.8998Z" fill="#09A8EF"/>
<path opacity="0.2" d="M364.781 82.2991C365.001 82.3492 365.217 82.4145 365.428 82.4945C365.636 82.5749 365.836 82.6729 366.027 82.7876L365.709 83.5692L364.488 83.0807C364.573 82.8364 364.683 82.5677 364.781 82.2991Z" fill="black"/>
<path d="M362.217 83.2514C362.16 83.3953 362.131 83.5486 362.132 83.7033C362.132 83.7033 362.132 83.7765 362.132 83.801C362.132 83.8254 362.132 83.801 362.132 83.801C362.127 83.8538 362.127 83.9069 362.132 83.9597V84.033V84.1429C362.584 84.8137 363.245 85.3162 364.012 85.5718C364.749 85.9123 365.574 86.0106 366.369 85.8526H366.491H366.565L366.699 85.7794C366.699 85.7794 366.76 85.7794 366.772 85.7794C366.887 85.6743 366.976 85.5455 367.035 85.4021C367.094 85.2586 367.121 85.1039 367.114 84.9489C367.114 84.3139 366.296 83.4957 365.075 83.0072C363.854 82.5187 362.693 82.5431 362.266 83.0072C362.241 83.0865 362.224 83.1684 362.217 83.2514Z" fill="#09A8EF"/>
<path opacity="0.3" d="M363.047 83.9965C363.218 83.5935 364.024 83.5447 364.855 83.8866C365.685 84.2286 366.247 84.8148 366.076 85.2056C365.905 85.5963 365.624 85.5719 365.172 85.5353C365.673 85.4498 365.771 84.9979 365.356 84.5949C364.866 84.2153 364.276 83.9862 363.658 83.9355C363.292 83.9355 363.035 84.0454 363.06 84.3385C363.013 84.2299 363.009 84.1081 363.047 83.9965Z" fill="black"/>
<path d="M374.686 78.4278C376.103 78.0925 377.572 78.0386 379.01 78.2691C378.277 78.4034 377.727 79.3559 377.678 81.2611C377.605 81.8401 377.576 82.424 377.593 83.0074C377.593 83.1662 377.593 83.3127 377.593 83.4593H376.469C376.469 83.3249 376.469 83.1662 376.469 83.0074C376.44 82.4247 376.366 81.845 376.25 81.2733C376.054 79.417 375.431 78.5133 374.686 78.4278Z" fill="#09A8EF"/>
<path opacity="0.2" d="M376.48 82.7876C376.667 82.7743 376.855 82.7743 377.042 82.7876C377.229 82.7689 377.417 82.7689 377.604 82.7876C377.604 83.0319 377.604 83.2761 377.604 83.496H376.48C376.48 83.2761 376.48 83.0441 376.48 82.7876Z" fill="black"/>
<path d="M375.15 84.204C375.154 84.3151 375.183 84.4237 375.236 84.5216L375.309 84.6071H375.382C375.88 84.8989 376.456 85.031 377.031 84.9856C377.606 84.9909 378.167 84.8111 378.631 84.4727H378.704C378.729 84.4431 378.749 84.4102 378.765 84.375V84.3017C378.804 84.2004 378.825 84.0928 378.826 83.9842C378.817 83.8742 378.788 83.7667 378.741 83.6667C378.57 83.2515 377.788 82.9706 376.86 83.0072C375.932 83.0439 375.175 83.3858 375.028 83.8133C375.029 83.9528 375.071 84.089 375.15 84.204Z" fill="#09A8EF"/>
<path opacity="0.3" d="M375.919 84.4362C375.919 84.1309 376.419 83.8744 377.054 83.85C377.689 83.8256 378.276 84.0454 378.276 84.3507C378.276 84.656 378.092 84.7171 377.787 84.827C378.092 84.6194 378.019 84.3019 377.628 84.1675C377.207 84.0361 376.755 84.0361 376.334 84.1675C376.102 84.2774 375.968 84.4118 376.065 84.5949C376.032 84.5795 376.001 84.5575 375.976 84.5302C375.951 84.503 375.931 84.471 375.919 84.4362Z" fill="black"/>
<path d="M383.552 77.2431C384.893 76.1594 386.471 75.4064 388.156 75.0449C387.436 75.5701 387.411 77.0844 388.498 79.6245C389.378 81.7128 390.294 83.679 390.941 85.0956C391.047 85.2992 391.144 85.4946 391.234 85.6818L390.013 86.2802C389.927 86.097 389.829 85.8894 389.72 85.6818C389.023 84.2774 388.022 82.3479 386.911 80.3817C385.616 77.9026 384.407 76.9989 383.552 77.2431Z" fill="#09A8EF"/>
<path opacity="0.2" d="M389.695 85.4622C389.884 85.3384 390.08 85.2242 390.281 85.1202C390.482 85.0231 390.69 84.9414 390.904 84.876C391.026 85.1446 391.16 85.3889 391.27 85.6209L390.049 86.2193C389.914 86.0361 389.829 85.7308 389.695 85.4622Z" fill="black"/>
<path d="M388.596 88.1486C388.671 88.294 388.775 88.4227 388.901 88.5272H388.986L389.133 88.6005H389.218H389.353C390.195 88.6616 391.039 88.4969 391.797 88.1234C392.555 87.7499 393.199 87.181 393.664 86.4755C393.667 86.4349 393.667 86.3941 393.664 86.3534C393.669 86.3252 393.669 86.2962 393.664 86.2679C393.675 86.2115 393.675 86.1534 393.664 86.0969C393.676 86.0613 393.676 86.0227 393.664 85.987C393.662 85.8221 393.625 85.6595 393.554 85.5108C393.484 85.3688 393.384 85.2437 393.261 85.1444C392.772 84.6803 391.551 84.7658 390.318 85.3642C389.084 85.9626 388.266 86.903 388.339 87.5624C388.363 87.7793 388.453 87.9838 388.596 88.1486Z" fill="#09A8EF"/>
<path opacity="0.3" d="M389.78 88.0021C389.585 87.5991 390.11 86.9274 391.001 86.5122C391.893 86.097 392.699 86.0847 392.894 86.5122C393.089 86.9396 392.894 87.1228 392.528 87.4403C392.809 86.9885 392.528 86.5977 391.917 86.6465C391.275 86.7557 390.68 87.0532 390.207 87.5014C389.951 87.8067 389.853 88.0631 390.097 88.2585C390.028 88.2437 389.963 88.2128 389.908 88.1682C389.853 88.1237 389.809 88.0667 389.78 88.0021Z" fill="black"/>
<path d="M392.357 71.5277C393.144 70.0953 394.117 68.7731 395.251 67.5953C394.823 68.3159 394.994 69.2684 396.069 70.2332C396.948 71.0148 397.828 71.7231 398.512 72.2116L398.78 72.4192L398.035 73.445L397.754 73.2374C397.095 72.7611 396.155 72.1261 395.141 71.5277C393.908 70.795 392.955 70.9171 392.357 71.5277Z" fill="#09A8EF"/>
<path opacity="0.2" d="M397.608 73.1154C397.709 72.9322 397.824 72.7567 397.95 72.5903C398.076 72.4163 398.21 72.2492 398.353 72.0896L398.793 72.4193L398.048 73.4452L397.608 73.1154Z" fill="black"/>
<path d="M397.852 75.1304C397.947 75.1976 398.055 75.2434 398.17 75.2647H398.279C398.319 75.277 398.362 75.277 398.402 75.2647H398.463H398.56C399.128 75.047 399.614 74.6588 399.953 74.1534C400.341 73.6846 400.564 73.1009 400.588 72.4926V72.3949V72.2849V72.2239C400.534 72.121 400.457 72.0314 400.364 71.9617C400.271 71.892 400.164 71.8439 400.05 71.8209C399.598 71.6865 398.829 72.1506 398.255 72.9322C397.681 73.7138 397.473 74.5809 397.73 74.9839C397.764 75.0378 397.805 75.0871 397.852 75.1304Z" fill="#09A8EF"/>
<path opacity="0.3" d="M398.56 74.642C398.304 74.4588 398.414 73.8604 398.817 73.3109C399.22 72.7613 399.757 72.4804 400.038 72.6636C400.319 72.8468 400.221 73.0544 400.111 73.3841C400.111 72.9934 399.831 72.8468 399.464 73.0666C399.09 73.3527 398.809 73.7438 398.658 74.1902C398.597 74.4588 398.658 74.6542 398.841 74.7031C398.793 74.7124 398.743 74.7117 398.695 74.7012C398.646 74.6907 398.601 74.6706 398.56 74.642Z" fill="black"/>
<path d="M396.754 64.5179C396.722 62.7856 397.211 61.0838 398.158 59.6329C398.158 60.5244 399.575 61.6602 402.909 62.7593C403.702 63.028 405.449 63.7851 407.354 64.3347L408.16 64.5667L407.806 65.849L406.988 65.6292C405.07 65.0918 403.006 64.5301 402.445 64.4079C399.025 63.5287 397.242 63.7363 396.754 64.5179Z" fill="#09A8EF"/>
<path opacity="0.2" d="M407.012 65.5804C407.069 65.133 407.193 64.6967 407.379 64.2859L408.185 64.5179L407.831 65.8002L407.012 65.5804Z" fill="black"/>
<path d="M408.319 68.4868C408.491 68.5293 408.671 68.5293 408.844 68.4868H408.966L409.137 68.4136H409.21L409.344 68.3281C410.046 67.7171 410.537 66.9011 410.749 65.9955C411.038 65.1108 411.038 64.157 410.749 63.2722C410.731 63.2264 410.71 63.1816 410.688 63.1379C410.692 63.1095 410.692 63.0807 410.688 63.0524L410.578 62.9058L410.492 62.8326C410.356 62.7168 410.199 62.6296 410.028 62.5761C409.855 62.5402 409.676 62.5402 409.503 62.5761C408.783 62.5761 407.94 63.6996 407.537 65.1407C407.134 66.5817 407.281 67.9251 407.867 68.3525C408.007 68.4262 408.161 68.4718 408.319 68.4868Z" fill="#09A8EF"/>
<path opacity="0.3" d="M409.064 67.4245C408.6 67.2902 408.441 66.3743 408.722 65.3728C409.003 64.3714 409.614 63.6753 410.09 63.8097C410.566 63.944 410.566 64.2737 410.578 64.7989C410.407 64.2371 409.882 64.176 409.479 64.7012C409.098 65.307 408.907 66.013 408.93 66.7284C408.93 67.1436 409.125 67.4245 409.467 67.3635C409.345 67.4347 409.201 67.4566 409.064 67.4245Z" fill="black"/>
<path d="M398.316 55.7127C397.69 54.0069 397.428 52.1891 397.547 50.376C397.815 51.2675 399.146 51.817 401.674 51.5972C403.738 51.4262 403.531 51.414 404.947 51.2186L405.546 51.1453L405.741 52.5253L405.143 52.6108C403.726 52.8306 403.921 52.9406 401.919 53.3558C399.44 53.8809 398.328 54.7846 398.316 55.7127Z" fill="#09A8EF"/>
<path opacity="0.2" d="M405.106 52.6355C405.106 52.4157 405.008 52.1837 404.972 51.9394C404.935 51.6952 404.972 51.4631 404.911 51.2433L405.546 51.1578L405.741 52.5378L405.106 52.6355Z" fill="black"/>
<path d="M407.012 53.991C407.14 53.9798 407.263 53.9333 407.366 53.8566H407.439L407.525 53.7589C407.521 53.7265 407.521 53.6937 407.525 53.6612C407.781 53.0348 407.865 52.3512 407.769 51.6813C407.672 51.0114 407.398 50.3795 406.975 49.851L406.89 49.7777L406.768 49.7045H406.682C406.554 49.6734 406.42 49.6734 406.291 49.7045C406.166 49.721 406.046 49.7625 405.937 49.8266C405.473 50.083 405.229 51.0478 405.388 52.1347C405.546 53.2216 406.047 54.0765 406.609 54.1864C406.759 54.162 406.9 54.094 407.012 53.991Z" fill="#09A8EF"/>
<path opacity="0.3" d="M407.17 53.0629C406.816 53.1239 406.437 52.5499 406.327 51.8416C406.217 51.1333 406.413 50.4372 406.779 50.3884C407.146 50.3395 407.231 50.5593 407.39 50.9013C407.109 50.5838 406.743 50.7059 406.633 51.17C406.562 51.6905 406.643 52.2203 406.865 52.6965C407.023 52.9529 407.207 53.0995 407.414 52.9652C407.346 53.0241 407.26 53.0585 407.17 53.0629Z" fill="black"/>
<path d="M396.021 45.8819C395.257 44.8118 394.556 43.6986 393.92 42.548C394.238 42.9876 394.836 43.4639 395.361 43.2929C395.753 43.1684 396.13 43.0005 396.485 42.7922H396.595L397.035 43.4883L396.925 43.5616C396.585 43.7839 396.284 44.0603 396.033 44.3798C395.886 44.6023 395.807 44.8625 395.805 45.1291C395.803 45.3956 395.878 45.6571 396.021 45.8819Z" fill="#09A8EF"/>
<path opacity="0.2" d="M396.729 43.5982C396.644 43.489 396.567 43.3748 396.497 43.2562C396.421 43.1379 396.352 43.0156 396.289 42.8898L396.546 42.7311L396.985 43.4272L396.729 43.5982Z" fill="black"/>
<path opacity="0.3" d="M398.316 43.354C398.084 43.5005 397.633 43.2196 397.327 42.7311C397.022 42.2426 396.949 41.7053 397.193 41.5099C397.437 41.3145 397.559 41.5099 397.791 41.6809C397.486 41.5343 397.266 41.6809 397.327 42.1083C397.436 42.497 397.662 42.8425 397.975 43.0975C398.17 43.244 398.341 43.2807 398.439 43.0975C398.446 43.1475 398.438 43.1986 398.416 43.2442C398.395 43.2898 398.36 43.328 398.316 43.354Z" fill="black"/>
<path opacity="0.1" d="M389.023 74.581C383.479 78.2447 366.479 79.4659 358.346 65.2874C350.213 51.1089 362.254 38.054 367.322 35.3917C364.387 36.6053 361.741 38.4254 359.558 40.7329C357.375 43.0403 355.705 45.783 354.656 48.7812C353.607 51.7793 353.204 54.9653 353.472 58.1303C353.74 61.2953 354.674 64.3678 356.213 67.1465C357.752 69.9253 359.861 72.3475 362.401 74.2544C364.941 76.1614 367.855 77.51 370.953 78.2119C374.051 78.9139 377.262 78.9532 380.376 78.3275C383.49 77.7018 386.437 76.425 389.023 74.581Z" fill="black"/>
<path d="M362.474 56.2013C362.676 56.8896 362.605 57.6294 362.275 58.2664C361.945 58.9035 361.382 59.3886 360.703 59.6207C359.482 59.8283 358.199 58.6437 357.906 56.9706C357.704 56.2823 357.775 55.5425 358.105 54.9055C358.435 54.2684 358.998 53.7833 359.677 53.5512C360.935 53.3436 362.193 54.5282 362.474 56.2013Z" fill="#09A8EF"/>
<path opacity="0.15" d="M362.474 56.2013C362.676 56.8896 362.605 57.6294 362.275 58.2664C361.945 58.9035 361.382 59.3886 360.703 59.6207C359.482 59.8283 358.199 58.6437 357.906 56.9706C357.704 56.2823 357.775 55.5425 358.105 54.9055C358.435 54.2684 358.998 53.7833 359.677 53.5512C360.935 53.3436 362.193 54.5282 362.474 56.2013Z" fill="black"/>
<path opacity="0.15" d="M359.09 54.6749C359.542 54.0154 360.824 54.5039 361.191 56.0304C361.353 56.5183 361.372 57.0428 361.244 57.541C361.116 58.0391 360.848 58.4899 360.47 58.8392C360.356 58.8952 360.231 58.9279 360.104 58.9355C359.977 58.943 359.849 58.9253 359.729 58.8833C359.608 58.8413 359.498 58.7758 359.403 58.6907C359.308 58.6056 359.231 58.5025 359.176 58.3874C359.591 58.7171 360.141 58.595 360.458 57.9233C360.645 57.4794 360.723 56.9969 360.685 56.5165C360.647 56.0361 360.494 55.572 360.238 55.1633C359.896 54.6626 359.383 54.4917 359.09 54.6749Z" fill="black"/>
<path d="M389.231 60.7199C389.426 59.0346 390.623 57.789 391.893 57.9355C393.163 58.0821 394.03 59.572 393.835 61.2573C393.639 62.9426 392.443 64.1882 391.136 64.0539C389.829 63.9196 389.035 62.4052 389.231 60.7199Z" fill="#09A8EF"/>
<path opacity="0.15" d="M389.231 60.7199C389.426 59.0346 390.623 57.789 391.893 57.9355C393.163 58.0821 394.03 59.572 393.835 61.2573C393.639 62.9426 392.443 64.1882 391.136 64.0539C389.829 63.9196 389.035 62.4052 389.231 60.7199Z" fill="black"/>
<path opacity="0.15" d="M392.051 63.1256C391.429 63.6263 390.342 62.8081 390.415 61.2449C390.488 60.0237 391.172 58.8879 391.893 58.8025C392.018 58.7815 392.146 58.7854 392.269 58.814C392.393 58.8425 392.51 58.8952 392.613 58.9689C392.716 59.0426 392.804 59.136 392.871 59.2436C392.938 59.3513 392.983 59.4711 393.004 59.5963C392.699 59.1688 392.149 59.1322 391.648 59.694C391.361 60.0646 391.165 60.4975 391.076 60.9579C390.987 61.4182 391.007 61.893 391.135 62.344C391.27 62.918 391.673 63.2111 392.051 63.1256Z" fill="black"/>
<path d="M374.979 49.1672C374.425 49.4062 373.8 49.4214 373.236 49.2096C372.671 48.9979 372.21 48.5756 371.95 48.0315C371.645 47.0057 372.512 45.8455 373.88 45.4425C374.432 45.2027 375.055 45.1857 375.62 45.3951C376.184 45.6045 376.646 46.0241 376.908 46.566C377.214 47.5919 376.346 48.7642 374.979 49.1672Z" fill="#09A8EF"/>
<path opacity="0.15" d="M374.979 49.1672C374.425 49.4062 373.8 49.4214 373.236 49.2096C372.671 48.9979 372.21 48.5756 371.95 48.0315C371.645 47.0057 372.512 45.8455 373.88 45.4425C374.432 45.2027 375.055 45.1857 375.62 45.3951C376.184 45.6045 376.646 46.0241 376.908 46.566C377.214 47.5919 376.346 48.7642 374.979 49.1672Z" fill="black"/>
<path opacity="0.15" d="M375.906 46.1873C376.505 46.5048 376.236 47.6161 374.991 48.0802C374.598 48.2755 374.156 48.3497 373.721 48.2931C373.286 48.2366 372.878 48.0519 372.548 47.7626C372.489 47.6731 372.449 47.5728 372.43 47.4676C372.41 47.3623 372.412 47.2542 372.435 47.1497C372.457 47.0451 372.501 46.9461 372.562 46.8584C372.624 46.7707 372.702 46.6962 372.792 46.6391C372.56 47.0177 372.707 47.4573 373.305 47.6527C373.694 47.767 374.105 47.7855 374.503 47.7069C374.9 47.6282 375.273 47.4546 375.589 47.2009C376.004 46.8589 376.09 46.4559 375.906 46.1873Z" fill="black"/>
<path d="M372.964 61.7944C374.478 62.5638 375.248 64.1025 374.661 65.2383C374.075 66.374 372.402 66.6915 370.876 65.9221C369.349 65.1528 368.604 63.614 369.178 62.4783C369.752 61.3425 371.45 61.0372 372.964 61.7944Z" fill="#09A8EF"/>
<path opacity="0.15" d="M372.964 61.7944C374.478 62.5638 375.248 64.1025 374.661 65.2383C374.075 66.374 372.402 66.6915 370.876 65.9221C369.349 65.1528 368.604 63.614 369.178 62.4783C369.752 61.3425 371.45 61.0372 372.964 61.7944Z" fill="black"/>
<path opacity="0.15" d="M369.727 63.6263C369.471 62.857 370.619 62.112 372.06 62.7348C373.208 63.2111 374.014 64.2492 373.904 64.9697C373.882 65.0946 373.835 65.2139 373.766 65.3205C373.698 65.4272 373.608 65.519 373.504 65.5907C373.399 65.6623 373.281 65.7124 373.157 65.7379C373.033 65.7633 372.905 65.7637 372.78 65.7391C373.281 65.6047 373.513 65.104 373.147 64.4446C372.903 64.029 372.563 63.6786 372.154 63.4234C371.746 63.1682 371.282 63.0157 370.802 62.9791C370.191 62.9547 369.788 63.2355 369.727 63.6263Z" fill="black"/>
<path d="M371.511 42.5969C370.833 42.8599 370.079 42.8474 369.411 42.5622C368.742 42.277 368.212 41.7416 367.933 41.0704C367.639 39.8492 368.739 38.4936 370.375 38.1028C372.011 37.712 373.611 38.3959 373.904 39.6416C374.198 40.8872 373.172 42.2061 371.511 42.5969Z" fill="#09A8EF"/>
<path opacity="0.15" d="M371.511 42.5969C370.833 42.8599 370.079 42.8474 369.411 42.5622C368.742 42.277 368.212 41.7416 367.933 41.0704C367.639 39.8492 368.739 38.4936 370.375 38.1028C372.011 37.712 373.611 38.3959 373.904 39.6416C374.198 40.8872 373.172 42.2061 371.511 42.5969Z" fill="black"/>
<path opacity="0.15" d="M372.817 39.1166C373.501 39.544 373.111 40.8507 371.596 41.3026C371.124 41.505 370.602 41.5642 370.096 41.4731C369.591 41.3819 369.123 41.1443 368.751 40.7897C368.622 40.566 368.587 40.3005 368.653 40.0511C368.72 39.8017 368.882 39.5886 369.105 39.4585C368.812 39.8982 368.958 40.4355 369.667 40.6797C370.122 40.8366 370.608 40.8818 371.084 40.8117C371.56 40.7415 372.012 40.5581 372.402 40.2767C372.878 39.9226 373.013 39.4463 372.817 39.1166Z" fill="black"/>
<path d="M381.733 60.3902C382.111 60.2669 382.516 60.2516 382.902 60.3458C383.288 60.4401 383.64 60.6401 383.919 60.9236C384.198 61.2071 384.392 61.5626 384.48 61.9504C384.567 62.3381 384.545 62.7427 384.416 63.1185C384.286 63.4944 384.054 63.8266 383.746 64.0779C383.438 64.3293 383.066 64.4897 382.672 64.5412C382.278 64.5927 381.877 64.5332 381.515 64.3695C381.153 64.2057 380.843 63.9442 380.621 63.6142C380.35 63.038 380.314 62.3784 380.521 61.7761C380.729 61.1738 381.164 60.6765 381.733 60.3902Z" fill="#09A8EF"/>
<path opacity="0.15" d="M381.733 60.3902C382.111 60.2669 382.516 60.2516 382.902 60.3458C383.288 60.4401 383.64 60.6401 383.919 60.9236C384.198 61.2071 384.392 61.5626 384.48 61.9504C384.567 62.3381 384.545 62.7427 384.416 63.1185C384.286 63.4944 384.054 63.8266 383.746 64.0779C383.438 64.3293 383.066 64.4897 382.672 64.5412C382.278 64.5927 381.877 64.5332 381.515 64.3695C381.153 64.2057 380.843 63.9442 380.621 63.6142C380.35 63.038 380.314 62.3784 380.521 61.7761C380.729 61.1738 381.164 60.6765 381.733 60.3902Z" fill="black"/>
<path opacity="0.15" d="M381.744 63.6264C381.048 63.4921 380.963 62.2953 382.074 61.4404C382.406 61.1312 382.819 60.924 383.265 60.8439C383.712 60.7637 384.171 60.814 384.59 60.9886C384.68 61.0596 384.755 61.1482 384.81 61.2491C384.864 61.3501 384.898 61.4611 384.908 61.5755C384.919 61.6898 384.905 61.8051 384.87 61.9142C384.834 62.0233 384.776 62.1239 384.7 62.2098C384.81 61.758 384.529 61.3672 383.857 61.355C383.429 61.3705 383.01 61.4897 382.638 61.7024C382.266 61.9151 381.951 62.2149 381.72 62.5762C381.439 62.9792 381.476 63.4188 381.744 63.6264Z" fill="black"/>
<path d="M387.619 50.9866C386.324 49.0204 386.471 46.639 387.936 45.6621C389.402 44.6851 391.673 45.4789 392.968 47.4451C394.262 49.4112 394.128 51.7926 392.65 52.7696C391.173 53.7466 388.913 52.9406 387.619 50.9866Z" fill="#09A8EF"/>
<path opacity="0.15" d="M387.619 50.9866C386.324 49.0204 386.471 46.639 387.936 45.6621C389.402 44.6851 391.673 45.4789 392.968 47.4451C394.262 49.4112 394.128 51.7926 392.65 52.7696C391.173 53.7466 388.913 52.9406 387.619 50.9866Z" fill="black"/>
<path opacity="0.15" d="M392.76 51.0113C392.552 52.0982 390.659 52.2325 389.34 50.4739C388.302 49.0939 388.046 47.3109 388.669 46.5171C388.782 46.381 388.92 46.2688 389.077 46.187C389.234 46.1052 389.406 46.0554 389.582 46.0407C389.758 46.0259 389.935 46.0464 390.104 46.1009C390.272 46.1555 390.427 46.243 390.561 46.3584C389.853 46.1874 389.23 46.627 389.218 47.6651C389.221 48.3318 389.387 48.9877 389.702 49.5754C390.017 50.163 390.472 50.6644 391.026 51.0357C391.746 51.4875 392.43 51.4387 392.76 51.0113Z" fill="black"/>
<path d="M364.891 66.1787C365.057 66.4713 365.138 66.8043 365.125 67.1403C365.112 67.4764 365.006 67.8022 364.818 68.081C364.63 68.3599 364.367 68.5807 364.061 68.7188C363.754 68.8568 363.415 68.9065 363.082 68.8624C362.748 68.8182 362.434 68.6819 362.174 68.4687C361.913 68.2556 361.718 67.9741 361.609 67.656C361.5 67.3378 361.482 66.9955 361.557 66.6677C361.632 66.3398 361.797 66.0394 362.033 65.8002C362.466 65.481 363.006 65.342 363.539 65.4126C364.072 65.4833 364.556 65.7579 364.891 66.1787Z" fill="#09A8EF"/>
<path opacity="0.15" d="M364.891 66.1787C365.057 66.4713 365.138 66.8043 365.125 67.1403C365.112 67.4764 365.006 67.8022 364.818 68.081C364.63 68.3599 364.367 68.5807 364.061 68.7188C363.754 68.8568 363.415 68.9065 363.082 68.8624C362.748 68.8182 362.434 68.6819 362.174 68.4687C361.913 68.2556 361.718 67.9741 361.609 67.656C361.5 67.3378 361.482 66.9955 361.557 66.6677C361.632 66.3398 361.797 66.0394 362.033 65.8002C362.466 65.481 363.006 65.342 363.539 65.4126C364.072 65.4833 364.556 65.7579 364.891 66.1787Z" fill="black"/>
<path opacity="0.15" d="M362.168 66.7407C362.168 66.1423 363.145 65.8736 364.036 66.6308C364.35 66.8531 364.593 67.1622 364.734 67.52C364.874 67.8779 364.908 68.2691 364.83 68.6458C364.787 68.7305 364.726 68.8055 364.653 68.8663C364.58 68.9272 364.495 68.9726 364.404 69C364.313 69.0274 364.217 69.0361 364.122 69.0256C364.028 69.0151 363.936 68.9856 363.853 68.9389C364.244 68.9389 364.525 68.6458 364.415 68.0963C364.34 67.736 364.175 67.4006 363.936 67.1209C363.697 66.8413 363.391 66.6265 363.047 66.4965C362.895 66.427 362.724 66.4134 362.563 66.4581C362.402 66.5028 362.262 66.6029 362.168 66.7407Z" fill="black"/>
<path d="M375.15 69.9158C376.872 70.0623 378.179 71.2347 378.057 72.5292C377.934 73.8237 376.457 74.7518 374.735 74.6053C373.013 74.4587 371.718 73.2741 371.828 71.9796C371.938 70.6851 373.428 69.757 375.15 69.9158Z" fill="#09A8EF"/>
<path opacity="0.15" d="M375.15 69.9158C376.872 70.0623 378.179 71.2347 378.057 72.5292C377.934 73.8237 376.457 74.7518 374.735 74.6053C373.013 74.4587 371.718 73.2741 371.828 71.9796C371.938 70.6851 373.428 69.757 375.15 69.9158Z" fill="black"/>
<path opacity="0.15" d="M372.817 72.8466C372.292 72.2238 373.085 71.0881 374.685 71.1369C375.906 71.1369 377.128 71.833 377.274 72.5535C377.308 72.6853 377.315 72.8226 377.293 72.957C377.272 73.0914 377.223 73.22 377.15 73.3346C377.076 73.4492 376.98 73.5475 376.867 73.6232C376.754 73.6989 376.627 73.7505 376.493 73.7748C376.92 73.445 376.944 72.8833 376.358 72.407C375.972 72.1042 375.517 71.9004 375.034 71.8131C374.551 71.7259 374.054 71.7578 373.586 71.9063C372.976 72.0528 372.695 72.468 372.817 72.8466Z" fill="black"/>
<path d="M384.774 68.9389C385.09 68.6137 385.518 68.4203 385.971 68.3976C386.424 68.375 386.869 68.5247 387.216 68.8168C387.395 69.2306 387.435 69.6911 387.33 70.1296C387.226 70.5681 386.982 70.9609 386.636 71.2495C386.29 71.5381 385.859 71.7069 385.409 71.7306C384.959 71.7544 384.513 71.6319 384.138 71.3814C383.905 70.9718 383.84 70.4872 383.959 70.0309C384.078 69.5746 384.37 69.1828 384.774 68.9389Z" fill="#09A8EF"/>
<path opacity="0.15" d="M384.774 68.9389C385.09 68.6137 385.518 68.4203 385.971 68.3976C386.424 68.375 386.869 68.5247 387.216 68.8168C387.395 69.2306 387.435 69.6911 387.33 70.1296C387.226 70.5681 386.982 70.9609 386.636 71.2495C386.29 71.5381 385.859 71.7069 385.409 71.7306C384.959 71.7544 384.513 71.6319 384.138 71.3814C383.905 70.9718 383.84 70.4872 383.959 70.0309C384.078 69.5746 384.37 69.1828 384.774 68.9389Z" fill="black"/>
<path opacity="0.15" d="M385.03 71.3814C384.505 71.3814 384.358 70.4532 385.103 69.7571C385.323 69.5026 385.612 69.3175 385.935 69.2242C386.258 69.131 386.601 69.1337 386.923 69.232C387.062 69.3262 387.158 69.4716 387.19 69.6364C387.222 69.8012 387.188 69.9719 387.094 70.1113C387.094 69.7694 386.899 69.5007 386.41 69.5495C386.099 69.5866 385.801 69.6996 385.544 69.8784C385.286 70.0572 385.076 70.2966 384.932 70.5754C384.749 70.8685 384.81 71.186 385.03 71.3814Z" fill="black"/>
<path d="M381.158 41.4367C380.917 41.4304 380.681 41.3685 380.468 41.2559C380.255 41.1433 380.071 40.9831 379.93 40.7877C379.79 40.5922 379.696 40.367 379.657 40.1294C379.617 39.8918 379.633 39.6483 379.704 39.4179C379.774 39.1876 379.896 38.9766 380.062 38.8014C380.227 38.6262 380.43 38.4916 380.656 38.408C380.882 38.3245 381.124 38.2942 381.364 38.3196C381.603 38.3451 381.834 38.4255 382.037 38.5546C383.087 38.8721 383.759 39.7758 383.515 40.5819C383.309 41.0015 382.948 41.325 382.508 41.4844C382.069 41.6438 381.585 41.6267 381.158 41.4367Z" fill="#09A8EF"/>
<path opacity="0.15" d="M381.158 41.4367C380.917 41.4304 380.681 41.3685 380.468 41.2559C380.255 41.1433 380.071 40.9831 379.93 40.7877C379.79 40.5922 379.696 40.367 379.657 40.1294C379.617 39.8918 379.633 39.6483 379.704 39.4179C379.774 39.1876 379.896 38.9766 380.062 38.8014C380.227 38.6262 380.43 38.4916 380.656 38.408C380.882 38.3245 381.124 38.2942 381.364 38.3196C381.603 38.3451 381.834 38.4255 382.037 38.5546C383.087 38.8721 383.759 39.7758 383.515 40.5819C383.309 41.0015 382.948 41.325 382.508 41.4844C382.069 41.6438 381.585 41.6267 381.158 41.4367Z" fill="black"/>
<path opacity="0.15" d="M383.026 39.9103C383.283 40.3744 382.623 40.9728 381.622 40.7408C380.84 40.5576 380.205 39.9836 380.193 39.5195C380.193 39.4357 380.21 39.3526 380.243 39.2754C380.276 39.1982 380.324 39.1284 380.384 39.0703C380.445 39.0121 380.516 38.9668 380.595 38.9369C380.673 38.9071 380.757 38.8934 380.84 38.8967C380.523 39.0433 380.437 39.3852 380.743 39.776C380.947 40.0141 381.206 40.1994 381.497 40.3163C381.788 40.4332 382.104 40.4783 382.416 40.4477C382.807 40.3866 383.039 40.1546 383.026 39.9103Z" fill="black"/>
<path d="M369.154 53.7223C369.237 54.1829 369.139 54.658 368.879 55.0475C368.619 55.437 368.219 55.7106 367.761 55.8106C366.919 55.8106 366.198 54.9924 366.137 53.8933C366.063 53.44 366.165 52.9756 366.421 52.5946C366.678 52.2135 367.069 51.9443 367.517 51.8416C368.347 51.7562 369.068 52.6232 369.154 53.7223Z" fill="#09A8EF"/>
<path opacity="0.15" d="M369.154 53.7223C369.237 54.1829 369.139 54.658 368.879 55.0475C368.619 55.437 368.219 55.7106 367.761 55.8106C366.919 55.8106 366.198 54.9924 366.137 53.8933C366.063 53.44 366.165 52.9756 366.421 52.5946C366.678 52.2135 367.069 51.9443 367.517 51.8416C368.347 51.7562 369.068 52.6232 369.154 53.7223Z" fill="black"/>
<path opacity="0.15" d="M367.041 52.4889C367.395 52.0981 368.189 52.4889 368.262 53.5147C368.332 53.8432 368.306 54.185 368.187 54.4991C368.068 54.8132 367.861 55.0862 367.59 55.2855C367.512 55.3142 367.428 55.3269 367.345 55.3227C367.262 55.3185 367.18 55.2976 367.105 55.2611C367.029 55.2246 366.962 55.1734 366.907 55.1105C366.852 55.0475 366.81 54.9741 366.784 54.8947C367.029 55.139 367.395 55.1023 367.639 54.6871C367.798 54.417 367.888 54.1118 367.901 53.7987C367.914 53.4855 367.849 53.1741 367.713 52.8919C367.566 52.5377 367.285 52.3912 367.041 52.4889Z" fill="black"/>
<path d="M382.343 52.1957C382.251 51.924 382.236 51.6323 382.299 51.3525C382.362 51.0728 382.501 50.8157 382.7 50.6095C382.899 50.4033 383.152 50.2559 383.429 50.1834C383.706 50.111 383.998 50.1162 384.273 50.1986C384.548 50.281 384.795 50.4374 384.986 50.6506C385.178 50.8639 385.307 51.1258 385.36 51.4076C385.413 51.6895 385.388 51.9804 385.286 52.2487C385.185 52.5169 385.011 52.7521 384.785 52.9285C384.577 53.0418 384.348 53.1127 384.113 53.1372C383.877 53.1617 383.639 53.1392 383.411 53.0711C383.184 53.003 382.973 52.8905 382.79 52.7403C382.606 52.5901 382.454 52.405 382.343 52.1957Z" fill="#09A8EF"/>
<path opacity="0.15" d="M382.343 52.1957C382.251 51.924 382.236 51.6323 382.299 51.3525C382.362 51.0728 382.501 50.8157 382.7 50.6095C382.899 50.4033 383.152 50.2559 383.429 50.1834C383.706 50.111 383.998 50.1162 384.273 50.1986C384.548 50.281 384.795 50.4374 384.986 50.6506C385.178 50.8639 385.307 51.1258 385.36 51.4076C385.413 51.6895 385.388 51.9804 385.286 52.2487C385.185 52.5169 385.011 52.7521 384.785 52.9285C384.577 53.0418 384.348 53.1127 384.113 53.1372C383.877 53.1617 383.639 53.1392 383.411 53.0711C383.184 53.003 382.973 52.8905 382.79 52.7403C382.606 52.5901 382.454 52.405 382.343 52.1957Z" fill="black"/>
<path opacity="0.15" d="M384.761 52.1104C384.675 52.6233 383.796 52.7088 383.136 51.9272C382.902 51.6891 382.74 51.3896 382.669 51.0633C382.597 50.737 382.62 50.3972 382.733 50.0831C382.784 50.0164 382.847 49.9604 382.919 49.9181C382.991 49.8759 383.071 49.8483 383.154 49.8369C383.236 49.8256 383.321 49.8307 383.402 49.852C383.482 49.8733 383.558 49.9103 383.625 49.961C383.283 49.961 383.002 50.1198 383.014 50.6083C383.033 50.9224 383.127 51.2275 383.288 51.4975C383.45 51.7675 383.674 51.9945 383.942 52.1592C384.061 52.2515 384.21 52.2974 384.361 52.2884C384.511 52.2794 384.653 52.2161 384.761 52.1104Z" fill="black"/>
<path d="M363.365 46.1141C363.135 46.532 362.75 46.8429 362.293 46.9799C361.837 47.117 361.344 47.0692 360.922 46.8469C360.519 46.6905 360.175 46.4121 359.937 46.0505C359.7 45.6888 359.581 45.2621 359.598 44.8298C359.615 44.3976 359.767 43.9814 360.032 43.6395C360.297 43.2976 360.662 43.0469 361.076 42.9226C361.49 42.7983 361.933 42.8066 362.343 42.9462C362.752 43.0858 363.108 43.3498 363.36 43.7013C363.612 44.0529 363.748 44.4744 363.749 44.907C363.75 45.3395 363.615 45.7616 363.365 46.1141Z" fill="#09A8EF"/>
<path opacity="0.15" d="M363.365 46.1141C363.135 46.532 362.75 46.8429 362.293 46.9799C361.837 47.117 361.344 47.0692 360.922 46.8469C360.519 46.6905 360.175 46.4121 359.937 46.0505C359.7 45.6888 359.581 45.2621 359.598 44.8298C359.615 44.3976 359.767 43.9814 360.032 43.6395C360.297 43.2976 360.662 43.0469 361.076 42.9226C361.49 42.7983 361.933 42.8066 362.343 42.9462C362.752 43.0858 363.108 43.3498 363.36 43.7013C363.612 44.0529 363.748 44.4744 363.749 44.907C363.75 45.3395 363.615 45.7616 363.365 46.1141Z" fill="black"/>
<path opacity="0.15" d="M362.523 43.8425C363.048 43.757 363.402 44.5752 362.852 45.4423C362.413 46.1262 361.631 46.5292 361.216 46.3826C361.06 46.3248 360.932 46.2079 360.862 46.0571C360.791 45.9063 360.782 45.7338 360.837 45.5766C360.837 45.9186 361.179 46.114 361.643 45.9552C361.941 45.8438 362.207 45.6625 362.42 45.4266C362.632 45.1907 362.785 44.907 362.865 44.5996C362.901 44.2088 362.767 43.9157 362.523 43.8425Z" fill="black"/>
<path d="M378.373 58.2286C377.876 58.6073 377.276 58.8251 376.651 58.8529C376.027 58.8807 375.41 58.717 374.881 58.3839C374.352 58.0507 373.938 57.564 373.694 56.989C373.45 56.4139 373.387 55.7779 373.514 55.1662C373.642 54.5545 373.953 53.9963 374.406 53.5664C374.859 53.1365 375.433 52.8554 376.051 52.7607C376.669 52.6661 377.3 52.7624 377.862 53.0369C378.423 53.3113 378.887 53.7507 379.192 54.2962C379.6 54.9275 379.743 55.6943 379.59 56.4304C379.437 57.1665 379 57.8125 378.373 58.2286Z" fill="#09A8EF"/>
<path opacity="0.15" d="M378.373 58.2286C377.876 58.6073 377.276 58.8251 376.651 58.8529C376.027 58.8807 375.41 58.717 374.881 58.3839C374.352 58.0507 373.938 57.564 373.694 56.989C373.45 56.4139 373.387 55.7779 373.514 55.1662C373.642 54.5545 373.953 53.9963 374.406 53.5664C374.859 53.1365 375.433 52.8554 376.051 52.7607C376.669 52.6661 377.3 52.7624 377.862 53.0369C378.423 53.3113 378.887 53.7507 379.192 54.2962C379.6 54.9275 379.743 55.6943 379.59 56.4304C379.437 57.1665 379 57.8125 378.373 58.2286Z" fill="black"/>
<path opacity="0.15" d="M376.652 53.4658C375.7 53.4658 374.833 54.4428 375.114 55.9083C375.394 57.3738 377.324 58.424 378.264 57.4592C377.778 57.4241 377.309 57.2595 376.908 56.9825C376.506 56.7055 376.186 56.3262 375.981 55.8838C375.859 55.6828 375.779 55.459 375.747 55.2261C375.715 54.9932 375.731 54.7561 375.794 54.5296C375.856 54.303 375.965 54.0918 376.113 53.9088C376.261 53.7259 376.444 53.5751 376.652 53.4658Z" fill="black"/>
<path d="M265.349 171.779C265.098 171.791 264.848 171.725 264.636 171.591C264.423 171.456 264.257 171.259 264.161 171.026C264.065 170.793 264.043 170.537 264.098 170.291C264.153 170.045 264.283 169.823 264.47 169.654L265.801 168.335C265.916 168.22 266.053 168.13 266.204 168.068C266.354 168.006 266.516 167.975 266.678 167.975C266.841 167.976 267.002 168.008 267.152 168.071C267.302 168.134 267.439 168.226 267.553 168.341C267.668 168.457 267.759 168.593 267.821 168.744C267.882 168.895 267.914 169.056 267.913 169.219C267.913 169.381 267.88 169.542 267.817 169.692C267.754 169.843 267.663 169.979 267.547 170.094L266.228 171.412C266.114 171.529 265.977 171.622 265.826 171.685C265.675 171.748 265.513 171.78 265.349 171.779Z" fill="#E0E0E0"/>
<path d="M271.675 165.416C271.424 165.429 271.175 165.363 270.962 165.228C270.749 165.093 270.584 164.896 270.487 164.663C270.391 164.431 270.369 164.174 270.424 163.929C270.48 163.683 270.609 163.46 270.796 163.291L273.312 160.849C273.545 160.616 273.861 160.485 274.191 160.485C274.521 160.485 274.837 160.616 275.07 160.849C275.304 161.082 275.435 161.398 275.435 161.728C275.435 162.058 275.304 162.374 275.07 162.608L272.555 165.05C272.44 165.167 272.303 165.259 272.152 165.322C272.001 165.385 271.839 165.417 271.675 165.416ZM279.21 157.894C278.96 157.903 278.713 157.835 278.502 157.7C278.291 157.564 278.128 157.367 278.033 157.135C277.938 156.903 277.917 156.647 277.973 156.403C278.028 156.158 278.158 155.937 278.343 155.769L280.847 153.326C281.08 153.093 281.396 152.962 281.726 152.962C282.056 152.962 282.372 153.093 282.605 153.326C282.839 153.559 282.97 153.876 282.97 154.205C282.97 154.535 282.839 154.852 282.605 155.085L280.09 157.6C279.972 157.711 279.834 157.797 279.683 157.853C279.532 157.91 279.371 157.936 279.21 157.93V157.894ZM286.757 150.383C286.506 150.395 286.257 150.33 286.044 150.195C285.832 150.06 285.666 149.863 285.57 149.63C285.473 149.398 285.451 149.141 285.507 148.895C285.562 148.65 285.692 148.427 285.878 148.258L288.394 145.816C288.509 145.701 288.646 145.61 288.797 145.548C288.947 145.487 289.109 145.455 289.271 145.456C289.434 145.456 289.595 145.489 289.745 145.552C289.895 145.614 290.032 145.706 290.146 145.822C290.261 145.937 290.352 146.074 290.414 146.225C290.475 146.375 290.507 146.536 290.506 146.699C290.506 146.862 290.473 147.023 290.41 147.173C290.348 147.323 290.256 147.46 290.14 147.574L287.637 150.017C287.525 150.14 287.39 150.24 287.239 150.309C287.088 150.378 286.924 150.416 286.757 150.42V150.383ZM294.292 142.86C294.041 142.872 293.792 142.807 293.579 142.672C293.367 142.537 293.201 142.34 293.105 142.107C293.008 141.875 292.986 141.618 293.042 141.372C293.097 141.127 293.227 140.904 293.413 140.735L295.929 138.293C296.164 138.06 296.482 137.929 296.813 137.93C297.143 137.932 297.46 138.064 297.694 138.299C297.927 138.534 298.057 138.852 298.056 139.183C298.055 139.513 297.922 139.83 297.688 140.064L295.172 142.567C295.054 142.677 294.916 142.763 294.765 142.82C294.614 142.876 294.454 142.903 294.292 142.897V142.86ZM301.827 135.35C301.577 135.359 301.33 135.292 301.119 135.156C300.909 135.02 300.745 134.823 300.65 134.591C300.555 134.359 300.534 134.103 300.59 133.859C300.645 133.614 300.775 133.393 300.96 133.225L303.403 130.782C303.636 130.549 303.952 130.418 304.282 130.418C304.612 130.418 304.928 130.549 305.161 130.782C305.395 131.015 305.526 131.332 305.526 131.662C305.526 131.991 305.395 132.308 305.161 132.541L302.646 135.044C302.425 135.257 302.133 135.379 301.827 135.386V135.35ZM309.375 127.839C309.123 127.851 308.874 127.786 308.661 127.651C308.449 127.516 308.283 127.319 308.187 127.086C308.09 126.854 308.068 126.597 308.124 126.351C308.179 126.106 308.309 125.883 308.495 125.714L311.011 123.198C311.246 122.965 311.564 122.835 311.895 122.836C312.226 122.837 312.543 122.97 312.776 123.205C313.009 123.439 313.139 123.757 313.138 124.088C313.137 124.419 313.004 124.736 312.77 124.969L310.254 127.558C310.135 127.666 309.997 127.75 309.846 127.804C309.695 127.859 309.535 127.883 309.375 127.876V127.839ZM316.91 120.316C316.658 120.329 316.409 120.263 316.196 120.128C315.984 119.993 315.818 119.796 315.722 119.563C315.625 119.331 315.603 119.074 315.659 118.829C315.714 118.583 315.844 118.36 316.03 118.191L318.546 115.688C318.779 115.455 319.096 115.324 319.425 115.324C319.755 115.324 320.071 115.455 320.305 115.688C320.538 115.921 320.669 116.237 320.669 116.567C320.669 116.897 320.538 117.213 320.305 117.446L317.789 119.95C317.678 120.073 317.542 120.173 317.391 120.242C317.24 120.312 317.076 120.349 316.91 120.353V120.316ZM324.457 112.903C324.205 112.916 323.956 112.85 323.744 112.715C323.531 112.58 323.365 112.383 323.269 112.151C323.173 111.918 323.151 111.661 323.206 111.416C323.261 111.17 323.391 110.948 323.578 110.779L326.081 108.336C326.314 108.103 326.631 107.972 326.96 107.972C327.29 107.972 327.606 108.103 327.84 108.336C328.073 108.569 328.204 108.886 328.204 109.215C328.204 109.545 328.073 109.861 327.84 110.095L325.324 112.598C325.086 112.809 324.775 112.919 324.457 112.903ZM331.992 105.381C331.74 105.393 331.491 105.327 331.279 105.192C331.066 105.058 330.9 104.86 330.804 104.628C330.708 104.395 330.686 104.139 330.741 103.893C330.796 103.647 330.926 103.425 331.113 103.256L333.628 100.813C333.742 100.695 333.879 100.601 334.03 100.537C334.181 100.473 334.343 100.44 334.508 100.44C334.672 100.44 334.834 100.473 334.985 100.537C335.136 100.601 335.273 100.695 335.387 100.813C335.505 100.927 335.599 101.064 335.663 101.215C335.727 101.366 335.761 101.528 335.761 101.693C335.761 101.857 335.727 102.019 335.663 102.17C335.599 102.321 335.505 102.458 335.387 102.572L332.871 105.014C332.63 105.228 332.314 105.338 331.992 105.32V105.381Z" fill="#E0E0E0"/>
<path d="M339.526 97.8088C339.274 97.8211 339.025 97.7553 338.813 97.6206C338.6 97.4858 338.434 97.2886 338.338 97.056C338.242 96.8233 338.22 96.5667 338.275 96.321C338.33 96.0754 338.46 95.8529 338.647 95.6839L339.965 94.3649C340.199 94.1317 340.515 94.0007 340.845 94.0007C341.175 94.0007 341.491 94.1317 341.724 94.3649C341.957 94.5981 342.088 94.9144 342.088 95.2442C342.088 95.574 341.957 95.8903 341.724 96.1235L340.405 97.4424C340.291 97.5593 340.154 97.652 340.003 97.7149C339.852 97.7778 339.689 97.8098 339.526 97.8088Z" fill="#E0E0E0"/>
<path d="M375.541 105.124C373.17 105.123 370.803 104.951 368.457 104.611C355.942 102.783 344.624 96.172 336.884 86.1689C329.144 76.1658 325.585 63.5505 326.957 50.9771C328.328 38.4037 334.523 26.8524 344.238 18.7536C353.953 10.6547 366.431 6.63971 379.046 7.5532C391.661 8.4667 403.43 14.2375 411.877 23.6515C420.323 33.0655 424.79 45.3888 424.335 58.0286C423.881 70.6685 418.542 82.6395 409.442 91.4231C400.341 100.207 388.189 105.118 375.541 105.124ZM375.382 10.6863C365.209 10.7124 355.343 14.1703 347.38 20.5005C339.417 26.8307 333.823 35.6627 331.503 45.5673C329.183 55.4719 330.273 65.8695 334.597 75.0775C338.921 84.2855 346.225 91.765 355.328 96.3058C364.431 100.847 374.8 102.183 384.757 100.098C394.714 98.0138 403.676 92.6305 410.193 84.8196C416.71 77.0086 420.401 67.2272 420.668 57.058C420.935 46.8889 417.763 36.9272 411.665 28.7849C407.452 23.1426 401.975 18.5662 395.674 15.4231C389.373 12.28 382.423 10.6577 375.382 10.6863Z" fill="#455A64"/>
<path d="M343.482 21.6245L340.619 24.302L404.863 93.0028L407.727 90.3253L343.482 21.6245Z" fill="#455A64"/>
</svg>
