<svg width="464" height="477" viewBox="0 0 464 477" fill="none" xmlns="http://www.w3.org/2000/svg">
<path opacity="0.7" d="M215.327 367.967C215.327 367.967 162.963 380.229 138.791 397.746C114.619 415.264 120.47 436.81 156.102 452.061C191.734 467.311 254.204 463.622 308.554 472.496C362.903 481.371 420.592 477.822 441.77 455.638C462.947 433.454 424.061 426.334 413.335 401.547C402.608 376.76 339.422 341.638 215.327 367.967Z" fill="#DBF2FD"/>
<path d="M314.561 80.7469C314.434 78.9842 313.595 77.3705 313.389 75.6575C312.905 73.1872 312.212 70.7447 311.316 68.3463C310.683 66.2236 309.432 64.2127 308.894 62.0777C308.319 60.2218 307.605 58.3939 306.757 56.6035C305.966 54.6547 305.08 52.7306 304.209 50.8066C303.054 48.2371 301.883 45.6552 300.695 43.0857C299.8 41.3683 299.018 39.6157 298.353 37.835C297.609 35.5634 296.77 33.3166 295.884 31.0575C294.997 28.7983 294.301 26.5515 293.7 24.2799C292.718 20.916 292.117 17.49 291.325 14.0888C290.697 10.8358 289.702 7.63301 288.35 4.51835C287.43 3.11422 286.891 1.57573 286.767 0L285.184 0C285.279 0.682718 284.773 1.05511 284.155 1.46474C281.573 2.96913 279.1 4.58534 276.748 6.30583C275.529 7.27405 274.295 8.25468 272.965 9.136C269.162 11.8324 265.691 14.804 262.598 18.0113C258.524 21.878 254.975 26.0673 252.009 30.5113C250.2 32.9618 248.568 35.4897 247.119 38.0832C246.454 39.7514 245.656 41.3849 244.729 42.974C243.529 45.0643 242.616 47.2489 242.006 49.4908C241.243 51.5321 240.62 53.6039 240.138 55.6974C239.569 58.18 238.904 60.6626 238.556 63.2445C238.097 66.025 237.669 68.8179 237.495 71.6233C237.239 74.1413 237.292 76.6728 237.654 79.1828C238.223 82.2985 238.287 85.4514 238.856 88.5671C239.173 90.218 239.569 91.869 239.838 93.5323C240.371 95.9219 241.176 98.2691 242.244 100.546C243.13 102.718 243.969 104.915 244.855 107.087C245.9 109.657 247.245 112.127 248.29 114.697C249.129 116.782 250.173 118.805 251.107 120.903C251.788 122.43 252.484 123.957 253.117 125.496C253.861 127.296 255.191 129.083 255.412 130.834C255.713 133.093 256.837 135.091 257.391 137.239C258.452 140.914 259.14 144.65 259.448 148.41C259.844 156.553 258.752 164.709 260.066 172.864C260.773 177.119 262.249 181.274 264.45 185.203C266.033 188.083 268.217 190.727 269.372 193.793C270.002 194.699 270.491 195.662 270.829 196.66V196.759C270.829 197.256 270.829 197.765 270.829 198.261L272.316 198.46C275.892 198.173 279.489 198.09 283.079 198.212C287.622 198.212 292.148 198.212 296.691 198.298H298.764H298.891C298.967 198.077 299.09 197.867 299.255 197.678L300.838 194.959C300.782 194.609 300.782 194.255 300.838 193.904C301.681 190.324 301.925 186.673 301.566 183.043C301.499 181.762 301.335 180.485 301.075 179.22C299.904 175.036 299.303 170.779 298.305 166.571C297.181 162.055 296.734 157.451 296.976 152.854C297.172 148.889 298.161 144.973 299.904 141.248C302.247 136.283 304.779 131.504 307.454 126.712C309.36 123.292 310.973 119.775 312.281 116.186C313.354 113.123 314.179 110.009 314.751 106.864C315.397 102.796 315.704 98.6992 315.669 94.5999C315.763 89.9574 314.893 85.3645 314.561 80.7469ZM269.863 59.5826C269.087 61.7673 268.723 64.0141 267.837 66.174C267.141 67.8746 266.112 68.2718 264.165 67.3036C261.121 65.7808 258.968 63.3759 258.177 60.6133C257.385 57.8506 258.019 54.9546 259.939 52.5569C261.944 50.0143 263.334 47.2032 264.038 44.2649C264.316 43.1831 265.046 42.2048 266.112 41.4844C267.821 40.2431 269.578 40.7024 270.781 42.5643C272.083 44.4144 272.636 46.5318 272.364 48.6343C272.554 52.6934 271.066 56.1318 269.863 59.5826ZM292.022 120.047C290.861 122.14 288.868 123.882 286.34 125.012C285.58 125.322 284.757 125.819 283.918 125.322C283.079 124.826 283.696 124.081 283.918 123.721C285.501 121.462 285.802 118.892 286.688 116.472C287.088 115.227 287.258 113.944 287.194 112.661C287.194 109.942 288.017 107.286 288.176 104.58C288.176 103.215 288.176 101.526 287.368 100.769C285.991 99.5278 285.58 97.9141 284.124 96.7349C282.724 95.3515 281.832 93.6949 281.544 91.9435C281.254 91.2924 280.855 90.6745 280.357 90.1063C279.375 88.5299 279.929 87.7727 282.13 87.8099C287.558 87.9216 289.474 89.0512 291.879 93.0358C292.56 94.1406 292.054 95.3446 292.497 96.5239C293.272 98.5472 294.554 100.409 295.409 102.408C296.058 103.91 295.678 105.325 296.042 106.901C295.905 111.469 294.501 115.959 291.927 120.059L292.022 120.047Z" fill="#EFF5FE"/>
<path d="M454.996 257.795C454.557 258.11 454.095 258.393 453.614 258.641C452.86 259.033 452.043 259.378 451.305 259.691C452.568 259.124 453.8 258.491 454.996 257.795Z" fill="#88D4FF"/>
<path d="M458.971 254.896L458.687 255.07L458.971 254.896Z" fill="#88D4FF"/>
<path d="M372.22 286.611C369.378 287.607 366.464 288.387 363.503 288.946L367.446 287.927C368.997 287.354 370.594 286.913 372.22 286.611V286.611Z" fill="#88D4FF"/>
<path d="M209.481 202.372H209.387H209.23H209.057C209.348 202.31 209.641 202.263 209.937 202.231L209.481 202.372Z" fill="#EFF5FE"/>
<path d="M226.788 164.654C226.353 163.925 225.697 163.268 224.864 162.725C224.359 162.345 223.984 162.044 224.18 161.609C224.864 160.17 223.756 158.954 223.218 157.683C222.517 155.998 221.343 154.403 220.675 152.719C219.322 149.373 217.219 146.138 216.388 142.68C215.98 140.918 215.491 139.077 215.312 137.371C214.788 132.919 214.592 128.451 214.725 123.985C215.002 118.866 214.073 113.757 214.334 108.637C214.334 108.381 214.562 107.979 213.764 107.934C213.34 109.34 213.177 110.846 212.59 112.151C211.396 115.442 209.888 118.676 208.075 121.833C207.113 123.283 207.048 125.012 205.352 126.294C205.215 126.444 205.105 126.605 205.026 126.774C203.27 129.189 201.698 131.665 200.316 134.192C199.105 136.529 198.747 139.033 199.272 141.487C199.787 143.639 200.893 145.706 202.532 147.577C205.26 150.624 206.933 154.058 207.423 157.616C207.912 160.694 207.048 163.717 206.983 166.774C206.983 166.774 206.983 166.852 206.983 166.896C205.825 169.428 205.108 172.05 204.277 174.637C202.928 178.435 202.379 182.345 202.647 186.249C202.901 188.446 203.541 190.615 204.554 192.707C205.956 195.686 207.716 198.597 209.444 201.631H209.607L210.797 203.427L209.167 203.65H209.64H210.047H210.715L211.987 205.423H212.166L214.481 205.111L215.687 204.933L222.403 204.063V202.222L222.631 200.984C222.593 200.866 222.593 200.745 222.631 200.627V200.627C222.655 200.564 222.694 200.504 222.745 200.449C223.227 199.536 223.486 198.575 223.511 197.604C224.587 193.99 225.793 190.387 226.771 186.751C227.646 183.432 228.217 180.079 228.483 176.712C228.934 172.656 228.36 168.577 226.788 164.654V164.654ZM216.616 184.397C216.421 184.66 216.14 184.889 215.795 185.066C215.451 185.243 215.051 185.364 214.628 185.419C214.204 185.474 213.768 185.461 213.353 185.383C212.937 185.304 212.554 185.162 212.231 184.966C211.622 184.579 211.141 184.106 210.821 183.581C210.5 183.056 210.348 182.49 210.373 181.921C210.096 178.887 211.661 176.076 212.199 173.154C212.329 172.541 212.395 171.922 212.394 171.302C212.394 170.042 213.356 169.584 215.1 169.607C216.844 169.629 218.23 170.298 218.246 171.403C218.246 172.964 218.246 174.526 218.246 176.076C218.165 176.968 218.165 177.862 218.246 178.753C218.401 180.698 217.84 182.639 216.616 184.397Z" fill="#EFF5FE"/>
<path d="M347.77 148.953C348.12 144.942 348.597 140.932 348.788 136.91C348.867 135.696 346.895 134.437 345.368 134.816C344.2 135.088 343.124 135.524 342.208 136.099C341.291 136.674 340.553 137.375 340.04 138.158C338.63 140.163 337.537 142.27 336.779 144.441C335.65 147.872 334.728 151.292 336.35 154.756C336.704 156.038 337.349 157.271 338.259 158.41C339.277 159.29 339.292 159.591 338.354 160.271C338.084 160.471 337.67 160.828 338.084 161.084C338.486 161.3 338.976 161.42 339.483 161.429C340.104 161.429 340.135 161.062 340.088 160.761C339.833 159.201 340.962 159.391 342.632 159.513C346.275 159.781 348.199 159.224 348.501 156.26C348.756 153.765 347.563 151.426 347.77 148.953ZM382.649 165.228C381.72 162.894 380.385 160.649 378.672 158.544C376.509 155.581 373.996 152.751 371.722 149.833C370.652 148.576 369.778 147.243 369.114 145.856C367.893 143.361 367.04 140.786 366.569 138.169C365.981 133.479 366.951 129.257 371.102 125.436C373.328 123.398 375.778 121.493 378.1 119.51C382.617 115.645 382.362 111.434 379.881 107.256C377.973 104.037 374.315 101.586 370.561 99.3693C365.437 96.4689 360.651 93.2877 356.247 89.8559C351.553 86.2124 347.623 82.1203 344.573 77.7024C343.587 76.1873 342.473 74.7057 341.599 73.1573C341.217 72.4778 340.756 71.2524 340.151 71.3861C339.07 71.6312 339.674 72.7117 339.722 73.4024C339.992 76.6775 340.66 79.9192 340.835 83.1943C340.978 85.5336 341.789 87.8396 341.599 90.2012C341.614 90.336 341.663 90.4679 341.742 90.5911C343.419 93.7827 344.364 97.1403 344.541 100.539C345.014 104.904 344.585 109.293 343.269 113.573C341.938 116.881 340.318 120.129 338.418 123.298C336.89 125.666 335.153 127.965 333.217 130.182C329.951 134.05 327.065 138.07 324.581 142.213C322.179 146.558 320.414 150.936 321.018 155.659C321.264 158.547 321.979 161.406 323.149 164.181C325.428 168.851 328.286 173.372 331.69 177.693C333.901 180.634 336.302 183.497 338.179 186.55C339.793 189.037 341.211 191.584 342.426 194.18C342.855 195.183 343.444 196.174 343.841 197.188L344.939 199.082L345.273 200.196V200.363L345.782 202.067C350.067 202.318 354.32 202.79 358.505 203.482C359.237 203.599 359.982 203.666 360.732 203.683V203.683C360.724 203.376 360.794 203.07 360.939 202.78C364.12 199.004 367.73 195.45 371.325 191.885C374.028 189.201 376.334 186.316 378.672 183.531C379.739 182.398 380.579 181.169 381.17 179.877C381.853 178.016 382.76 176.178 383.189 174.251C383.839 171.247 383.656 168.183 382.649 165.228V165.228Z" fill="#EFF5FE"/>
<path d="M296.278 199.269C296.111 199.404 295.986 199.584 295.917 199.786C295.978 199.58 296.105 199.398 296.278 199.269V199.269Z" fill="#09A8EF"/>
<path d="M296.812 199.003C296.618 199.057 296.437 199.148 296.278 199.27C296.429 199.135 296.613 199.043 296.812 199.003Z" fill="#09A8EF"/>
<path d="M345.927 203.312V203.516H345.55C340.068 202.622 334.555 201.714 329.105 200.977C327.723 200.789 326.341 200.601 324.958 200.444L320.403 199.959C319.791 199.88 319.163 199.818 318.55 199.771H318.189H318.079H317.655C313.618 199.363 309.581 199.065 305.545 198.83L304.257 198.736H304.115H303.613H303.518L302.246 198.642L298.854 198.376H298.948L302.278 198.642L303.55 198.736H303.644H304.147H304.288L305.576 198.83L308.717 199.065L312.581 199.348L317.702 199.739H318.126H318.236H318.597C319.21 199.739 319.838 199.849 320.451 199.927C322.021 200.068 323.482 200.225 325.006 200.397C331.979 201.071 338.953 202.199 345.927 203.312Z" fill="#88D4FF"/>
<path d="M298.791 198.125V198.141L298.65 198.125H298.791Z" fill="#09A8EF"/>
<path d="M270.911 195.994H270.895V196.12H270.911V195.994Z" fill="#EFF5FE"/>
<path d="M270.911 198.016H269.749H267.173H265.979H264.864C264.382 198.268 263.832 198.361 263.293 198.282C255.44 198.564 247.775 199.253 240.063 200.194C234.157 200.93 228.267 201.761 222.361 202.575V199.99L223.445 199.771L224.309 199.598C224.906 199.489 225.754 199.363 226.712 199.254L228.503 199.003L230.073 198.783L231.456 198.611C233.607 198.329 235.524 198.11 236.168 198.031H236.435C239.105 197.781 241.791 197.514 244.477 197.279C250.442 196.595 256.441 196.24 262.445 196.214H263.67L270.864 196.041C270.911 196.746 270.911 197.389 270.911 198.016Z" fill="#88D4FF"/>
<path d="M224.402 199.755L223.538 199.928L222.455 200.148L223.727 199.865H223.963L224.402 199.755Z" fill="#88D4FF"/>
<path d="M410.467 243.348C406.431 238.86 401.554 235.204 396.111 232.583C382.54 225.484 367.933 221.442 353.011 218.355C352.771 218.29 352.535 218.212 352.305 218.12L347.765 217.179C342.739 216.459 337.713 215.613 332.687 215.001C330.095 214.641 327.472 214.469 324.833 214.218C321.692 213.936 318.55 213.764 315.503 213.246C313.544 212.944 311.564 212.797 309.582 212.808C305.074 212.808 300.645 211.868 296.137 211.962C289.603 211.554 283.053 211.774 276.503 211.664L269.294 211.993C268.508 211.993 267.723 211.993 266.938 212.087L259.634 212.479C257.482 212.604 255.314 212.714 253.163 212.87C251.011 213.027 248.922 213.184 246.88 213.419C238.775 214.312 230.623 214.907 222.613 216.553H222.518C222.211 216.591 221.899 216.591 221.592 216.553C220.115 216.819 218.623 217.054 217.147 217.305C211.539 218.59 205.885 219.734 200.324 221.175L198.078 221.755C195.958 222.319 193.869 222.899 191.796 223.541L191.073 223.761C182.244 226.319 173.759 229.933 165.801 234.526C161.985 236.705 158.517 239.44 155.513 242.642C148.287 250.556 148.303 259.189 155.513 267.102C155.858 267.494 156.612 267.714 156.376 268.466H156.455C156.863 268.231 156.926 268.669 157.083 268.92C157.134 268.918 157.185 268.926 157.232 268.944C157.28 268.962 157.323 268.989 157.36 269.025C157.397 269.06 157.426 269.102 157.446 269.149C157.466 269.195 157.476 269.246 157.476 269.296C157.9 269.422 157.853 269.751 157.869 270.08C159.832 270.362 160.822 272.085 162.329 273.041C166.248 275.607 170.353 277.875 174.612 279.826C186.515 284.92 198.924 288.744 211.633 291.234C224.534 293.86 237.585 295.686 250.712 296.702C258.424 297.36 266.199 297.674 273.943 297.846C283.54 298.065 293.152 298.128 302.718 297.454C309.943 296.953 317.184 296.687 324.378 295.746C328.948 295.167 333.566 294.712 338.121 294.038C346.666 292.764 355.127 291.087 363.504 289.008L367.446 287.99C368.977 287.42 370.553 286.979 372.158 286.674C378.708 284.527 386.294 281.675 388.054 281.017H388.211L388.431 280.939L390.63 279.967C393.955 278.464 397.177 276.742 400.274 274.812C400.918 274.405 401.562 273.997 402.19 273.574C402.818 273.151 403.635 272.602 404.342 272.007C405.048 271.412 405.755 270.973 406.446 270.44C406.458 270.337 406.508 270.241 406.588 270.174L406.713 270.095C406.765 270.08 406.819 270.08 406.87 270.095V270.095V270.001L407.012 269.766C407.049 269.723 407.095 269.689 407.146 269.664C407.198 269.64 407.253 269.627 407.31 269.625C407.356 269.612 407.405 269.612 407.452 269.625H407.577C407.611 269.358 407.702 269.102 407.844 268.873C407.844 268.779 407.986 268.701 408.048 268.622L408.221 268.45L408.473 268.246L408.912 267.902C409.119 267.755 409.308 267.587 409.478 267.4H409.839C409.635 266.852 410.153 266.632 410.405 266.335C416.829 258.563 416.86 250.932 410.467 243.348ZM191.183 260.929C188.676 261.68 186.012 261.745 183.471 261.117C183.078 261.074 182.705 260.928 182.389 260.691C182.073 260.455 181.826 260.139 181.675 259.775C181.524 259.411 181.474 259.014 181.531 258.624C181.587 258.234 181.747 257.866 181.994 257.56C182.411 256.71 183.05 255.988 183.843 255.47C184.636 254.951 185.555 254.656 186.502 254.614C187.751 254.537 188.992 254.867 190.037 255.553C191.082 256.24 191.876 257.247 192.298 258.422C192.675 259.597 192.534 260.568 191.183 260.929ZM219.204 233.037C218.007 233.416 216.753 233.586 215.497 233.538C214.021 233.382 212.513 233.319 211.052 233.068C210.644 233.054 210.245 232.939 209.891 232.734C209.538 232.529 209.24 232.24 209.026 231.893C208.811 231.545 208.686 231.15 208.662 230.743C208.637 230.336 208.714 229.929 208.885 229.558C209.228 228.506 209.845 227.562 210.673 226.825C211.501 226.087 212.51 225.581 213.597 225.359C214.756 225.049 215.983 225.106 217.108 225.521C218.233 225.937 219.202 226.69 219.88 227.678C220.178 228.07 220.555 228.399 220.853 228.806C221.138 229.166 221.324 229.594 221.393 230.048C221.461 230.501 221.409 230.965 221.242 231.392C221.076 231.82 220.8 232.197 220.442 232.485C220.085 232.774 219.658 232.964 219.204 233.037V233.037ZM231.44 256.463C231.17 256.377 230.924 256.228 230.722 256.029C230.52 255.831 230.368 255.587 230.278 255.319C229.178 251.339 233.136 244.977 236.23 244.867C236.418 244.634 236.658 244.447 236.93 244.322C237.203 244.197 237.501 244.137 237.801 244.147C239.749 242.721 241.885 243.065 244.084 243.363C246.552 243.812 248.8 245.069 250.47 246.937C252.141 248.805 253.138 251.176 253.304 253.674C253.381 254.281 253.238 254.895 252.901 255.406C252.564 255.918 252.055 256.292 251.466 256.463C250.098 257.083 248.649 257.51 247.162 257.732C241.838 258.249 236.56 258.39 231.44 256.463ZM264.236 282.098C261.949 282.905 259.529 283.272 257.105 283.179C255.149 283.255 253.195 282.973 251.341 282.349C251.003 282.309 250.678 282.197 250.388 282.021C250.098 281.844 249.85 281.607 249.661 281.326C249.471 281.044 249.345 280.725 249.291 280.391C249.236 280.056 249.255 279.714 249.346 279.387C249.44 278.039 249.921 276.746 250.732 275.662C251.542 274.579 252.648 273.751 253.916 273.276C255.258 272.648 256.744 272.391 258.22 272.532C259.695 272.672 261.106 273.205 262.304 274.075C263.355 274.695 264.219 275.584 264.808 276.651C265.396 277.718 265.687 278.923 265.65 280.14C265.656 280.569 265.522 280.988 265.266 281.334C265.011 281.679 264.649 281.931 264.236 282.051V282.098ZM285.095 232.175C283.733 232.657 282.298 232.901 280.854 232.896C279.55 232.739 278.231 232.645 276.959 232.379C274.728 231.909 274.084 230.342 275.152 228.226C275.783 227.143 276.706 226.258 277.818 225.673C278.929 225.088 280.182 224.827 281.435 224.92C282.653 225.146 283.778 225.726 284.666 226.588C285.555 227.449 286.169 228.554 286.43 229.762C286.516 230.005 286.549 230.263 286.527 230.519C286.505 230.775 286.428 231.024 286.301 231.248C286.175 231.472 286.002 231.667 285.794 231.818C285.585 231.97 285.347 232.076 285.095 232.128V232.175ZM305.734 256.729C304.52 257.108 303.249 257.267 301.98 257.199C300.807 257.289 299.628 257.151 298.508 256.792C295.917 256.338 295.288 255.006 296.435 252.655C297.053 251.483 298.027 250.536 299.218 249.951C300.409 249.365 301.755 249.171 303.063 249.396C304.115 249.556 305.102 250.002 305.917 250.685C306.731 251.367 307.342 252.261 307.681 253.266C308.247 255.272 307.76 256.244 305.734 256.682V256.729ZM310.446 230.185C313.351 224.779 319.87 224.199 324.174 228.618C324.747 229.175 325.196 229.847 325.488 230.59C325.781 231.333 325.911 232.13 325.87 232.927C326.184 234.369 325.367 235.027 323.954 235.466C320.243 236.579 316.302 236.687 312.535 235.779C308.938 234.996 309.032 232.833 310.493 230.138L310.446 230.185ZM341.231 278.651C338.492 280.048 335.465 280.794 332.388 280.829C328.202 281.28 323.968 280.923 319.917 279.779C315.346 278.385 314.608 277.194 316.493 271.944C317.467 269.202 318.975 266.585 322.132 265.583C322.791 264.36 324.126 264.219 325.194 263.937C328.593 262.918 332.254 263.233 335.428 264.818C338.601 266.402 341.048 269.137 342.268 272.461C342.566 273.418 342.746 274.407 342.802 275.407C342.94 276.033 342.866 276.687 342.59 277.266C342.314 277.845 341.852 278.316 341.278 278.604L341.231 278.651ZM372.645 251.01C371.369 251.555 369.974 251.765 368.593 251.621C367.592 251.651 366.592 251.573 365.608 251.386C363.535 250.775 363.237 250.305 363.943 248.346C364.354 247.302 365.103 246.426 366.072 245.857C367.04 245.288 368.172 245.059 369.286 245.207C370.4 245.355 371.432 245.871 372.218 246.673C373.003 247.475 373.497 248.516 373.619 249.631C373.776 250.399 373.32 250.681 372.724 250.963L372.645 251.01Z" fill="#B6E8FB"/>
<path d="M410.043 267.823C409.776 268.09 409.54 268.372 409.273 268.638C409.105 268.816 408.921 268.979 408.723 269.124V269.124L408.362 269.359L408.158 269.453C408.024 269.519 407.881 269.566 407.734 269.594C407.767 269.327 407.859 269.07 408.001 268.842C408.001 268.748 408.142 268.669 408.205 268.591L408.378 268.419L408.629 268.215L409.069 267.87C409.275 267.724 409.465 267.556 409.634 267.369L410.043 267.823Z" fill="#B6E8FB"/>
<path d="M407.719 269.609C407.702 269.689 407.668 269.764 407.619 269.828C407.569 269.893 407.507 269.946 407.434 269.983C407.362 270.021 407.283 270.042 407.202 270.045C407.12 270.048 407.039 270.033 406.965 270.001V270.001C406.958 269.97 406.958 269.938 406.965 269.907L407.106 269.672C407.143 269.629 407.189 269.594 407.24 269.57C407.292 269.546 407.348 269.533 407.404 269.531C407.451 269.518 407.5 269.518 407.546 269.531H407.671L407.719 269.609Z" fill="#B6E8FB"/>
<path d="M406.965 269.986C406.965 270.284 406.729 270.332 406.509 270.379C406.52 270.275 406.571 270.179 406.65 270.111L406.776 270.033C406.827 270.017 406.882 270.017 406.933 270.033V270.033L406.965 269.986Z" fill="#B6E8FB"/>
<path d="M410.09 267.652C410.09 267.652 410.09 267.762 410.09 267.825L409.635 267.369H409.996C410.035 267.46 410.067 267.555 410.09 267.652Z" fill="#B6E8FB"/>
<path d="M296.278 199.27C296.437 199.148 296.618 199.057 296.812 199.003C296.613 199.043 296.429 199.135 296.278 199.27V199.27Z" fill="#174552"/>
<path d="M417.252 235.231C413.631 230.493 409.137 226.488 404.011 223.432C395.091 217.979 385.511 213.683 375.503 210.645V210.645L375.205 210.551C372.744 209.778 370.252 209.047 367.728 208.357C366.362 207.981 365.026 207.558 363.66 207.167L362.953 206.979H362.702L361.445 206.712C361.1 206.618 360.738 206.555 360.377 206.477H359.937H359.356H358.854L358.068 206.399C358.068 206.399 358.068 206.242 358.068 206.164L346.461 203.907L346.131 203.657V203.86H346.037C340.084 202.889 334.147 201.902 328.162 201.134L325.162 200.742L320.607 200.256C319.995 200.256 319.366 200.115 318.754 200.068H318.393H318.283H317.859C316.115 199.896 314.387 199.739 312.644 199.598L308.78 199.316L305.749 199.128L304.461 199.034H304.319H303.817H303.722L302.45 198.94L299.057 198.674H298.916H296.858C292.351 198.674 287.858 198.533 283.35 198.564C280.696 198.564 278.026 198.439 275.371 198.564C274.467 198.606 273.565 198.695 272.67 198.83L271.193 198.58H270.031H267.455H266.261H265.146C264.98 198.692 264.793 198.772 264.596 198.815H263.528C259.602 198.956 255.675 199.206 251.795 199.536C247.916 199.865 244.13 200.256 240.298 200.726L235.774 201.306L227.025 202.497L222.596 203.108H222.502L216.031 204.33L214.868 204.581L212.638 205.02H212.465H212.214H212.104H211.79L209.23 205.647L208.9 205.725L201.517 207.574L198.376 208.389L196.805 208.796L195.517 209.157C193.287 209.799 191.088 210.489 188.889 211.225C187.79 211.585 186.706 211.961 185.606 212.353L184.208 212.855C179.218 214.664 174.336 216.756 169.585 219.122C162.753 222.306 156.553 226.696 151.287 232.081C147.344 236.343 144.313 241.138 144.187 247.171C143.999 256.776 149.543 263.107 156.611 268.528C156.847 267.792 156.093 267.572 155.747 267.181C148.554 259.346 148.538 250.634 155.747 242.721C158.703 239.502 162.123 236.74 165.894 234.526C173.814 229.963 182.25 226.36 191.025 223.792L191.748 223.573C193.837 222.946 195.926 222.35 198.03 221.786L200.277 221.206C205.837 219.765 211.491 218.621 217.099 217.336C218.575 217.085 220.067 216.85 221.544 216.584H221.638C221.94 216.623 222.247 216.623 222.549 216.584V216.584C230.56 214.923 238.711 214.328 246.816 213.45C248.937 213.215 251.057 213.043 253.099 212.902C255.141 212.761 257.465 212.62 259.664 212.494L266.874 212.118C267.659 212.118 268.445 212.04 269.23 212.024L276.534 211.679C283.083 211.789 289.633 211.57 296.167 211.977C300.675 211.883 305.105 212.776 309.612 212.823C311.595 212.813 313.575 212.96 315.534 213.262C318.675 213.779 321.817 213.951 324.864 214.234C327.471 214.484 330.094 214.657 332.717 215.017C337.744 215.706 342.77 216.474 347.796 217.195L352.335 218.135C352.566 218.227 352.802 218.306 353.042 218.37C367.964 221.504 382.571 225.5 396.142 232.598C401.585 235.219 406.461 238.876 410.498 243.363C416.891 250.947 416.781 258.578 410.498 266.303C410.247 266.601 409.728 266.82 409.933 267.369C410.062 267.422 410.201 267.449 410.341 267.447H410.451C410.985 267.447 411.283 266.867 411.645 266.554C413.49 264.951 415.173 263.172 416.671 261.242C423.221 253.047 423.378 243.567 417.252 235.231ZM296.309 199.191C296.386 199.125 296.47 199.067 296.56 199.018L296.843 198.924C296.667 199.004 296.507 199.116 296.372 199.253L296.309 199.191Z" fill="#09A8EF"/>
<path d="M170.638 287.88L169.114 287.3L169.083 287.285L168.8 287.191L167.717 286.768L167.418 286.658L167.34 286.627L166.381 286.204L164.795 285.514L166.319 286.141L170.638 287.88Z" fill="#09A8EF"/>
<path d="M174.643 289.37L173.999 289.118C174.208 289.216 174.423 289.3 174.643 289.37V289.37Z" fill="#09A8EF"/>
<path d="M458.969 254.974C457.781 256.021 456.486 256.94 455.106 257.717C456.142 257.011 457.069 256.15 458.106 255.507L458.655 255.162L458.969 254.974Z" fill="#09A8EF"/>
<path d="M157.083 268.857C156.706 268.998 156.47 268.857 156.313 268.481H156.392C156.863 268.168 156.863 268.607 157.083 268.857Z" fill="#B6E8FB"/>
<path d="M157.868 270.017C157.787 270.002 157.711 269.97 157.644 269.922C157.577 269.873 157.522 269.811 157.483 269.739C157.444 269.666 157.421 269.586 157.417 269.504C157.413 269.422 157.428 269.341 157.46 269.265V269.265C157.9 269.359 157.852 269.688 157.868 270.017Z" fill="#B6E8FB"/>
<path d="M157.476 269.235C157.209 269.235 157.067 269.125 157.099 268.842C157.15 268.842 157.2 268.852 157.247 268.872C157.294 268.892 157.336 268.921 157.371 268.958C157.406 268.995 157.434 269.038 157.452 269.086C157.47 269.133 157.478 269.184 157.476 269.235V269.235Z" fill="#B6E8FB"/>
<path d="M216.549 175.326C216.361 175.695 216.091 176.017 215.759 176.265C215.426 176.514 215.042 176.684 214.634 176.761C214.226 176.838 213.805 176.821 213.405 176.711C213.005 176.6 212.635 176.4 212.324 176.125C211.738 175.581 211.274 174.917 210.965 174.18C210.657 173.442 210.509 172.647 210.534 171.848C210.267 167.585 211.775 163.637 212.293 159.531C212.419 158.67 212.482 157.801 212.481 156.93C212.481 155.16 213.408 154.517 215.089 154.548C216.769 154.58 218.104 155.52 218.12 157.071C218.12 159.265 218.12 161.459 218.12 163.637C218.042 164.889 218.042 166.145 218.12 167.397C218.269 170.13 217.729 172.856 216.549 175.326Z" fill="#FEFEFE"/>
<path d="M358.42 130.163C358.216 135.819 357.745 141.46 357.415 147.101C357.211 150.517 358.389 153.871 358.137 157.334C357.823 161.502 355.938 162.285 352.326 161.909C350.755 161.737 349.577 161.47 349.813 163.664C349.813 164.087 349.813 164.651 349.216 164.604C348.72 164.594 348.24 164.424 347.849 164.119C347.441 163.758 347.849 163.257 348.101 162.975C349.027 162.019 349.012 161.596 348.101 160.358C347.164 158.77 346.495 157.039 346.122 155.234C344.551 150.361 345.43 145.55 346.561 140.724C347.284 137.673 348.337 134.71 349.703 131.886C350.211 130.783 350.942 129.795 351.85 128.986C352.758 128.178 353.824 127.564 354.98 127.186C356.488 126.637 358.499 128.408 358.42 130.163Z" fill="#FEFEFE"/>
<path d="M341.278 278.604C338.538 280.001 335.511 280.746 332.435 280.782C328.249 281.233 324.015 280.876 319.964 279.732C315.393 278.337 314.655 277.147 316.539 271.897C317.513 269.155 319.021 266.538 322.178 265.535C322.201 265.87 322.147 266.205 322.019 266.515C321.89 266.825 321.692 267.101 321.44 267.322C321.249 267.511 321.111 267.747 321.038 268.005C320.964 268.264 320.959 268.537 321.022 268.798C321.085 269.059 321.215 269.3 321.398 269.497C321.581 269.694 321.812 269.841 322.068 269.923C322.563 270.019 323.074 269.971 323.542 269.785C324.01 269.599 324.415 269.282 324.707 268.873C325.041 268.552 325.279 268.144 325.393 267.696C325.507 267.247 325.492 266.775 325.351 266.335C325.037 265.269 324.079 265.551 323.309 265.52C322.932 265.52 322.555 265.52 322.178 265.52C322.838 264.298 324.173 264.156 325.241 263.874C328.64 262.856 332.3 263.171 335.474 264.755C338.648 266.34 341.095 269.074 342.314 272.399C342.613 273.355 342.792 274.344 342.849 275.345C342.999 275.985 342.925 276.658 342.639 277.25C342.353 277.843 341.873 278.321 341.278 278.604Z" fill="#EFF5FE"/>
<path d="M253.209 253.627C253.303 254.229 253.179 254.845 252.86 255.364C252.54 255.884 252.046 256.273 251.466 256.463C250.097 257.083 248.649 257.51 247.162 257.732C241.837 258.328 236.56 258.469 231.455 256.494C231.185 256.408 230.939 256.26 230.737 256.061C230.535 255.862 230.383 255.619 230.293 255.35C229.193 251.37 233.151 245.009 236.246 244.899C235.818 245.349 235.419 245.825 235.052 246.325C234.912 246.494 234.809 246.691 234.75 246.903C234.692 247.114 234.678 247.336 234.711 247.553C234.743 247.77 234.821 247.978 234.94 248.164C235.058 248.349 235.214 248.507 235.398 248.628C236.277 249.349 236.968 248.863 237.628 248.174C239.01 246.842 238.288 245.51 237.785 244.147C239.733 242.721 241.869 243.066 244.068 243.363C246.515 243.825 248.739 245.083 250.393 246.94C252.047 248.797 253.037 251.149 253.209 253.627V253.627Z" fill="#EFF5FE"/>
<path d="M265.649 280.092C265.666 280.529 265.537 280.96 265.281 281.315C265.024 281.67 264.656 281.929 264.235 282.051C261.948 282.858 259.529 283.225 257.104 283.132C255.148 283.208 253.195 282.926 251.34 282.302C251.003 282.262 250.678 282.15 250.388 281.973C250.098 281.797 249.85 281.56 249.66 281.278C249.471 280.997 249.345 280.678 249.29 280.344C249.236 280.009 249.255 279.667 249.345 279.34C249.44 277.992 249.921 276.699 250.731 275.615C251.542 274.532 252.647 273.704 253.916 273.229C255.258 272.601 256.744 272.344 258.219 272.484C259.695 272.625 261.105 273.158 262.303 274.028C263.354 274.648 264.219 275.537 264.807 276.604C265.396 277.671 265.687 278.875 265.649 280.092V280.092Z" fill="#EFF5FE"/>
<path d="M324 235.481C320.289 236.594 316.348 236.703 312.581 235.795C308.937 234.996 309.031 232.833 310.492 230.138C313.398 224.732 319.916 224.152 324.22 228.571C324.794 229.128 325.242 229.8 325.535 230.543C325.827 231.286 325.957 232.083 325.916 232.88C326.231 234.385 325.414 235.043 324 235.481Z" fill="#EFF5FE"/>
<path d="M219.204 233.037C218.007 233.416 216.753 233.586 215.497 233.538C214.021 233.382 212.513 233.319 211.052 233.068C210.643 233.054 210.245 232.939 209.891 232.734C209.538 232.529 209.24 232.24 209.026 231.893C208.811 231.545 208.686 231.15 208.661 230.743C208.637 230.336 208.713 229.929 208.885 229.558C209.228 228.506 209.845 227.562 210.673 226.825C211.501 226.087 212.509 225.581 213.597 225.359C214.756 225.049 215.983 225.106 217.108 225.521C218.233 225.937 219.202 226.69 219.879 227.678C220.178 228.07 220.555 228.399 220.853 228.806C221.138 229.166 221.324 229.594 221.392 230.048C221.461 230.501 221.409 230.965 221.242 231.392C221.075 231.82 220.8 232.197 220.442 232.485C220.085 232.773 219.658 232.964 219.204 233.037V233.037Z" fill="#EFF5FE"/>
<path d="M305.733 256.682C304.52 257.061 303.248 257.22 301.979 257.152C300.806 257.242 299.628 257.104 298.508 256.745C295.916 256.291 295.288 254.959 296.434 252.608C297.052 251.436 298.027 250.489 299.218 249.904C300.408 249.318 301.755 249.124 303.063 249.349C304.114 249.509 305.102 249.955 305.916 250.638C306.731 251.32 307.341 252.214 307.681 253.219C308.246 255.272 307.759 256.244 305.733 256.682Z" fill="#EFF5FE"/>
<path d="M285.094 232.128C283.732 232.61 282.298 232.854 280.853 232.849C279.549 232.692 278.23 232.598 276.958 232.332C274.727 231.862 274.083 230.295 275.151 228.179C275.782 227.095 276.706 226.211 277.817 225.626C278.928 225.041 280.181 224.78 281.434 224.873C282.653 225.099 283.777 225.679 284.666 226.54C285.554 227.402 286.168 228.506 286.429 229.715C286.523 229.96 286.563 230.223 286.545 230.485C286.526 230.747 286.451 231.001 286.324 231.231C286.197 231.461 286.021 231.66 285.808 231.815C285.596 231.97 285.352 232.077 285.094 232.128Z" fill="#EFF5FE"/>
<path d="M191.182 260.929C188.675 261.68 186.011 261.745 183.47 261.117C183.078 261.074 182.704 260.928 182.388 260.691C182.072 260.455 181.826 260.139 181.675 259.775C181.524 259.411 181.474 259.014 181.53 258.624C181.586 258.234 181.746 257.866 181.994 257.56C182.411 256.71 183.049 255.988 183.843 255.47C184.636 254.951 185.554 254.656 186.502 254.614C187.751 254.537 188.991 254.867 190.036 255.553C191.081 256.24 191.875 257.247 192.298 258.422C192.675 259.597 192.533 260.568 191.182 260.929Z" fill="#EFF5FE"/>
<path d="M373.697 249.584C373.697 250.399 373.321 250.681 372.724 250.963C371.447 251.507 370.052 251.718 368.671 251.574C367.671 251.604 366.67 251.525 365.687 251.339C363.614 250.728 363.315 250.258 364.022 248.299C364.432 247.255 365.182 246.379 366.15 245.81C367.119 245.24 368.25 245.012 369.364 245.16C370.479 245.308 371.511 245.824 372.296 246.626C373.082 247.428 373.575 248.469 373.697 249.584Z" fill="#EFF5FE"/>
<path d="M237.581 248.127C236.874 248.816 236.23 249.302 235.35 248.581C235.164 248.458 235.007 248.296 234.888 248.107C234.77 247.918 234.693 247.706 234.663 247.485C234.634 247.264 234.652 247.039 234.716 246.825C234.78 246.612 234.889 246.414 235.036 246.246C235.404 245.746 235.802 245.27 236.23 244.82C236.418 244.587 236.657 244.4 236.93 244.275C237.203 244.15 237.501 244.09 237.801 244.1C238.241 245.494 238.963 246.795 237.581 248.127Z" fill="#FEFEFE"/>
<path d="M407.844 282.114L409.037 281.534L409.634 281.174L407.844 282.114Z" fill="#09A8EF"/>
<path d="M322.194 265.52C322.571 265.52 322.948 265.52 323.309 265.52C324.095 265.52 325.037 265.269 325.367 266.335C325.499 266.776 325.509 267.246 325.396 267.692C325.283 268.139 325.05 268.547 324.723 268.873C324.429 269.281 324.025 269.596 323.557 269.783C323.09 269.969 322.579 270.017 322.084 269.923C321.827 269.843 321.594 269.697 321.409 269.501C321.224 269.305 321.093 269.065 321.028 268.803C320.964 268.542 320.968 268.268 321.04 268.009C321.112 267.749 321.25 267.513 321.44 267.322C321.693 267.101 321.891 266.825 322.019 266.515C322.147 266.205 322.201 265.87 322.178 265.535L322.194 265.52Z" fill="#FEFEFE"/>
<path d="M409.634 281.174L409.037 281.534L407.844 282.114L409.634 281.174Z" fill="#88D4FF"/>
<path d="M170.638 287.88L169.114 287.3L169.083 287.285L168.8 287.191L167.717 286.768L167.418 286.658L167.34 286.627L166.381 286.204L164.795 285.514L166.319 286.141L170.638 287.88Z" fill="#88D4FF"/>
<path d="M174.643 289.37L173.999 289.118C174.208 289.216 174.423 289.3 174.643 289.37V289.37Z" fill="#88D4FF"/>
<path d="M170.638 287.88L169.114 287.3L169.083 287.285L168.8 287.191L167.717 286.768L167.418 286.658L167.34 286.627L166.381 286.204L164.795 285.514L166.319 286.141L170.638 287.88Z" fill="#09A8EF"/>
<path d="M458.97 261.743C451.352 268.403 441.896 269.907 432.268 271.145C431.012 271.302 430.446 271.553 430.399 272.994C429.504 304.647 420.834 334.356 407.86 362.984C405.017 369.252 401.907 375.379 398.608 381.427C398.263 382.306 397.726 383.098 397.038 383.746C396.149 386.292 394.802 388.655 393.064 390.719C392.38 392.391 391.488 393.97 390.409 395.42C388.399 398.664 386.357 401.891 384.236 405.072C379.037 412.907 371.514 417.906 363.252 421.933C350.341 428.201 336.55 431.617 322.414 433.92C313.919 435.329 305.35 436.245 296.749 436.662C296.403 436.662 295.979 436.552 295.775 437.007H267.88C266.2 436.428 264.421 436.193 262.649 436.317C245.857 435.298 229.271 432.09 213.314 426.775C203.371 423.296 193.963 418.83 186.156 411.497C181.57 407.188 178.648 401.672 175.256 396.517C174.015 394.637 172.915 392.662 171.753 390.735C171.753 390.594 171.612 390.453 171.533 390.327L171.329 389.607C169.745 387.622 168.484 385.401 167.591 383.025C166.008 380.863 164.675 378.529 163.617 376.068C152.341 354.652 144.02 331.813 138.879 308.172C136.377 296.598 134.973 284.815 134.685 272.979C134.685 271.6 134.229 271.208 132.894 271.067C125.685 270.528 118.637 268.674 112.098 265.598C110.876 264.966 109.71 264.232 108.611 263.404C107.407 262.645 106.436 261.568 105.804 260.294C105.172 259.02 104.905 257.597 105.03 256.181C105.156 254.818 105.03 253.439 105.124 252.06C107.119 256.588 111.219 258.516 115.428 260.224C121.322 262.395 127.482 263.765 133.742 264.298C134.339 264.298 134.905 264.298 135.313 264.924C141.957 273.464 151.02 278.823 160.444 283.524C161.214 283.9 162.015 284.292 162.737 284.637C163.177 284.84 163.601 285.028 164.041 285.201L164.669 285.467L166.24 286.157L167.198 286.58L167.497 286.689L168.596 287.112L168.879 287.206L170.449 287.786H170.575L173.717 289.008L174.361 289.259C190.061 294.759 206.264 298.711 222.738 301.058C236.3 303.142 249.963 304.502 263.67 305.132C275.529 305.665 287.372 305.775 299.215 305.289C322.456 304.526 345.564 301.466 368.2 296.154H368.388L369.519 295.856H369.598H369.833H370.053L373.461 294.775C375.44 294.164 378.064 293.318 381.016 292.346L382.242 291.939L385.147 290.967L385.87 290.732C388.226 289.917 390.692 289.071 393.126 288.194L394.572 287.661C398.467 286.235 402.268 284.778 405.566 283.367L407.875 282.349L409.069 281.769L409.666 281.409C410.514 280.939 411.362 280.484 412.179 279.998L413.247 279.387L414.582 278.573C415.195 278.212 415.792 277.836 416.388 277.429C416.703 277.241 417.017 277.021 417.331 276.802C417.975 276.394 418.587 275.956 419.2 275.517C419.813 275.078 420.205 274.781 420.771 274.404L421.949 273.496L422.059 273.402C422.655 272.932 423.237 272.43 423.818 271.929C424.399 271.427 425.012 270.879 425.593 270.362C426.132 269.936 426.617 269.447 427.038 268.904C429.205 265.112 432.755 264.345 436.76 263.906C440.462 263.506 444.107 262.697 447.629 261.493V261.493L448.273 261.258L449.059 260.96C449.656 260.725 450.41 260.412 451.258 260.036C452.106 259.659 452.828 259.377 453.567 258.986C454.047 258.737 454.509 258.454 454.949 258.14C454.985 258.15 455.023 258.15 455.059 258.14C456.44 257.363 457.735 256.444 458.923 255.397L459.033 255.303C462.394 252.169 462.504 250.242 462.441 249.662C462.441 249.662 462.441 249.537 462.441 249.506C466.478 256.949 458.97 261.743 458.97 261.743Z" fill="#09A8EF"/>
<path d="M454.996 257.795C454.557 258.11 454.095 258.393 453.614 258.641C452.86 259.033 452.043 259.378 451.305 259.691C452.568 259.124 453.8 258.491 454.996 257.795Z" fill="#09A8EF"/>
<path d="M196.413 205.271H196.193L193.869 205.85L196.413 205.271Z" fill="#88D4FF"/>
<path d="M209.937 202.325C209.641 202.357 209.348 202.404 209.057 202.466H209.23H209.387H209.481L209.937 202.325Z" fill="#88D4FF"/>
<path d="M459.08 254.896H458.97L458.687 255.1L458.138 255.444C457.101 256.134 456.174 257.011 455.138 257.654C455.102 257.665 455.064 257.665 455.028 257.654C453.831 258.35 452.599 258.983 451.337 259.55C450.488 259.926 449.766 260.239 449.138 260.474L448.352 260.772L447.708 261.007C444.186 262.211 440.541 263.021 436.839 263.42C432.834 263.859 429.284 264.627 427.117 268.419C426.696 268.961 426.211 269.451 425.672 269.876C425.09 270.424 424.493 270.957 423.897 271.443C423.3 271.929 422.734 272.446 422.137 272.916L422.028 273.01L420.849 273.919C420.347 274.295 419.86 274.671 419.279 275.031C418.698 275.392 418.054 275.909 417.41 276.316L416.467 276.943C415.87 277.35 415.274 277.726 414.661 278.087L413.326 278.902L412.258 279.513C411.441 279.998 410.593 280.453 409.745 280.923L407.954 281.863L405.645 282.882C402.41 284.292 398.608 285.749 394.65 287.175L393.205 287.708C390.771 288.585 388.305 289.432 385.949 290.246L385.226 290.481L382.32 291.453L381.095 291.86C378.142 292.832 375.519 293.678 373.54 294.289L370.132 295.37H369.912H369.676H369.598L368.467 295.668H368.278C345.643 300.98 322.535 304.04 299.294 304.803C287.451 305.289 275.608 305.179 263.749 304.647C250.16 304.05 236.612 302.738 223.162 300.714C206.656 298.523 190.406 294.723 174.643 289.369C174.424 289.304 174.209 289.226 174 289.134L170.858 287.912H170.732L166.287 286.141L164.717 285.514L164.088 285.248C163.649 285.075 163.225 284.887 162.785 284.684C162.015 284.339 161.214 283.947 160.492 283.571C150.989 278.87 141.973 273.511 135.36 264.971C134.874 264.345 134.308 264.407 133.79 264.345C127.522 263.799 121.356 262.413 115.46 260.224C111.313 258.516 107.151 256.588 105.156 252.06C104.606 248.518 106.444 246.215 109.177 244.397L109.57 244.053C109.661 243.947 109.78 243.871 109.914 243.832C110.048 243.793 110.19 243.793 110.324 243.833C111.567 242.448 113.278 241.567 115.13 241.357V241.357L115.507 241.06L116.025 240.793C121.502 238.808 127.215 237.544 133.02 237.033C133.592 236.983 134.147 236.81 134.646 236.526C135.145 236.242 135.576 235.854 135.91 235.387C141.193 229.319 147.591 224.314 154.759 220.642C165.545 214.918 176.955 210.449 188.764 207.323L190.476 206.853L191.67 206.54L193.916 205.944L196.241 205.365H196.46H196.665L198.738 204.848C200.387 204.424 202.068 204.033 203.638 203.672L205.209 203.328L206.057 203.155L206.858 202.983L208.319 202.716L208.9 202.622H209.167H208.995C209.285 202.56 209.579 202.513 209.874 202.481V202.481H210.267H210.911L212.136 204.973H211.885H211.775H211.837H211.618L209.057 205.6L208.728 205.678L201.345 207.527C200.293 207.793 199.225 208.06 198.204 208.342L196.633 208.749H196.539L195.251 209.11C193.021 209.752 190.822 210.442 188.623 211.178C187.523 211.538 186.439 211.915 185.34 212.306L183.942 212.808C178.952 214.617 174.069 216.709 169.319 219.075C162.486 222.259 156.287 226.649 151.02 232.034C147.078 236.296 144.046 241.091 143.921 247.124C143.732 256.745 149.308 263.091 156.392 268.513C156.549 268.857 156.785 269.03 157.162 268.889C157.162 269.171 157.272 269.296 157.539 269.281C157.507 269.356 157.492 269.438 157.496 269.52C157.5 269.602 157.523 269.682 157.562 269.754C157.601 269.826 157.656 269.889 157.723 269.937C157.789 269.985 157.866 270.018 157.947 270.033C159.91 270.315 160.9 272.038 162.408 272.994C166.326 275.56 170.432 277.828 174.691 279.779C186.593 284.873 199.003 288.697 211.712 291.186C224.612 293.813 237.664 295.639 250.791 296.655C258.503 297.313 266.278 297.627 274.021 297.799C283.618 298.018 293.231 298.081 302.796 297.407C310.021 296.906 317.262 296.639 324.456 295.699C329.027 295.12 333.645 294.665 338.2 293.991C346.744 292.717 355.205 291.04 363.582 288.961C366.543 288.403 369.457 287.623 372.299 286.627C378.849 284.48 386.436 281.628 388.195 280.97H388.352L388.572 280.892L390.771 279.92C394.096 278.417 397.318 276.695 400.415 274.765C401.059 274.357 401.703 273.95 402.331 273.527C402.959 273.104 403.776 272.555 404.483 271.96C405.19 271.365 405.897 270.926 406.588 270.393C406.808 270.393 407.027 270.299 407.043 270.001C407.118 270.033 407.199 270.048 407.28 270.045C407.361 270.042 407.441 270.021 407.513 269.983C407.585 269.946 407.648 269.893 407.697 269.828C407.746 269.764 407.78 269.689 407.797 269.61C407.944 269.582 408.087 269.534 408.221 269.469L408.425 269.375L408.787 269.14C408.984 268.994 409.168 268.832 409.336 268.654C409.603 268.387 409.839 268.105 410.106 267.839C410.106 267.839 410.106 267.714 410.106 267.667C410.068 267.563 410.021 267.463 409.965 267.369C410.128 267.42 410.304 267.42 410.467 267.369H410.577C411.111 267.369 411.41 266.789 411.771 266.476C413.616 264.873 415.299 263.094 416.797 261.164C423.237 253.016 423.394 243.536 417.268 235.199C413.647 230.462 409.153 226.457 404.027 223.4C395.107 217.948 385.528 213.652 375.519 210.614V210.614L375.221 210.52C371.487 209.035 367.622 207.902 363.676 207.135L362.969 206.947H362.718L361.462 206.681C361.116 206.587 360.755 206.524 360.394 206.446H359.954C359.31 206.289 358.65 206.085 358.006 205.944L346.399 203.688L346.069 203.437V203.641H345.975V203.469C339.001 202.356 332.027 201.228 325.006 200.429C323.435 200.256 321.974 200.1 320.451 199.959C319.838 199.88 319.21 199.818 318.597 199.771H318.236H318.126H317.702L312.582 199.379L308.718 199.097L305.576 198.862L304.288 198.768H304.147H303.644H303.55L302.278 198.674L298.948 198.407H298.854C298.845 198.361 298.845 198.313 298.854 198.266L299.058 197.812C299.053 197.765 299.053 197.718 299.058 197.671L299.262 197.358C299.328 197.263 299.407 197.178 299.498 197.107C299.662 196.968 299.847 196.857 300.048 196.778C300.244 196.7 300.45 196.647 300.66 196.621C301.403 196.566 302.148 196.566 302.891 196.621C305.941 196.553 308.993 196.657 312.032 196.934C314.466 197.138 316.885 197.405 319.304 197.64C324.755 198.172 330.205 198.752 335.655 199.316L336.409 199.41C339.55 200.225 342.786 200.147 345.833 201.228V201.103C350.065 201.455 354.265 202.12 358.399 203.093C359.121 203.257 359.857 203.351 360.598 203.375C363.095 203.876 365.655 204.722 368.153 205.239C375.347 207.198 382.54 209.11 389.561 211.632C400.792 215.675 411.677 220.439 421.226 227.788C424.175 229.987 426.816 232.569 429.08 235.466C429.533 236.037 430.108 236.5 430.763 236.823C431.417 237.145 432.135 237.318 432.865 237.33C437.176 237.8 441.441 238.617 445.619 239.775L446.043 239.885C448.525 240.543 461.389 244.194 462.426 249.521C462.551 249.819 462.441 251.762 459.08 254.896Z" fill="#88D4FF"/>
<path d="M298.791 198.11L298.885 198.125H298.791V198.11Z" fill="#88D4FF"/>
<path d="M360.362 206.399C360.723 206.399 361.085 206.54 361.43 206.634L360.268 206.415C359.969 206.415 359.655 206.32 359.341 206.273H358.838H357.959V206.117C357.959 206.117 357.959 206.117 357.959 206.023L346.351 203.766H346.022H345.645L329.199 201.228L328.147 201.071L325.006 200.585C332.027 201.385 339.001 202.513 345.974 203.625V203.798H346.069V203.594L346.399 203.845L358.006 206.101C358.65 206.242 359.31 206.446 359.954 206.603L360.362 206.399Z" fill="#88D4FF"/>
<path d="M416.782 261.164C415.284 263.094 413.6 264.873 411.755 266.476C411.394 266.789 411.096 267.306 410.562 267.369C411.033 267.259 411.316 266.773 411.661 266.491C413.506 264.889 415.19 263.109 416.687 261.179C423.127 253.031 423.284 243.551 417.159 235.215C413.538 230.477 409.044 226.473 403.918 223.416C394.997 217.964 385.418 213.667 375.41 210.63C372.849 209.83 370.242 209.063 367.635 208.342C366.064 207.903 364.493 207.386 362.923 206.963H362.671C362.294 206.853 361.902 206.759 361.509 206.681L362.765 206.947H363.017L363.724 207.135C367.669 207.902 371.534 209.035 375.268 210.52L375.567 210.614C385.575 213.652 395.155 217.948 404.075 223.4C409.201 226.457 413.695 230.462 417.316 235.199C423.378 243.567 423.221 253.047 416.782 261.164Z" fill="#88D4FF"/>
<path d="M224.402 199.755L223.539 199.928H223.696H223.931L224.402 199.755Z" fill="#88D4FF"/>
<path d="M224.402 199.755L223.538 199.928L222.455 200.148L223.727 199.865H223.963L224.402 199.755Z" fill="#88D4FF"/>
<path d="M298.775 198.11H298.759V198.125H298.775V198.11Z" fill="#88D4FF"/>
<path d="M299.325 197.06L299.121 197.373C299.116 197.42 299.116 197.467 299.121 197.514V197.342C299.176 197.239 299.245 197.144 299.325 197.06V197.06Z" fill="#88D4FF"/>
<path d="M345.896 200.82V200.946C342.849 199.865 339.613 199.943 336.472 199.128L335.718 199.034C330.267 198.47 324.817 197.89 319.367 197.357C316.948 197.122 314.529 196.856 312.094 196.652C314.529 196.84 316.948 197.091 319.367 197.326C324.817 197.843 330.267 198.407 335.718 198.893L336.472 198.987C339.582 199.849 342.849 199.771 345.896 200.82Z" fill="#88D4FF"/>
<path d="M358.839 206.211H357.959C357.959 206.132 357.959 206.023 357.959 205.96C358.603 206.101 359.263 206.305 359.907 206.461L360.252 206.54C359.954 206.54 359.64 206.446 359.326 206.399L358.839 206.211Z" fill="#09A8EF"/>
<path d="M375.393 210.645C372.833 209.846 370.226 209.078 367.618 208.357C366.048 207.919 364.477 207.402 362.906 206.979L363.707 207.151C367.653 207.917 371.518 209.05 375.252 210.535L375.393 210.645Z" fill="#09A8EF"/>
</svg>
