<svg xmlns="http://www.w3.org/2000/svg" viewBox="0 0 249.16 238.94"><defs><style>.cls-1{fill:#09a8ef;}.cls-2{fill:#333;}</style></defs><g id="Layer_2" data-name="Layer 2"><g id="Layer_1-2" data-name="Layer 1"><path class="cls-1" d="M114,54a3.38,3.38,0,0,0,5,1c2-1.4.93-3-.09-4.52Q107.75,33.92,96.6,17.31c-.86-1.29-1.74-2.61-3.75-2.66-2.31.68-3.73,2.17-2.12,4.61Q102.24,36.74,114,54Z"/><path class="cls-1" d="M157.55,48.64c.43,1.67-.41,3.6,1.74,4.17,2.47.67,3.54-1,4.33-2.85,4-9.63,7.92-19.28,11.93-28.9.93-2.24,1.22-4.36-1.46-5.3-2.38-.84-3.43,1-4.23,2.93-3.5,8.43-7.05,16.85-10.55,25.28C158.64,45.57,158.08,47.22,157.55,48.64Z"/><path class="cls-1" d="M102.48,75.14c1.09-2.88-1.12-4-3.5-5-8.46-3.4-16.86-6.95-25.29-10.42-1.25-.51-2.54-.91-3.48-1.24-2.08-.06-3.55.31-3.82,2.29-.32,2.42,1.3,3.37,3.24,4.16,9,3.66,17.92,7.42,26.92,11C98.6,76.84,101.24,78.4,102.48,75.14Z"/><path class="cls-1" d="M134.1,134.48c-1.8-.51-3,.82-3.35,2.46-2.08,9.41-4.06,18.84-5.83,27.1-.25,3.55-.67,6.36,2.52,6.72s3.31-2.68,3.81-4.87c.95-4.16,1.79-8.34,2.62-12.53q1.42-7.14,2.74-14.29C137,136.92,136.24,135.08,134.1,134.48Z"/><path class="cls-1" d="M102.35,108c-1.33-2.08-3.31-1.67-5.17-.74-8.46,4.17-17.31,7.35-26.1,10.71a33.07,33.07,0,0,0-4.21,2,2.74,2.74,0,0,0-1.35,3.5c.49,1.41,1.63,2.12,4.74,1.85,9.29-4.07,19.95-8.68,30.54-13.48C102.05,111.27,103.49,109.77,102.35,108Z"/><path class="cls-1" d="M143.24,47.16c2.56-.07,2.69-1.61,2.68-3.5,0-5.24,0-10.48,0-15.72,0-5,0-10.09,0-15.13,0-2.28-1-3.92-3.33-3.85s-2.67,2-2.67,3.82c0,10.28,0,20.56,0,30.85C139.88,46,140.63,47.22,143.24,47.16Z"/><path class="cls-1" d="M64.09,88.86c-1.92,0-3.57.76-3.56,3s1.6,3.09,3.51,3.11q15.69.1,31.38,0c2.12,0,3.86-.88,3.77-3.42-.09-2.38-1.9-2.68-3.72-2.7-5.23,0-10.46,0-15.69,0S69.32,88.81,64.09,88.86Z"/><path class="cls-1" d="M108.47,130.57l.31-.34,4.22-4.86c0-1.31-.17-2.54-1.73-3.29-1.87-.91-3.38,0-4.68,1.33q-9.42,9.42-18.82,18.88c-1.44,1.45-1.69,3.09,0,4.54s3.24,1,4.66-.37c5.22-5.13,10.38-10.31,15.62-15.41C108.17,130.9,108.32,130.73,108.47,130.57Z"/><path class="cls-1" d="M178.26,122.54c-1.4-1.38-3.14-1.79-4.61-.18a3.09,3.09,0,0,0,.17,4.66c6.16,6.18,12.35,12.32,18.46,18.54a3,3,0,0,0,3.67.59c1.23-.48,1.76-1.44,2-3a8.86,8.86,0,0,0-1.26-2.25Q187.5,131.67,178.26,122.54Z"/><path class="cls-1" d="M175,55.31c-1.5,1.5-3.4,3.36-1.44,5.5,2.16,2.36,4.21.72,5.95-1q8.64-8.66,17.24-17.35A17.36,17.36,0,0,0,198.53,40c0-1.69-.22-2.79-1.5-3.36-1.68-.75-3-.11-4.19,1.06C186.89,43.56,180.92,49.4,175,55.31Z"/><path class="cls-1" d="M64.39,43.88C72.08,47.63,79,52.53,85.94,57.5c2.37,1.69,4,.53,4.89-2.32-.34-.67-.54-1.83-1.22-2.28Q78.41,45.37,67,38.09c-1.28-.82-3.27-1.27-4,.69C62.44,40.53,62.12,42.77,64.39,43.88Z"/><path class="cls-1" d="M126.6,26.54a3.22,3.22,0,0,0,3.82,2.77,2.54,2.54,0,0,0,2.4-2.82c-1.36-8.18-2.28-16.47-5.41-24.24C126.82.79,125.7-.38,123.77.11,121.67.65,122,2.28,122,3.9,123.5,11.41,125,19,126.6,26.54Z"/><path class="cls-1" d="M125.77,132.1c-1.64-.87-2.77.34-3.26,1.5-3,7.08-5.93,14.21-8.79,21.35a2.82,2.82,0,0,0,1.4,3.48,2.26,2.26,0,0,0,3.4-1.12c2.81-7.23,7.67-13.61,8.94-21.29C128.18,134,127.22,132.88,125.77,132.1Z"/><path class="cls-1" d="M145.92,150.29V139.23c0-2-.61-3.53-2.81-3.68s-3.17,1.29-3.18,3.28c-.05,7.56,0,15.13,0,22.7,0,2.47,1.51,2.7,3.45,2.73,2.1,0,2.62-1.08,2.6-2.91C145.89,157.66,145.92,154,145.92,150.29Z"/><path class="cls-1" d="M91.47,127.88c-.59-2.67-2.47-3.52-4.72-2.17-4.83,2.91-9.5,6.12-14.16,9.29-1.58,1.08-2.49,2.72-1.22,4.51s3,1.46,4.66.39c4.55-3,9.07-6,13.6-9.05A3.85,3.85,0,0,0,91.47,127.88Z"/><path class="cls-1" d="M155.47,155.13c-2.32.62-2.39,2.93-2,4.84.87,4.56,2,9.07,2.95,13.63.36,1.79.64,3.85,2.84,3.72,2.51-.15,2.65-2.4,2.69-4.93-.91-4.26-1.94-9-2.95-13.74C158.56,156.69,158.16,154.42,155.47,155.13Z"/><path class="cls-1" d="M95.84,85.37c1.75,0,3.85.08,4.13-2.6.25-2.38-1.52-2.69-3.33-3-4.73-.88-9.42-1.91-14.14-2.81-1.91-.37-3.58.23-4,2.26-.52,2.25,1.23,3.12,3,3.48C86.15,83.65,90.89,84.46,95.84,85.37Z"/><path class="cls-1" d="M180.81,34.74a2.38,2.38,0,0,0,3.23.13c4.8-4.92,7.72-11,10.6-17.17a2,2,0,0,0-1.53-2.14,3.37,3.37,0,0,0-4.06,1.51c-3,4.64-6,9.34-8.87,14A2.56,2.56,0,0,0,180.81,34.74Z"/><path class="cls-1" d="M182.85,146.37a5.09,5.09,0,0,0-3.5-2.25c-2.27.45-4,1.37-2.23,4.19,2.74,4.25,5.57,8.43,8.43,12.59,1,1.5,2.49,2.79,4.38,1.54,2-1.36,1.74-3.27.5-5.08C187.93,153.68,185.39,150,182.85,146.37Z"/><path class="cls-1" d="M166.23,52.42c-.94,1.95.49,3.23,2.46,3.68.41-.11.88-.09,1.13-.32,4.14-3.85,6.72-8.81,9.53-13.58.66-1.11-.32-2.15-1.31-2.91a2.11,2.11,0,0,0-3.09.28A45.27,45.27,0,0,0,166.23,52.42Z"/><path class="cls-1" d="M104.75,147.84a2.77,2.77,0,0,0-3.6,1.06c-2.74,4-5.42,8-8,12.15-1.37,2.23-.43,3.65,2.15,4.14.49-.14,1.22-.14,1.56-.51a49.24,49.24,0,0,0,9.15-14A2.2,2.2,0,0,0,104.75,147.84Z"/><path class="cls-1" d="M112.23,60.11c.9-1.45.22-2.61-.77-3.61q-4.44-4.5-9-8.91c-1.2-1.17-2.61-1.82-4.07-.43-1.64,1.57-1,3.15.33,4.53,2.68,2.76,5.39,5.5,8.17,8.16a13.89,13.89,0,0,0,2.53,1.64A2.94,2.94,0,0,0,112.23,60.11Z"/><path class="cls-1" d="M113.16,127.79v-.09h-.1s0,.06,0,.08Z"/><path class="cls-1" d="M119.51,128.93a2.64,2.64,0,0,0-2.4-1.38h0s-2.19.5-5.6,5.69a1,1,0,0,0-.11.15c-.1.18-.22.35-.34.53a1.37,1.37,0,0,1-.13.2l-.83,1.17-.06.08a29.24,29.24,0,0,0-1.94,2.85c-1.13,2-1.52,3.7.14,5.08,2.2,1.8,3.42-.36,4.58-1.8a34.2,34.2,0,0,0,4.36-6C118.19,133.42,121.35,131.88,119.51,128.93Z"/><path class="cls-1" d="M117.33,38.24c1.32,3.64,2.68,7.26,4.13,10.84.65,1.62,1.5,3.43,3.76,2.55a3.36,3.36,0,0,0,2-4.33C126,43.44,124.5,39.68,123,35.91c-.45-1.11-1.4-1.84-3.26-2C118,34.42,116.32,35.46,117.33,38.24Z"/><path class="cls-1" d="M58.26,105.64a12.18,12.18,0,0,0-2.32.24c-2.52.37-5.64.55-5.29,4s3.48,2.19,5.65,2.34a14.75,14.75,0,0,0,1.76,0c3.49-.38,8.28-1.37,8-4.79C65.73,103.1,61.08,105.79,58.26,105.64Z"/><path class="cls-1" d="M114.1,28.48c2.49,1.25,4.65.48,4.38-2.38-.36-3.89-2.76-7.2-4.59-10.61-.29-.53-1.27-.69-1.7-.91a2.68,2.68,0,0,0-2.46,1.76C108.84,18.72,111.79,27.32,114.1,28.48Z"/><path class="cls-1" d="M157.07,146.74c-.75-3-1.27-5.91-2.69-8.71-.78-1.55-1.08-3.67-3-3.19a3.08,3.08,0,0,0-2.21,3.88,93.79,93.79,0,0,0,1.54,9.43c.36,1.37.79,3.83,3.4,2.68C155.78,150.08,157.76,149.47,157.07,146.74Z"/><path class="cls-1" d="M131.11,34.32c-1.31.61-2.34,1.5-2.05,3.09.59,3.21,1.22,6.42,2,9.6.29,1.19,1.26,1.9,3.29,2,.85,0,2.36-1.07,2.21-2.23a86.09,86.09,0,0,0-2.45-11.56A2.06,2.06,0,0,0,131.11,34.32Z"/><path class="cls-1" d="M169.23,127.54c-1.69-.77-3.18.92-3.31,3-.16,2.59,4.47,8.6,6.67,8.7a2.77,2.77,0,0,0,3.16-2.66C174.56,132.85,172.91,129.23,169.23,127.54Z"/><path class="cls-1" d="M101.86,68c.74.72,2,1.66,3.13.83a3.39,3.39,0,0,0,.88-4.24c-2.31-3.41-6.24-4.87-8.74-6.54-2.57-.74-3,.51-3.34,1.6A3.29,3.29,0,0,0,95.69,64,16.72,16.72,0,0,1,101.86,68Z"/><path class="cls-1" d="M95.91,120.65A2.24,2.24,0,0,0,97.16,124c2.57,1.06,10-3.94,9.82-6.65a2.39,2.39,0,0,0-2.75-2.38C100.42,115.25,97.93,117.8,95.91,120.65Z"/><path class="cls-1" d="M92.53,44.14c1.67-.39,3.27-1.89,2.49-3.28a20.28,20.28,0,0,0-7.85-8c-2.42.09-3.38,1-3.37,2.94C83.82,38.27,90.38,44.64,92.53,44.14Z"/><path class="cls-1" d="M76,108.1c7.14-1.51,14.47-2.21,21.41-4.65.3-.13.59-.27.88-.42,1.54-.35,3.5-.94,2.55-2.81A4.26,4.26,0,0,0,95.94,98c-7,1.49-14.07,2.72-21.1,4.13-1.78.36-3.58,1.3-3.26,3.41C71.93,107.9,73.84,108.56,76,108.1Z"/><path class="cls-1" d="M56,77.44c4.71,1,9.46,1.87,14.23,2.63a2.59,2.59,0,0,0,3.1-2,2.83,2.83,0,0,0-2.24-3.56c-4.29-1-8.64-1.62-13-2.41-.07,0-4.41-1.15-5.28,1.25a.06.06,0,0,1,0,0,2.89,2.89,0,0,0-.24.72C52.2,75.74,54.31,77.07,56,77.44Z"/><path class="cls-1" d="M151.31,49.67c2.58.55,3.1-2.41,3.87-4.28,1.56-3.82,1.38-8,2.29-12,1.78-7.89,2.39-16,4.74-23.84a3,3,0,0,0-2.28-4.06c-1.81-.51-2.73.75-3.41,2.38-.16.38-.28.75-.4,1.13V9l0,.16A17.05,17.05,0,0,0,155.4,12c-1.77,7.69-6.23,27.55-6,31.45C149.46,46.24,148.76,49.12,151.31,49.67Z"/><path class="cls-1" d="M163.87,134.51a3.05,3.05,0,0,0-.65-1.17l0,0v0c-.88-.93-2.29-1-3.9-.28-2.08.92-1.68,2.27-1,3.81,1.2,2.61,2.21,5.29,3.25,8,.86,2.21,1.75,4.4,2.75,6.55,1.75,4.12,3.6,8.3,4,8.35.47.63,1.19.93,2.45.46,2.7-1,2.33-2.87,1.46-4.72A126.76,126.76,0,0,0,163.87,134.51Z"/><path class="cls-2" d="M0,221a17.76,17.76,0,0,1,17.89-18,20.16,20.16,0,0,1,8.69,1.89,2.79,2.79,0,0,1,1.58,2.49A2.82,2.82,0,0,1,24.24,210a14.2,14.2,0,0,0-6.2-1.21C11,208.74,6.12,213.65,6.12,221S11,233.2,18,233.2a14.2,14.2,0,0,0,6.2-1.21,2.82,2.82,0,0,1,3.92,2.57,2.79,2.79,0,0,1-1.58,2.49,20.16,20.16,0,0,1-8.69,1.89A17.76,17.76,0,0,1,0,221Z"/><path class="cls-2" d="M32.77,221a18,18,0,1,1,17.89,18A17.84,17.84,0,0,1,32.77,221Zm29.9,0c0-7.17-5-12.23-12-12.23s-11.77,5-11.77,12.23,4.83,12.23,11.92,12.23S62.67,228.37,62.67,221Z"/><path class="cls-2" d="M102.23,235.84v-2.26a14.88,14.88,0,0,1-11.62,5.36c-9.59,0-17-7.93-17-18.12,0-11.33,8.61-17.89,17-17.89a14.73,14.73,0,0,1,11.62,5.58v-15.4a3.06,3.06,0,1,1,6.12,0v42.73a3.06,3.06,0,1,1-6.12,0Zm0-9.81V215.76a12,12,0,0,0-10.72-7.1c-6.94,0-11.78,4.91-11.78,12.16,0,7.55,4.61,12.38,11.78,12.38A12.19,12.19,0,0,0,102.23,226Z"/><path class="cls-2" d="M115.6,194.32a4.27,4.27,0,1,1,4.3,4.3A4.25,4.25,0,0,1,115.6,194.32Zm1.21,41.52V206.1a3.06,3.06,0,1,1,6.11,0v29.74a3.06,3.06,0,1,1-6.11,0Z"/><path class="cls-1" d="M134.27,232.74a1.87,1.87,0,0,1,1.82,1.91,1.85,1.85,0,0,1-1.82,1.91,1.87,1.87,0,0,1-1.92-1.91A1.89,1.89,0,0,1,134.27,232.74Z"/><path class="cls-1" d="M140.33,235.24v-26.8a1.35,1.35,0,1,1,2.69,0v11.21a8,8,0,0,1,7.33-4.6c5.06,0,8.35,3.42,8.35,8.62v11.57a1.38,1.38,0,0,1-1.37,1.37,1.36,1.36,0,0,1-1.32-1.37v-10.8c0-4.33-2.33-6.88-6.25-6.88s-6.74,3-6.74,7.11v10.57a1.35,1.35,0,1,1-2.69,0Z"/><path class="cls-1" d="M163.25,225.85c0-5.69,3.88-10.93,10.07-10.93,5.79,0,9.53,4.55,9.67,9.7,0,1-.23,1.64-1.32,1.64H165.94c.18,4.88,3.46,7.84,8.3,7.84a10.24,10.24,0,0,0,5.74-1.82,1.15,1.15,0,0,1,1.64,1,1.11,1.11,0,0,1-.55,1.05,11.43,11.43,0,0,1-6.88,2.28A10.57,10.57,0,0,1,163.25,225.85Zm17.09-1.73a6.94,6.94,0,0,0-7.06-6.7,7.12,7.12,0,0,0-7.2,6.7Z"/><path class="cls-1" d="M186.36,229.91c0-3.78,3.51-6.56,8.38-6.56,2.88,0,5.57,1.18,6.66,3v-3.92c0-3.05-2.28-5-6.06-5a12.36,12.36,0,0,0-5,1.1,1.2,1.2,0,1,1-.87-2.24,15.11,15.11,0,0,1,6.34-1.36c4.92,0,8.25,2.87,8.25,7.29v13a1.33,1.33,0,0,1-1.32,1.37,1.38,1.38,0,0,1-1.37-1.5v-1.55c-.87,1.64-3.69,3.1-6.66,3.1C189.78,236.66,186.36,233.83,186.36,229.91Zm15,0c0-2.73-3.15-4.28-6.34-4.28s-6,1.5-6,4.28,2.82,4.28,6,4.28S201.4,232.64,201.4,229.91Z"/><path class="cls-1" d="M210,235.24v-26.8a1.34,1.34,0,1,1,2.68,0v26.8a1.34,1.34,0,1,1-2.68,0Z"/><path class="cls-1" d="M225.87,236.34c-1.82.41-3.42.36-4.51-.41s-1.73-2.24-1.73-4.38V218.06H217.9a1.26,1.26,0,1,1,0-2.51h1.73l0-4.19a1.35,1.35,0,0,1,2.69,0v4.19h2.14a1.26,1.26,0,1,1,0,2.51h-2.14v13.35a2.62,2.62,0,0,0,.78,2.24,3,3,0,0,0,2.37.27,1.22,1.22,0,0,1,1.41,1.23A1.27,1.27,0,0,1,225.87,236.34Z"/><path class="cls-1" d="M230.79,235.24v-26.8a1.37,1.37,0,0,1,1.37-1.36,1.35,1.35,0,0,1,1.32,1.36v11.21a8,8,0,0,1,7.34-4.6c5.06,0,8.34,3.42,8.34,8.62v11.57a1.35,1.35,0,1,1-2.69,0v-10.8c0-4.33-2.32-6.88-6.24-6.88s-6.75,3-6.75,7.11v10.57a1.36,1.36,0,0,1-1.32,1.37A1.38,1.38,0,0,1,230.79,235.24Z"/></g></g></svg>